<?xml version="1.0" encoding="UTF-8" standalone="no"?>
<!-- Created with Inkscape (http://www.inkscape.org/) -->
<svg
   xmlns:xml="http://www.w3.org/XML/1998/namespace"
   xmlns:dc="http://purl.org/dc/elements/1.1/"
   xmlns:cc="http://web.resource.org/cc/"
   xmlns:rdf="http://www.w3.org/1999/02/22-rdf-syntax-ns#"
   xmlns:svg="http://www.w3.org/2000/svg"
   xmlns="http://www.w3.org/2000/svg"
   xmlns:sodipodi="http://inkscape.sourceforge.net/DTD/sodipodi-0.dtd"
   xmlns:inkscape="http://www.inkscape.org/namespaces/inkscape"
   inkscape:export-ydpi="90.000000"
   inkscape:export-xdpi="90.000000"
   inkscape:export-filename="/home/sean/projects/ubuntu/trunk/artwork/kubuntu-cover.png"
   sodipodi:docname="kubuntu-cover.svg"
   sodipodi:docbase="/home/sean/projects/ubuntu/trunk/artwork"
   inkscape:version="0.41"
   sodipodi:version="0.32"
   id="svg2"
   height="233.00000mm"
   width="450.00000mm">
  <defs
     id="defs3" />
  <sodipodi:namedview
     inkscape:window-y="0"
     inkscape:window-x="0"
     inkscape:window-height="948"
     inkscape:window-width="1276"
     showgrid="true"
     inkscape:guide-bbox="true"
     showguides="true"
     inkscape:current-layer="layer2"
     inkscape:document-units="px"
     inkscape:cy="373.97096"
     inkscape:cx="430.54747"
     inkscape:zoom="0.81972305"
     inkscape:pageshadow="2"
     inkscape:pageopacity="0.0"
     borderopacity="1.0"
     bordercolor="#666666"
     pagecolor="#ffffff"
     id="base">
    <sodipodi:guide
       id="guide1321"
       position="-0.17857143"
       orientation="vertical" />
    <sodipodi:guide
       id="guide1323"
       position="1594.4643"
       orientation="vertical" />
    <sodipodi:guide
       id="guide1965"
       position="797.00000"
       orientation="vertical" />
    <sodipodi:guide
       id="guide2843"
       position="825.90072"
       orientation="horizontal" />
    <sodipodi:guide
       id="guide2845"
       position="-0.35355339"
       orientation="horizontal" />
    <sodipodi:guide
       id="guide8346"
       position="730.73461"
       orientation="vertical" />
    <sodipodi:guide
       id="guide8348"
       position="860.04658"
       orientation="vertical" />
  </sodipodi:namedview>
  <metadata
     id="metadata4">
    <rdf:RDF
       id="RDF5">
      <cc:Work
         id="Work6"
         rdf:about="">
        <dc:format
           id="format7">image/svg+xml</dc:format>
        <dc:type
           rdf:resource="http://purl.org/dc/dcmitype/StillImage"
           id="type9" />
        <dc:title
           id="title1291">Generic Kubuntu Book Cover</dc:title>
        <dc:creator
           id="creator1293">
          <cc:Agent
             id="Agent1295">
            <dc:title
               id="title1297">Sean Wheller</dc:title>
          </cc:Agent>
        </dc:creator>
        <dc:rights
           id="rights1299">
          <cc:Agent
             id="Agent1301">
            <dc:title
               id="title1303"></dc:title>
          </cc:Agent>
        </dc:rights>
        <cc:license
           rdf:resource="http://creativecommons.org/licenses/by/2.0/"
           id="license1305" />
      </cc:Work>
      <cc:License
         id="License1307"
         rdf:about="http://creativecommons.org/licenses/by/2.0/">
        <cc:permits
           id="permits1309"
           rdf:resource="http://web.resource.org/cc/Reproduction" />
        <cc:permits
           id="permits1311"
           rdf:resource="http://web.resource.org/cc/Distribution" />
        <cc:requires
           id="requires1313"
           rdf:resource="http://web.resource.org/cc/Notice" />
        <cc:requires
           id="requires1315"
           rdf:resource="http://web.resource.org/cc/Attribution" />
        <cc:permits
           id="permits1317"
           rdf:resource="http://web.resource.org/cc/DerivativeWorks" />
        <cc:requires
           id="requires1319"
           rdf:resource="http://web.resource.org/cc/ShareAlike" />
      </cc:License>
    </rdf:RDF>
  </metadata>
  <g
     style="display:inline"
     id="layer1"
     inkscape:groupmode="layer"
     inkscape:label="background">
    <rect
       y="-32.969456"
       x="-26.558500"
       height="890.50610"
       width="1654.1152"
       id="rect1993"
       style="display:inline;stroke-opacity:1.0000000;stroke-miterlimit:4.0000000;stroke-linejoin:round;stroke-linecap:round;stroke-width:0.88027704;stroke:#0b0803;fill-opacity:1.0000000;fill:#4969a7" />
  </g>
  <g
     inkscape:label="artwork"
     id="layer2"
     inkscape:groupmode="layer">
    <path
       sodipodi:nodetypes="cccccccccccccccccccccccccccccccccccccc"
       id="path7562"
       d="M 149.61774,165.23642 L 131.24688,188.84998 C 125.81425,187.60553 121.79403,186.74679 116.36513,187.12091 L 102.19746,162.33954 L 85.808293,167.48888 L 88.382363,195.24967 C 84.568593,197.64154 79.679913,202.22379 76.520233,205.53503 L 49.058063,197.14326 L 41.061513,212.70298 L 64.484523,231.41564 C 63.133843,236.59962 63.213983,239.76402 63.439113,244.96446 L 37.444823,258.25645 L 43.068713,274.54964 L 73.059673,271.59018 C 76.342313,276.93865 76.897613,278.83279 82.056353,282.87377 L 73.535843,309.35907 L 88.582983,318.67891 L 107.03569,295.94245 C 111.70156,296.75383 117.42076,297.36615 122.05512,297.00384 L 135.21978,321.94921 L 152.13742,317.42532 L 148.80364,288.54545 C 153.25284,285.67758 157.21170,282.69808 160.71697,278.56868 L 188.46151,286.43683 L 195.57547,271.14678 L 172.88983,252.97637 C 173.83857,248.08948 174.34509,244.40521 173.91830,239.54953 L 200.25103,225.27590 L 196.00105,209.49771 L 166.50331,212.77764 C 163.96394,209.03114 160.14532,204.86299 156.64709,201.78882 L 164.40175,173.76811 L 149.61774,165.23642 z M 133.56671,214.65302 C 149.17376,222.72346 155.16068,241.70639 146.91861,256.98847 C 138.67659,272.27057 119.31567,278.08509 103.70860,270.01469 C 88.101533,261.94432 82.137563,243.03413 90.379613,227.75205 C 98.621683,212.47002 117.95969,206.58260 133.56671,214.65302 z "
       style="fill:#3c5cb2;fill-opacity:1.0000000;fill-rule:nonzero;stroke:#001b7b;stroke-width:1.4979336;stroke-linecap:butt;stroke-linejoin:round;stroke-miterlimit:4.0000000;stroke-dashoffset:0.0000000;stroke-opacity:1.0000000;opacity:0.20930233" />
    <path
       sodipodi:nodetypes="cccccccccccccccccccccccccccccccccccccc"
       id="path7564"
       d="M 326.70426,158.03498 L 298.54930,169.04169 C 294.54291,165.23957 291.54543,162.47933 286.69245,160.06743 L 287.55097,131.67974 L 270.78985,127.84651 L 258.42279,152.95379 C 253.89580,153.08558 247.29682,154.55510 242.84818,155.80477 L 223.69865,134.78287 L 208.67055,144.10375 L 218.93686,171.94501 C 215.05668,175.71158 213.46406,178.46616 210.92683,183.04009 L 181.65197,181.35613 L 177.92156,198.16237 L 205.19976,210.72082 C 205.20734,216.96083 204.68919,218.86502 206.99246,224.92794 L 185.77882,243.35634 L 193.79224,258.92477 L 221.55689,248.71158 C 225.13301,251.75625 229.71712,255.16039 233.88240,257.18247 L 232.07745,285.20592 L 248.96350,289.84161 L 261.26644,263.39208 C 266.58838,263.17185 271.54833,262.60902 276.72296,260.83157 L 296.38959,281.54646 L 310.51907,272.01261 L 300.60053,245.00762 C 303.98001,241.29354 306.34880,238.38837 308.53203,234.00862 L 338.61255,235.02099 L 343.25103,219.34805 L 316.22763,207.31280 C 316.01651,202.82102 314.92949,197.32358 313.54292,192.92581 L 334.90578,172.79493 L 326.70426,158.03498 z M 286.99204,192.34173 C 296.14167,207.12034 291.31052,226.41641 276.21760,235.37555 C 261.12470,244.33473 241.46536,239.57614 232.31568,224.79755 C 223.16600,210.01897 227.97867,190.79682 243.07154,181.83771 C 258.16446,172.87860 277.84240,177.56314 286.99204,192.34173 z "
       style="fill:#b1c4ea;fill-opacity:1.0000000;fill-rule:nonzero;stroke:#001b7b;stroke-width:1.4979336;stroke-linecap:butt;stroke-linejoin:round;stroke-miterlimit:4.0000000;stroke-dashoffset:0.0000000;stroke-opacity:1.0000000;opacity:0.20930233" />
    <g
       transform="matrix(0.596459,0.000000,0.000000,0.622911,870.4096,-189.4661)"
       id="g1911">
      <g
         transform="matrix(1.061710,0.000000,0.000000,1.061710,-14.07829,101.9516)"
         id="g2281">
        <path
           d="M 518.58244,264.98260 C 518.58244,262.16606 519.16227,260.09451 520.48823,258.68595 C 521.72992,257.36055 523.38737,256.61498 525.45836,256.61498 C 527.61249,256.61498 529.26994,257.36056 530.59479,258.68595 C 531.83760,260.09451 532.50058,262.16605 532.50058,264.98260 L 532.50058,283.12641 C 532.50058,288.26341 532.83208,291.82553 533.57821,293.81335 C 534.24007,295.80231 535.40084,297.37660 536.97402,298.45311 C 538.54832,299.61276 540.45411,300.19260 542.77343,300.19260 C 545.09387,300.19260 546.99966,299.61276 548.57284,298.53627 C 550.14714,297.45865 551.38995,295.80231 552.13609,293.73133 C 552.71593,292.07388 553.04741,288.76009 553.04741,283.54050 L 553.04741,264.90002 C 553.04741,262.08291 553.62724,260.09452 554.87005,258.68597 C 556.11286,257.27797 557.76919,256.61499 559.84017,256.61499 C 561.99430,256.61499 563.65176,257.27797 564.89457,258.68597 C 566.21941,260.09452 566.88239,262.16606 566.88239,264.90002 L 566.88239,279.89522 C 566.88239,289.50622 566.13738,296.05064 564.56307,299.61276 C 562.74044,303.92103 560.00648,307.23481 556.36120,309.55526 C 552.79795,311.87458 548.24135,312.95220 542.69140,312.95220 C 536.64365,312.95220 531.75556,311.62624 528.02713,308.97544 C 524.29870,306.24147 521.72992,302.51305 520.15675,297.70811 C 519.07913,294.31117 518.58245,288.26342 518.58245,279.48115 L 518.58245,264.98260"
           style="fill:#122a3d;fill-rule:evenodd"
           id="path71" />
        <path
           d="M 411.54226,304.66715 C 411.54226,307.48426 412.12209,309.55525 413.36489,310.88008 C 414.69085,312.28920 416.34719,312.95218 418.41929,312.95218 C 420.49026,312.95218 422.22975,312.28920 423.47256,310.88008 C 424.79852,309.47209 425.46151,307.40111 425.46151,304.66715 L 425.46151,286.52279 C 425.46151,281.38636 425.79188,277.82424 426.53802,275.75270 C 427.20100,273.76432 428.36066,272.19058 429.85181,271.11351 C 431.50926,270.03644 433.41393,269.45662 435.73436,269.45662 C 437.97053,269.45662 439.95948,269.95329 441.53378,271.03036 C 443.10807,272.19058 444.35089,273.76433 445.09590,275.91846 C 445.67573,277.49275 445.92407,280.88970 445.92407,286.02613 L 445.92407,304.74920 C 445.92407,307.48428 446.58705,309.55526 447.82986,310.88010 C 449.07267,312.28922 450.73013,312.95220 452.80110,312.95220 C 454.87207,312.95220 456.61156,312.28922 457.85437,310.88010 C 459.18034,309.55526 459.76017,307.48429 459.76017,304.74920 L 459.76017,289.67140 C 459.76017,280.14411 459.01403,273.51598 457.52288,270.03645 C 455.70024,265.72819 452.96628,262.41441 449.32100,260.09452 C 445.75888,257.77465 441.11912,256.61498 435.56805,256.61498 C 429.60346,256.61498 424.71536,257.94039 420.98692,260.67434 C 417.25850,263.32571 414.60768,267.13673 413.11654,271.94167 C 412.04003,275.25602 411.54224,281.30377 411.54224,290.08603 L 411.54224,304.66715"
           style="fill:#122a3d;fill-rule:evenodd"
           id="path73" />
        <path
           d="M 348.41172,264.98260 C 348.41172,262.16606 348.99267,260.09451 350.23436,258.68595 C 351.56032,257.36055 353.21777,256.61498 355.28876,256.61498 C 357.35974,256.61498 359.09922,257.36056 360.42519,258.68595 C 361.66800,260.09451 362.33098,262.16605 362.33098,264.98260 L 362.33098,283.12641 C 362.33098,288.26341 362.66248,291.82553 363.40749,293.81335 C 364.07047,295.80231 365.23012,297.37660 366.80443,298.45311 C 368.37873,299.61276 370.28452,300.19260 372.60384,300.19260 C 374.84113,300.19260 376.82896,299.61276 378.40326,298.53627 C 379.97755,297.45865 381.22037,295.80231 381.96538,293.73133 C 382.54521,292.07388 382.79466,288.76009 382.79466,283.54050 L 382.79466,264.90002 C 382.79466,262.08291 383.45653,260.09452 384.69933,258.68597 C 385.94214,257.27797 387.59960,256.61499 389.67057,256.61499 C 391.74154,256.61499 393.48216,257.27797 394.72384,258.68597 C 396.04980,260.09452 396.62964,262.16606 396.62964,264.90002 L 396.62964,279.89522 C 396.62964,289.50622 395.88463,296.05064 394.39347,299.61276 C 392.57084,303.92103 389.83575,307.23481 386.19047,309.55526 C 382.62835,311.87458 378.07175,312.95220 372.43864,312.95220 C 366.47293,312.95220 361.58483,311.62624 357.85752,308.97544 C 354.12909,306.24147 351.47716,302.51305 349.98601,297.70811 C 348.90950,294.31117 348.41171,288.26342 348.41171,279.48115 L 348.41171,264.98260"
           style="fill:#122a3d;fill-rule:evenodd"
           id="path75" />
        <path
           d="M 223.56035,264.98260 C 223.56035,262.16606 224.22277,260.09451 225.46558,258.68595 C 226.70840,257.36055 228.36529,256.61498 230.43682,256.61498 C 232.59096,256.61498 234.24785,257.36056 235.57326,258.68595 C 236.81607,260.09451 237.47849,262.16605 237.47849,264.90001 L 237.47849,283.12640 C 237.47849,288.26340 237.89313,291.82552 238.55556,293.81334 C 239.30113,295.80229 240.37819,297.37659 241.95250,298.45310 C 243.52680,299.61275 245.43204,300.19259 247.75191,300.19259 C 250.07178,300.19259 251.97702,299.61275 253.55132,298.53626 C 255.20821,297.45863 256.36787,295.80229 257.11344,293.73132 C 257.69383,292.07387 258.02476,288.76008 258.02476,283.54049 L 258.02476,264.90002 C 258.02476,262.08291 258.60515,260.09452 259.84796,258.68597 C 261.17337,257.27797 262.83026,256.61499 264.81864,256.61499 C 266.97277,256.61499 268.62966,257.27797 269.95507,258.68597 C 271.19788,260.09452 271.86086,262.16606 271.86086,264.90002 L 271.86086,279.89522 C 271.86086,289.50622 271.11529,296.05064 269.54099,299.61276 C 267.71835,303.92103 264.98439,307.23481 261.42171,309.55526 C 257.77642,311.87458 253.21983,312.95220 247.66875,312.95220 C 241.62100,312.95220 236.73291,311.62624 233.00505,308.97544 C 229.27662,306.24147 226.70840,302.51305 225.21725,297.70811 C 224.14018,294.31117 223.56035,288.26342 223.56035,279.48115 L 223.56035,264.98260"
           style="fill:#122a3d;fill-rule:evenodd"
           id="path77" />
        <path
           d="M 332.25743,269.95329 C 332.25743,269.87070 332.17427,269.78811 332.17427,269.70496 C 332.17427,269.78810 332.25743,269.87070 332.25743,269.95329 C 332.42261,270.20219 332.50577,270.53368 332.58780,270.78201 C 334.16210,274.75878 334.99139,279.56373 334.99139,284.78330 C 334.99139,289.91974 334.16211,294.64264 332.67096,298.53626 C 332.58780,298.86775 332.42262,299.28127 332.25743,299.61276 C 332.25743,299.69592 332.17427,299.77907 332.17427,299.86223 L 332.17427,269.70496 C 332.33945,270.03645 332.42261,270.45053 332.58780,270.78203 C 332.50577,270.53368 332.42262,270.20219 332.25743,269.95329 M 332.17427,269.70496 C 332.00797,269.37346 331.84278,269.04198 331.67647,268.71104 C 331.84279,269.04196 332.00797,269.37346 332.17427,269.70496 L 332.17427,299.86223 C 331.75963,300.69040 331.42813,301.43541 331.01462,302.18155 C 330.59997,302.92656 330.18533,303.50751 329.68866,304.16937 C 328.19751,306.32350 326.29171,308.14614 324.13758,309.55526 C 320.65861,311.70939 316.18404,312.86904 310.88243,312.95220 L 310.88243,301.68488 C 313.20175,301.60172 315.19069,301.02190 316.84702,299.86224 C 318.17298,298.95092 319.24949,297.79014 319.99563,296.21696 C 320.16081,296.13380 320.24396,295.96750 320.32712,295.80232 C 321.73512,292.73687 322.64644,289.00843 322.64644,284.86648 C 322.64644,280.88971 321.81827,277.24443 320.49231,274.26156 C 319.58100,272.27318 318.42134,270.78203 316.84703,269.70497 C 315.19070,268.54531 313.20175,267.96492 310.88244,267.88233 L 310.88244,256.61501 C 311.37912,256.61501 311.79376,256.61501 312.20729,256.61501 C 317.75836,256.61501 320.49232,257.77466 324.13759,260.01195 C 326.04339,261.25476 327.69972,262.74591 329.10884,264.56855 C 330.10331,265.81136 330.93147,267.21935 331.67649,268.71107 C 331.84279,269.04196 332.00797,269.37346 332.17427,269.70496 z M 310.88243,256.61498 L 310.88243,267.88231 C 310.71613,267.88231 310.55094,267.88231 310.38463,267.88231 C 307.90013,267.88231 305.74600,268.54529 304.00539,269.70494 C 302.34906,270.94776 301.10624,272.68781 300.36010,274.84137 C 299.78027,276.49827 299.44879,279.23279 299.28360,282.87808 C 299.20044,288.59489 299.61509,292.48851 300.36010,294.72467 C 301.10624,296.87880 302.34906,298.61942 304.00539,299.86222 C 305.74600,301.02187 307.90013,301.68485 310.38463,301.68485 C 310.55094,301.68485 310.71613,301.68485 310.88243,301.68485 L 310.88243,312.95218 C 310.71613,312.95218 310.55094,312.95218 310.38463,312.95218 C 304.33688,312.95218 299.53195,311.62622 295.80351,308.89226 C 292.07563,306.24145 289.50742,302.51301 288.01627,297.62493 C 287.10495,295.05616 286.60772,290.83104 286.44197,284.94848 L 286.44197,284.12032 C 286.44197,284.03773 286.44197,283.95515 286.44197,283.87199 L 286.44197,246.67305 C 286.44197,244.35373 286.52457,242.61369 286.60772,241.28828 C 286.77346,239.96232 287.10495,238.88525 287.60163,237.97394 C 288.18146,236.98002 289.01018,236.23445 290.00410,235.57147 C 291.08117,234.99164 292.24138,234.66015 293.48419,234.66015 C 295.30682,234.66015 296.88113,235.32313 298.37228,236.73169 C 299.36676,237.55986 299.94658,238.72007 300.19491,240.04547 C 300.44325,241.28828 300.52641,243.11092 300.52641,245.51339 L 300.52641,259.76301 C 303.17723,258.85171 305.91119,256.94648 310.88243,256.61498 z "
           style="fill:#122a3d;fill-rule:evenodd"
           id="path79" />
        <path
           d="M 476.49542,256.69758 L 478.06972,256.69758 L 478.06972,248.16477 C 478.06972,245.92748 478.06972,244.10484 478.15288,242.86203 C 478.31806,241.53662 478.64955,240.45956 479.22939,239.46565 C 479.80922,238.55433 480.55535,237.72560 481.63185,237.14578 C 482.62633,236.56594 483.78598,236.23446 485.11194,236.23446 C 486.85143,236.23446 488.50889,236.89688 489.91688,238.22285 C 490.91136,239.13417 491.49118,240.29382 491.73951,241.53663 C 492.07101,242.86204 492.15416,244.68468 492.15416,247.08771 L 492.15416,256.69758 L 497.37262,256.69758 C 499.36157,256.69758 500.85271,257.19482 501.92922,258.18929 C 503.00684,259.10061 503.50351,260.26026 503.50351,261.75141 C 503.50351,263.65721 502.75850,264.98261 501.26735,265.81134 C 499.77620,266.55691 497.62207,266.88841 494.80496,266.88841 L 492.15416,266.88841 L 492.15416,292.90204 C 492.15416,295.13933 492.23619,296.87880 492.40249,298.03958 C 492.56767,299.19924 492.98233,300.19259 493.64531,300.93873 C 494.30829,301.68486 495.46794,302.01523 496.95909,302.01523 C 497.78726,302.01523 498.86489,301.93320 500.35604,301.60171 C 501.76403,301.35337 502.84166,301.18706 503.66982,301.18706 C 504.74633,301.18706 505.82395,301.60171 506.73527,302.59618 C 507.64659,303.50750 508.06011,304.58401 508.06011,305.90997 C 508.06011,308.22929 506.81730,309.96876 504.33280,311.12954 C 501.84717,312.37123 498.28392,312.95218 493.64530,312.95218 C 489.25388,312.95218 485.85694,312.20604 483.62078,310.71489 C 481.30035,309.30690 479.80920,307.23480 479.06418,304.58398 C 478.40120,301.93318 478.06971,298.45308 478.06971,294.06280 L 478.06971,266.88840 L 476.16391,266.88840 C 474.09294,266.88840 472.60179,266.39116 471.52416,265.47984 C 470.44765,264.48537 469.86783,263.24312 469.86783,261.75141 C 469.86783,260.26026 470.44766,259.10061 471.52416,258.18929 C 472.68384,257.19482 474.34129,256.69758 476.49542,256.69758"
           style="fill:#122a3d;fill-rule:evenodd"
           id="path81" />
        <path
           d="M 160.34723,294.22800 L 160.34723,293.56502 C 160.18148,265.81134 160.18148,265.89393 160.09889,246.42473 C 160.09889,244.18800 160.18148,242.36537 160.26407,241.12255 C 160.34723,239.79659 160.67871,238.63693 161.25854,237.72561 C 161.83838,236.73170 162.58395,235.98556 163.66101,235.40574 C 164.65549,234.74332 165.81514,234.49442 167.05796,234.49442 C 168.88059,234.49442 170.53749,235.15740 171.94605,236.48281 C 172.93996,237.39413 173.51979,238.47120 173.76868,239.79659 C 174.01702,241.03941 174.18276,242.94520 174.18276,245.26507 C 174.18276,261.75143 174.18276,265.31411 174.18276,271.61076 C 181.80481,267.13676 189.50945,262.74590 197.13151,258.35505 C 199.53454,257.02908 201.60551,256.53241 203.42816,256.94649 C 205.25080,257.36057 206.65936,258.10614 207.73642,259.84620 C 208.73033,261.58568 208.97923,263.24314 208.39883,264.98263 C 207.90216,266.63952 206.41045,268.13067 204.00798,269.37348 C 199.78286,271.94169 195.55776,274.42732 191.41524,276.99553 L 206.82509,301.18709 C 208.31624,303.42437 208.89606,305.41220 208.56458,307.06964 C 208.56458,308.97544 207.73641,310.38343 206.24470,311.54309 C 204.33947,312.70275 202.43424,313.03425 200.52845,312.62072 C 198.70582,312.12292 197.04891,310.71492 195.55777,308.47764 L 179.73385,283.54050 C 177.82806,284.70016 176.00542,285.77779 174.18277,286.85429 C 174.18277,288.51174 174.18277,290.66587 174.18277,292.65370 L 174.18277,302.26470 C 174.18277,304.66716 174.01703,306.48981 173.76870,307.73261 C 173.51979,309.05746 172.93997,310.21824 171.94606,311.04640 C 170.53751,312.45439 168.88061,313.11737 167.14056,313.11737 C 165.89775,313.11737 164.73809,312.78587 163.74418,312.20605 C 162.74971,311.54307 161.92155,310.79806 161.42431,309.80358 C 160.84448,308.89227 160.51299,307.81463 160.42983,306.48980 C 160.34724,305.16384 160.34724,303.42435 160.34724,301.10392 L 160.34724,294.22800"
           style="fill:#122a3d;fill-rule:evenodd"
           id="path95" />
      </g>
      <g
         transform="matrix(0.475294,0.000000,0.000000,0.475294,-187.1700,95.21338)"
         id="g2255">
        <path
           sodipodi:nodetypes="cczzcczcccccccccczc"
           id="path1794"
           d="M 485.75351,559.01923 L 507.45066,595.87826 C 507.45066,595.87826 494.38009,606.07332 488.89044,622.01942 C 483.40080,637.96552 484.23498,651.61633 487.50682,663.21416 C 490.81274,674.93282 502.35699,689.93613 507.11269,692.75367 C 501.51701,703.88927 486.01492,729.72097 486.01492,729.72097 C 479.91500,726.20890 470.12182,717.33451 461.96505,706.08565 C 453.54257,694.47036 448.27922,681.35984 447.49499,677.43866 C 449.79628,675.72363 452.17638,674.35361 456.59026,667.48917 L 451.00819,659.45269 L 452.58980,654.81343 L 462.43374,653.82577 C 463.35797,647.81828 463.18625,645.54645 462.09575,639.27258 C 461.74464,638.91377 452.15011,637.94038 452.15011,637.94038 L 450.34537,633.90980 L 456.47541,626.20200 C 452.59365,620.10209 445.75754,616.00695 445.75754,616.00695 C 445.75754,616.00695 449.62570,602.36657 457.78247,589.52781 C 465.88566,576.77340 473.69141,568.31407 485.75351,559.01923 z "
           style="fill:#b1c4ea;fill-opacity:1.0000000;fill-rule:evenodd;stroke:#001b7b;stroke-width:0.62500000;stroke-linecap:butt;stroke-linejoin:miter;stroke-miterlimit:4.0000000;stroke-opacity:0.91071427" />
        <path
           sodipodi:nodetypes="cczzcczcccccccccczc"
           id="path1795"
           d="M 651.47344,634.82548 L 608.70349,635.12134 C 608.70349,635.12134 606.43451,618.70089 595.38893,605.95689 C 584.34334,593.21287 572.11358,587.09133 560.43815,584.10818 C 548.64108,581.09396 529.87194,583.56143 525.04993,586.26390 C 518.21986,575.83972 503.63998,549.47649 503.63998,549.47649 C 509.73683,545.95910 522.32499,541.93425 536.14735,540.51569 C 550.41997,539.05091 564.40265,541.06920 568.18866,542.35637 C 568.51894,545.20737 567.97137,548.83524 571.69819,556.09566 L 581.81014,554.38196 L 584.47883,558.00166 L 580.83296,567.40518 C 585.56770,571.21653 587.19788,572.46133 593.17313,574.66294 C 593.65962,574.53901 600.03151,566.18532 600.03151,566.18532 L 604.42377,566.64433 L 607.97633,575.73793 C 615.20036,575.43714 622.21444,571.64958 622.21444,571.64958 C 622.21444,571.64958 632.07784,581.83468 639.09767,595.32871 C 646.07139,608.73409 649.47783,619.72892 651.47344,634.82548 z "
           style="fill:#417ade;fill-opacity:1.0000000;fill-rule:evenodd;stroke:#001b7b;stroke-width:0.62500000;stroke-linecap:butt;stroke-linejoin:miter;stroke-miterlimit:4.0000000;stroke-opacity:1.0000000" />
        <path
           sodipodi:nodetypes="cczzcczcccccccccczc"
           id="path1796"
           d="M 503.12627,739.16041 L 524.19993,701.94140 C 524.19993,701.94140 539.56416,708.16389 556.11883,704.94563 C 572.67350,701.72737 584.07863,694.17997 592.48704,685.54787 C 600.98306,676.82584 608.20484,659.32685 608.26726,653.79954 C 620.70882,653.07820 650.83076,653.58867 650.83076,653.58867 C 650.83891,660.62739 648.04958,673.54562 642.38569,686.23380 C 636.53730,699.33531 627.81452,710.44843 624.81070,713.08807 C 622.17484,711.95251 619.79836,710.57622 611.64666,710.18559 L 607.47758,719.03789 L 602.66903,719.98763 L 596.89202,711.95615 C 591.22718,714.15928 589.34553,715.44383 584.45730,719.52499 C 584.32209,720.00845 588.27605,728.80440 588.27605,728.80440 L 585.68770,732.38254 L 575.94760,730.92731 C 572.60556,737.33885 572.47682,745.30665 572.47682,745.30665 C 572.47682,745.30665 558.72970,748.77640 543.53266,748.13124 C 528.43545,747.49032 517.20666,744.95959 503.12627,739.16041 z "
           style="fill:#3c5cb2;fill-opacity:1.0000000;fill-rule:evenodd;stroke:#001b7b;stroke-width:0.62500000;stroke-linecap:butt;stroke-linejoin:miter;stroke-miterlimit:4.0000000;stroke-opacity:1.0000000" />
        <path
           sodipodi:nodetypes="cccccccccccccccccccccccccccccccccccccc"
           id="path1797"
           d="M 617.33959,505.31537 L 609.75473,515.27214 C 607.51174,514.74741 605.85189,514.38532 603.61044,514.54307 L 597.76097,504.09389 L 590.99430,506.26513 L 592.05707,517.97060 C 590.48246,518.97914 588.46405,520.91127 587.15950,522.30747 L 575.82107,518.76904 L 572.51950,525.32987 L 582.19026,533.22015 C 581.63260,535.40600 581.66569,536.74028 581.75864,538.93307 L 571.02626,544.53770 L 573.34822,551.40780 L 585.73072,550.15993 C 587.08604,552.41514 587.31531,553.21381 589.44522,554.91771 L 585.92732,566.08536 L 592.13990,570.01511 L 599.75855,560.42818 C 601.68497,560.77030 604.04628,561.02849 605.95969,560.87572 L 611.39504,571.39405 L 618.37990,569.48653 L 617.00347,557.30920 C 618.84043,556.09995 620.47494,554.84363 621.92218,553.10245 L 633.37719,556.42009 L 636.31436,549.97297 L 626.94804,542.31133 C 627.33975,540.25075 627.54888,538.69726 627.37267,536.64984 L 638.24478,530.63130 L 636.49007,523.97835 L 624.31121,525.36135 C 623.26277,523.78162 621.68616,522.02410 620.24183,520.72786 L 623.44353,508.91280 L 617.33959,505.31537 z M 610.71253,526.15211 C 617.15628,529.55505 619.62813,537.55929 616.22519,544.00305 C 612.82227,550.44682 604.82864,552.89854 598.38488,549.49562 C 591.94112,546.09271 589.47875,538.11914 592.88168,531.67538 C 596.28462,525.23164 604.26879,522.74918 610.71253,526.15211 z "
           style="fill:#3c5cb2;fill-opacity:1.0000000;fill-rule:nonzero;stroke:#001b7b;stroke-width:0.62500000;stroke-linecap:butt;stroke-linejoin:round;stroke-miterlimit:4.0000000;stroke-dashoffset:0.0000000;stroke-opacity:1.0000000" />
        <path
           sodipodi:nodetypes="cccccccccccccccccccccccccccccccccccccc"
           id="path1798"
           d="M 637.65145,726.86620 L 626.02699,731.50723 C 624.37285,729.90405 623.13527,728.74018 621.13160,727.72319 L 621.48606,715.75339 L 614.56582,714.13709 L 609.45978,724.72369 C 607.59070,724.77926 604.86615,725.39889 603.02942,725.92582 L 595.12307,717.06184 L 588.91835,720.99203 L 593.15705,732.73143 C 591.55502,734.31962 590.89747,735.48110 589.84991,737.40972 L 577.76307,736.69967 L 576.22288,743.78610 L 587.48535,749.08143 C 587.48848,751.71256 587.27455,752.51547 588.22551,755.07193 L 579.46694,762.84235 L 582.77548,769.40685 L 594.23879,765.10041 C 595.71528,766.38421 597.60794,767.81958 599.32768,768.67220 L 598.58246,780.48842 L 605.55428,782.44308 L 610.63385,771.29051 C 612.83114,771.19765 614.87898,770.96033 617.01545,770.21086 L 625.13530,778.94539 L 630.96900,774.92540 L 626.87389,763.53862 C 628.26919,761.97256 629.24720,760.74758 630.14860,758.90084 L 642.56808,759.32771 L 644.48319,752.71914 L 633.32592,747.64442 C 633.23875,745.75044 632.78995,743.43242 632.21747,741.57808 L 641.03765,733.08980 L 637.65145,726.86620 z M 621.25529,741.33180 C 625.03294,747.56327 623.03828,755.69955 616.80680,759.47721 C 610.57533,763.25489 602.45849,761.24841 598.68082,755.01695 C 594.90315,748.78549 596.89018,740.68038 603.12164,736.90273 C 609.35312,733.12508 617.47764,735.10034 621.25529,741.33180 z "
           style="fill:#b1c4ea;fill-opacity:1.0000000;fill-rule:nonzero;stroke:#001b7b;stroke-width:0.62500000;stroke-linecap:butt;stroke-linejoin:round;stroke-miterlimit:4.0000000;stroke-dashoffset:0.0000000;stroke-opacity:1.0000000" />
        <path
           sodipodi:nodetypes="cccccccccccccccccccccccccccccccccccccc"
           id="path1799"
           d="M 445.38407,619.75847 L 435.30806,627.18419 C 433.30273,626.05061 431.81138,625.23693 429.61585,624.75880 L 426.93657,613.08733 L 419.83244,613.27068 L 417.56485,624.80350 C 415.77037,625.32920 413.29054,626.61668 411.64637,627.59029 L 401.75813,621.00978 L 396.74677,626.37926 L 403.81222,636.66807 C 402.66310,638.60929 402.32012,639.89917 401.79346,642.02980 L 389.91895,644.39457 L 390.21793,651.64028 L 402.45251,653.92037 C 403.11986,656.46546 403.11559,657.29637 404.68123,659.52989 L 398.16840,669.26000 L 403.02721,674.77642 L 413.03176,667.71514 C 414.78456,668.58455 416.97832,669.49553 418.85761,669.88631 L 421.12003,681.50784 L 428.35948,681.63885 L 430.45856,669.56509 C 432.56121,668.92044 434.48277,668.17376 436.36079,666.90913 L 446.42293,673.31048 L 451.05261,667.94778 L 444.21513,657.96392 C 445.16981,656.09630 445.80684,654.66407 446.21275,652.64957 L 458.33761,649.92681 L 458.52207,643.04882 L 446.44498,640.95562 C 445.88243,639.14502 444.86289,637.01542 443.84076,635.36571 L 450.23194,624.92545 L 445.38407,619.75847 z M 433.17158,637.89525 C 438.40021,642.97099 438.52451,651.34729 433.44876,656.57593 C 428.37301,661.80460 420.01255,661.91256 414.78389,656.83683 C 409.55524,651.76110 409.43143,643.41689 414.50717,638.18825 C 419.58292,632.95962 427.94294,632.81951 433.17158,637.89525 z "
           style="fill:#417ade;fill-opacity:1.0000000;fill-rule:nonzero;stroke:#001b7b;stroke-width:0.62500000;stroke-linecap:butt;stroke-linejoin:round;stroke-miterlimit:4.0000000;stroke-dashoffset:0.0000000;stroke-opacity:1.0000000" />
      </g>
    </g>
    <g
       transform="matrix(2.422044,0.000000,0.000000,2.371609,-16.64750,-1054.178)"
       id="g3691">
      <path
         sodipodi:nodetypes="cczzcczcccccccccczc"
         id="path3693"
         d="M 485.75351,559.01923 L 507.45066,595.87826 C 507.45066,595.87826 494.38009,606.07332 488.89044,622.01942 C 483.40080,637.96552 484.23498,651.61633 487.50682,663.21416 C 490.81274,674.93282 502.35699,689.93613 507.11269,692.75367 C 501.51701,703.88927 486.01492,729.72097 486.01492,729.72097 C 479.91500,726.20890 470.12182,717.33451 461.96505,706.08565 C 453.54257,694.47036 448.27922,681.35984 447.49499,677.43866 C 449.79628,675.72363 452.17638,674.35361 456.59026,667.48917 L 451.00819,659.45269 L 452.58980,654.81343 L 462.43374,653.82577 C 463.35797,647.81828 463.18625,645.54645 462.09575,639.27258 C 461.74464,638.91377 452.15011,637.94038 452.15011,637.94038 L 450.34537,633.90980 L 456.47541,626.20200 C 452.59365,620.10209 445.75754,616.00695 445.75754,616.00695 C 445.75754,616.00695 449.62570,602.36657 457.78247,589.52781 C 465.88566,576.77340 473.69141,568.31407 485.75351,559.01923 z "
         style="fill:#b1c4ea;fill-opacity:1.0000000;fill-rule:evenodd;stroke:#001b7b;stroke-width:0.62500000;stroke-linecap:butt;stroke-linejoin:miter;stroke-miterlimit:4.0000000;stroke-opacity:0.91071427" />
      <path
         sodipodi:nodetypes="cczzcczcccccccccczc"
         id="path3695"
         d="M 651.47344,634.82548 L 608.70349,635.12134 C 608.70349,635.12134 606.43451,618.70089 595.38893,605.95689 C 584.34334,593.21287 572.11358,587.09133 560.43815,584.10818 C 548.64108,581.09396 529.87194,583.56143 525.04993,586.26390 C 518.21986,575.83972 503.63998,549.47649 503.63998,549.47649 C 509.73683,545.95910 522.32499,541.93425 536.14735,540.51569 C 550.41997,539.05091 564.40265,541.06920 568.18866,542.35637 C 568.51894,545.20737 567.97137,548.83524 571.69819,556.09566 L 581.81014,554.38196 L 584.47883,558.00166 L 580.83296,567.40518 C 585.56770,571.21653 587.19788,572.46133 593.17313,574.66294 C 593.65962,574.53901 600.03151,566.18532 600.03151,566.18532 L 604.42377,566.64433 L 607.97633,575.73793 C 615.20036,575.43714 622.21444,571.64958 622.21444,571.64958 C 622.21444,571.64958 632.07784,581.83468 639.09767,595.32871 C 646.07139,608.73409 649.47783,619.72892 651.47344,634.82548 z "
         style="fill:#417ade;fill-opacity:1.0000000;fill-rule:evenodd;stroke:#001b7b;stroke-width:0.62500000;stroke-linecap:butt;stroke-linejoin:miter;stroke-miterlimit:4.0000000;stroke-opacity:1.0000000" />
      <path
         sodipodi:nodetypes="cczzcczcccccccccczc"
         id="path3697"
         d="M 503.12627,739.16041 L 524.19993,701.94140 C 524.19993,701.94140 539.56416,708.16389 556.11883,704.94563 C 572.67350,701.72737 584.07863,694.17997 592.48704,685.54787 C 600.98306,676.82584 608.20484,659.32685 608.26726,653.79954 C 620.70882,653.07820 650.83076,653.58867 650.83076,653.58867 C 650.83891,660.62739 648.04958,673.54562 642.38569,686.23380 C 636.53730,699.33531 627.81452,710.44843 624.81070,713.08807 C 622.17484,711.95251 619.79836,710.57622 611.64666,710.18559 L 607.47758,719.03789 L 602.66903,719.98763 L 596.89202,711.95615 C 591.22718,714.15928 589.34553,715.44383 584.45730,719.52499 C 584.32209,720.00845 588.27605,728.80440 588.27605,728.80440 L 585.68770,732.38254 L 575.94760,730.92731 C 572.60556,737.33885 572.47682,745.30665 572.47682,745.30665 C 572.47682,745.30665 558.72970,748.77640 543.53266,748.13124 C 528.43545,747.49032 517.20666,744.95959 503.12627,739.16041 z "
         style="fill:#3c5cb2;fill-opacity:1.0000000;fill-rule:evenodd;stroke:#001b7b;stroke-width:0.62500000;stroke-linecap:butt;stroke-linejoin:miter;stroke-miterlimit:4.0000000;stroke-opacity:1.0000000" />
      <path
         sodipodi:nodetypes="cccccccccccccccccccccccccccccccccccccc"
         id="path3699"
         d="M 617.33959,505.31537 L 609.75473,515.27214 C 607.51174,514.74741 605.85189,514.38532 603.61044,514.54307 L 597.76097,504.09389 L 590.99430,506.26513 L 592.05707,517.97060 C 590.48246,518.97914 588.46405,520.91127 587.15950,522.30747 L 575.82107,518.76904 L 572.51950,525.32987 L 582.19026,533.22015 C 581.63260,535.40600 581.66569,536.74028 581.75864,538.93307 L 571.02626,544.53770 L 573.34822,551.40780 L 585.73072,550.15993 C 587.08604,552.41514 587.31531,553.21381 589.44522,554.91771 L 585.92732,566.08536 L 592.13990,570.01511 L 599.75855,560.42818 C 601.68497,560.77030 604.04628,561.02849 605.95969,560.87572 L 611.39504,571.39405 L 618.37990,569.48653 L 617.00347,557.30920 C 618.84043,556.09995 620.47494,554.84363 621.92218,553.10245 L 633.37719,556.42009 L 636.31436,549.97297 L 626.94804,542.31133 C 627.33975,540.25075 627.54888,538.69726 627.37267,536.64984 L 638.24478,530.63130 L 636.49007,523.97835 L 624.31121,525.36135 C 623.26277,523.78162 621.68616,522.02410 620.24183,520.72786 L 623.44353,508.91280 L 617.33959,505.31537 z M 610.71253,526.15211 C 617.15628,529.55505 619.62813,537.55929 616.22519,544.00305 C 612.82227,550.44682 604.82864,552.89854 598.38488,549.49562 C 591.94112,546.09271 589.47875,538.11914 592.88168,531.67538 C 596.28462,525.23164 604.26879,522.74918 610.71253,526.15211 z "
         style="fill:#3c5cb2;fill-opacity:1.0000000;fill-rule:nonzero;stroke:#001b7b;stroke-width:0.62500000;stroke-linecap:butt;stroke-linejoin:round;stroke-miterlimit:4.0000000;stroke-dashoffset:0.0000000;stroke-opacity:1.0000000" />
      <path
         sodipodi:nodetypes="cccccccccccccccccccccccccccccccccccccc"
         id="path3701"
         d="M 637.65145,726.86620 L 626.02699,731.50723 C 624.37285,729.90405 623.13527,728.74018 621.13160,727.72319 L 621.48606,715.75339 L 614.56582,714.13709 L 609.45978,724.72369 C 607.59070,724.77926 604.86615,725.39889 603.02942,725.92582 L 595.12307,717.06184 L 588.91835,720.99203 L 593.15705,732.73143 C 591.55502,734.31962 590.89747,735.48110 589.84991,737.40972 L 577.76307,736.69967 L 576.22288,743.78610 L 587.48535,749.08143 C 587.48848,751.71256 587.27455,752.51547 588.22551,755.07193 L 579.46694,762.84235 L 582.77548,769.40685 L 594.23879,765.10041 C 595.71528,766.38421 597.60794,767.81958 599.32768,768.67220 L 598.58246,780.48842 L 605.55428,782.44308 L 610.63385,771.29051 C 612.83114,771.19765 614.87898,770.96033 617.01545,770.21086 L 625.13530,778.94539 L 630.96900,774.92540 L 626.87389,763.53862 C 628.26919,761.97256 629.24720,760.74758 630.14860,758.90084 L 642.56808,759.32771 L 644.48319,752.71914 L 633.32592,747.64442 C 633.23875,745.75044 632.78995,743.43242 632.21747,741.57808 L 641.03765,733.08980 L 637.65145,726.86620 z M 621.25529,741.33180 C 625.03294,747.56327 623.03828,755.69955 616.80680,759.47721 C 610.57533,763.25489 602.45849,761.24841 598.68082,755.01695 C 594.90315,748.78549 596.89018,740.68038 603.12164,736.90273 C 609.35312,733.12508 617.47764,735.10034 621.25529,741.33180 z "
         style="fill:#b1c4ea;fill-opacity:1.0000000;fill-rule:nonzero;stroke:#001b7b;stroke-width:0.62500000;stroke-linecap:butt;stroke-linejoin:round;stroke-miterlimit:4.0000000;stroke-dashoffset:0.0000000;stroke-opacity:1.0000000" />
      <path
         sodipodi:nodetypes="cccccccccccccccccccccccccccccccccccccc"
         id="path3703"
         d="M 445.38407,619.75847 L 435.30806,627.18419 C 433.30273,626.05061 431.81138,625.23693 429.61585,624.75880 L 426.93657,613.08733 L 419.83244,613.27068 L 417.56485,624.80350 C 415.77037,625.32920 413.29054,626.61668 411.64637,627.59029 L 401.75813,621.00978 L 396.74677,626.37926 L 403.81222,636.66807 C 402.66310,638.60929 402.32012,639.89917 401.79346,642.02980 L 389.91895,644.39457 L 390.21793,651.64028 L 402.45251,653.92037 C 403.11986,656.46546 403.11559,657.29637 404.68123,659.52989 L 398.16840,669.26000 L 403.02721,674.77642 L 413.03176,667.71514 C 414.78456,668.58455 416.97832,669.49553 418.85761,669.88631 L 421.12003,681.50784 L 428.35948,681.63885 L 430.45856,669.56509 C 432.56121,668.92044 434.48277,668.17376 436.36079,666.90913 L 446.42293,673.31048 L 451.05261,667.94778 L 444.21513,657.96392 C 445.16981,656.09630 445.80684,654.66407 446.21275,652.64957 L 458.33761,649.92681 L 458.52207,643.04882 L 446.44498,640.95562 C 445.88243,639.14502 444.86289,637.01542 443.84076,635.36571 L 450.23194,624.92545 L 445.38407,619.75847 z M 433.17158,637.89525 C 438.40021,642.97099 438.52451,651.34729 433.44876,656.57593 C 428.37301,661.80460 420.01255,661.91256 414.78389,656.83683 C 409.55524,651.76110 409.43143,643.41689 414.50717,638.18825 C 419.58292,632.95962 427.94294,632.81951 433.17158,637.89525 z "
         style="fill:#417ade;fill-opacity:1.0000000;fill-rule:nonzero;stroke:#001b7b;stroke-width:0.62500000;stroke-linecap:butt;stroke-linejoin:round;stroke-miterlimit:4.0000000;stroke-dashoffset:0.0000000;stroke-opacity:1.0000000" />
    </g>
    <text
       sodipodi:linespacing="100%"
       id="text3720"
       y="116.97437"
       x="962.3501"
       style="font-size:27.000000;font-style:normal;font-variant:normal;font-weight:normal;font-stretch:normal;fill:#000000;fill-opacity:1.0000000;stroke:none;stroke-width:1.0000000px;stroke-linecap:butt;stroke-linejoin:miter;stroke-opacity:1.0000000;font-family:Sans;text-anchor:start;writing-mode:lr-tb"
       xml:space="preserve"><tspan
         y="116.97437"
         x="962.35010"
         id="tspan3722"
         sodipodi:role="line">Linux for Humanity</tspan></text>
    <text
       sodipodi:linespacing="100%"
       id="text3724"
       y="788.01392"
       x="893"
       style="font-size:27.000000;font-style:normal;font-variant:normal;font-weight:normal;font-stretch:normal;fill:#b1c4ea;fill-opacity:1.0000000;stroke:none;stroke-width:1.0000000px;stroke-linecap:butt;stroke-linejoin:miter;stroke-opacity:1.0000000;font-family:Sans;text-anchor:start;writing-mode:lr-tb"
       xml:space="preserve"><tspan
         y="788.01392"
         x="893.00000"
         id="tspan3726"
         sodipodi:role="line">The Breezy Badger Edition</tspan></text>
    <text
       sodipodi:linespacing="100%"
       id="text3728"
       y="208.21558"
       x="960.875"
       style="font-size:64.000000;font-style:normal;font-variant:normal;font-weight:bold;font-stretch:normal;fill:#b1c4ea;fill-opacity:1.0000000;stroke:none;stroke-width:1.0000000px;stroke-linecap:butt;stroke-linejoin:miter;stroke-opacity:1.0000000;font-family:Sans;text-anchor:start;writing-mode:lr-tb"
       xml:space="preserve"><tspan
         y="208.21558"
         x="960.87500"
         id="tspan3730"
         sodipodi:role="line">User Guide</tspan></text>
    <rect
       y="698.00269"
       x="498.99225"
       height="150.00000"
       width="208.50774"
       id="rect5270"
       style="fill:#b1c4ea;fill-opacity:1.0000000;stroke:#0b0803;stroke-width:7.0000000;stroke-linecap:round;stroke-linejoin:round;stroke-miterlimit:4.0000000;stroke-opacity:1.0000000" />
    <text
       sodipodi:linespacing="100%"
       id="text7546"
       y="731.63055"
       x="520.76666"
       style="font-size:12.000000;font-style:normal;font-variant:normal;font-weight:normal;font-stretch:normal;fill:#000000;fill-opacity:1.0000000;stroke:none;stroke-width:1.0000000px;stroke-linecap:butt;stroke-linejoin:miter;stroke-opacity:1.0000000;font-family:Sans;text-anchor:start;writing-mode:lr-tb"
       xml:space="preserve"><tspan
         y="731.63055"
         x="520.76666"
         id="tspan7548"
         sodipodi:role="line">ISBN</tspan></text>
    <text
       sodipodi:linespacing="100%"
       id="text7550"
       y="799.40894"
       x="543.82812"
       style="font-size:12.000000;font-style:normal;font-variant:normal;font-weight:normal;font-stretch:normal;fill:#000000;fill-opacity:1.0000000;stroke:none;stroke-width:1.0000000px;stroke-linecap:butt;stroke-linejoin:miter;stroke-opacity:1.0000000;font-family:Sans;text-anchor:start;writing-mode:lr-tb"
       xml:space="preserve"><tspan
         y="799.40894"
         x="543.82812"
         id="tspan7552"
         sodipodi:role="line">BAR CODE HERE</tspan></text>
    <path
       sodipodi:nodetypes="cccccccccccccccccccccccccccccccccccccc"
       id="path7574"
       d="M 422.08793,234.16088 L 397.68339,251.77178 C 392.82639,249.08337 389.21428,247.15364 383.89661,246.01970 L 377.40727,218.33954 L 360.20076,218.77437 L 354.70855,246.12571 C 350.36224,247.37247 344.35599,250.42587 340.37373,252.73489 L 316.42398,237.12849 L 304.28625,249.86280 L 321.39908,274.26383 C 318.61586,278.86765 317.78515,281.92674 316.50955,286.97976 L 287.74897,292.58807 L 288.47311,309.77206 L 318.10580,315.17954 C 319.72215,321.21550 319.71181,323.18610 323.50386,328.48313 L 307.72950,351.55915 L 319.49775,364.64194 L 343.72921,347.89535 C 347.97457,349.95725 353.28795,352.11773 357.83967,353.04451 L 363.31936,380.60624 L 380.85362,380.91694 L 385.93769,352.28270 C 391.03040,350.75385 395.68450,348.98301 400.23315,345.98380 L 424.60409,361.16530 L 435.81738,348.44708 L 419.25670,324.76926 C 421.56898,320.34000 423.11190,316.94331 424.09503,312.16570 L 453.46197,305.70838 L 453.90874,289.39648 L 424.65750,284.43223 C 423.29498,280.13819 420.82561,275.08761 418.34996,271.17515 L 433.82968,246.41493 L 422.08793,234.16088 z M 392.50874,277.17423 C 405.17271,289.21190 405.47377,309.07721 393.18008,321.47749 C 380.88639,333.87786 360.63699,334.13389 347.97295,322.09625 C 335.30892,310.05860 335.00905,290.26940 347.30272,277.86911 C 359.59641,265.46884 379.84474,265.13656 392.50874,277.17423 z "
       style="fill:#417ade;fill-opacity:1.0000000;fill-rule:nonzero;stroke:#001b7b;stroke-width:1.4979336;stroke-linecap:butt;stroke-linejoin:round;stroke-miterlimit:4.0000000;stroke-dashoffset:0.0000000;stroke-opacity:1.0000000;opacity:0.20930233" />
    <path
       sodipodi:nodetypes="cccccccccccccccccccccccccccccccccccccc"
       id="path7576"
       d="M 541.96004,172.72945 L 523.58918,196.34301 C 518.15655,195.09856 514.13633,194.23982 508.70743,194.61394 L 494.53976,169.83257 L 478.15059,174.98191 L 480.72466,202.74270 C 476.91089,205.13457 472.02221,209.71682 468.86253,213.02806 L 441.40036,204.63629 L 433.40381,220.19601 L 456.82682,238.90867 C 455.47614,244.09265 455.55628,247.25705 455.78141,252.45749 L 429.78712,265.74948 L 435.41101,282.04267 L 465.40197,279.08321 C 468.68461,284.43168 469.23991,286.32582 474.39865,290.36680 L 465.87814,316.85210 L 480.92528,326.17194 L 499.37799,303.43548 C 504.04386,304.24686 509.76306,304.85918 514.39742,304.49687 L 527.56208,329.44224 L 544.47972,324.91835 L 541.14594,296.03848 C 545.59514,293.17061 549.55400,290.19111 553.05927,286.06171 L 580.80381,293.92986 L 587.91777,278.63981 L 565.23213,260.46940 C 566.18087,255.58251 566.68739,251.89824 566.26060,247.04256 L 592.59333,232.76893 L 588.34335,216.99074 L 558.84561,220.27067 C 556.30624,216.52417 552.48762,212.35602 548.98939,209.28185 L 556.74405,181.26114 L 541.96004,172.72945 z M 525.90901,222.14605 C 541.51606,230.21649 547.50298,249.19942 539.26091,264.48150 C 531.01889,279.76360 511.65797,285.57812 496.05090,277.50772 C 480.44383,269.43735 474.47986,250.52716 482.72191,235.24508 C 490.96398,219.96305 510.30199,214.07563 525.90901,222.14605 z "
       style="fill:#3c5cb2;fill-opacity:1.0000000;fill-rule:nonzero;stroke:#001b7b;stroke-width:1.4979336;stroke-linecap:butt;stroke-linejoin:round;stroke-miterlimit:4.0000000;stroke-dashoffset:0.0000000;stroke-opacity:1.0000000;opacity:0.20930233" />
    <path
       sodipodi:nodetypes="cccccccccccccccccccccccccccccccccccccc"
       id="path7578"
       d="M 695.70426,114.52801 L 667.54930,125.53472 C 663.54291,121.73260 660.54543,118.97236 655.69245,116.56046 L 656.55097,88.172773 L 639.78985,84.339543 L 627.42279,109.44682 C 622.89580,109.57861 616.29682,111.04813 611.84818,112.29780 L 592.69865,91.275903 L 577.67056,100.59678 L 587.93687,128.43804 C 584.05669,132.20461 582.46407,134.95919 579.92684,139.53312 L 550.65198,137.84916 L 546.92157,154.65540 L 574.19977,167.21385 C 574.20735,173.45386 573.68920,175.35805 575.99247,181.42097 L 554.77883,199.84937 L 562.79225,215.41780 L 590.55690,205.20461 C 594.13301,208.24928 598.71712,211.65342 602.88240,213.67550 L 601.07745,241.69895 L 617.96350,246.33464 L 630.26644,219.88511 C 635.58838,219.66488 640.54833,219.10205 645.72296,217.32460 L 665.38959,238.03949 L 679.51907,228.50564 L 669.60053,201.50065 C 672.98001,197.78657 675.34880,194.88140 677.53203,190.50165 L 707.61255,191.51402 L 712.25103,175.84108 L 685.22763,163.80583 C 685.01651,159.31405 683.92949,153.81661 682.54292,149.41884 L 703.90578,129.28796 L 695.70426,114.52801 z M 655.99204,148.83476 C 665.14167,163.61337 660.31052,182.90944 645.21760,191.86858 C 630.12470,200.82776 610.46536,196.06917 601.31568,181.29058 C 592.16600,166.51200 596.97867,147.28985 612.07154,138.33074 C 627.16446,129.37163 646.84240,134.05617 655.99204,148.83476 z "
       style="fill:#b1c4ea;fill-opacity:1.0000000;fill-rule:nonzero;stroke:#001b7b;stroke-width:1.4979336;stroke-linecap:butt;stroke-linejoin:round;stroke-miterlimit:4.0000000;stroke-dashoffset:0.0000000;stroke-opacity:1.0000000;opacity:0.20930233" />
    <path
       sodipodi:nodetypes="cccccccccccccccccccccccccccccccccccccc"
       id="path7580"
       d="M 669.08793,-38.914448 L 644.68339,-21.303548 C 639.82639,-23.991958 636.21428,-25.921688 630.89661,-27.055628 L 624.40727,-54.735788 L 607.20076,-54.300958 L 601.70855,-26.949618 C 597.36224,-25.702858 591.35599,-22.649458 587.37373,-20.340438 L 563.42398,-35.946838 L 551.28625,-23.212528 L 568.39908,1.1885020 C 565.61586,5.7923220 564.78515,8.8514120 563.50955,13.904432 L 534.74897,19.512742 L 535.47311,36.696732 L 565.10580,42.104212 C 566.72215,48.140172 566.71181,50.110772 570.50386,55.407803 L 554.72950,78.483823 L 566.49775,91.566613 L 590.72921,74.820023 C 594.97457,76.881923 600.28795,79.042403 604.83967,79.969183 L 610.31936,107.53091 L 627.85362,107.84161 L 632.93769,79.207373 C 638.03040,77.678523 642.68450,75.907683 647.23315,72.908473 L 671.60409,88.089973 L 682.81738,75.371753 L 666.25670,51.693933 C 668.56898,47.264672 670.11190,43.867982 671.09503,39.090372 L 700.46197,32.633052 L 700.90874,16.321152 L 671.65750,11.356902 C 670.29498,7.0628620 667.82561,2.0122820 665.34996,-1.9001781 L 680.82968,-26.660398 L 669.08793,-38.914448 z M 639.50874,4.0989020 C 652.17271,16.136572 652.47377,36.001882 640.18008,48.402162 C 627.88639,60.802533 607.63699,61.058563 594.97295,49.020922 C 582.30892,36.983272 582.00905,17.194072 594.30272,4.7937820 C 606.59641,-7.6064880 626.84474,-7.9387680 639.50874,4.0989020 z "
       style="fill:#417ade;fill-opacity:1.0000000;fill-rule:nonzero;stroke:#001b7b;stroke-width:1.4979336;stroke-linecap:butt;stroke-linejoin:round;stroke-miterlimit:4.0000000;stroke-dashoffset:0.0000000;stroke-opacity:1.0000000;opacity:0.20930233" />
    <path
       sodipodi:nodetypes="cccccccccccccccccccccccccccccccccccccc"
       id="path7582"
       d="M 64.430223,274.59338 L 40.025683,292.20428 C 35.168683,289.51587 31.556573,287.58614 26.238903,286.45220 L 19.749563,258.77204 L 2.5430532,259.20687 L -2.9491568,286.55821 C -7.2954668,287.80497 -13.301717,290.85837 -17.283977,293.16739 L -41.233727,277.56099 L -53.371457,290.29530 L -36.258627,314.69633 C -39.041847,319.30015 -39.872557,322.35924 -41.148157,327.41226 L -69.908737,333.02057 L -69.184597,350.20456 L -39.551907,355.61204 C -37.935557,361.64800 -37.945897,363.61860 -34.153847,368.91563 L -49.928207,391.99165 L -38.159957,405.07444 L -13.928497,388.32785 C -9.6831368,390.38975 -4.3697568,392.55023 0.18196319,393.47701 L 5.6616532,421.03873 L 23.195913,421.34943 L 28.279983,392.71520 C 33.372693,391.18635 38.026793,389.41551 42.575443,386.41630 L 66.946383,401.59780 L 78.159673,388.87958 L 61.598993,365.20176 C 63.911273,360.77250 65.454193,357.37581 66.437323,352.59820 L 95.804263,346.14088 L 96.251033,329.82898 L 66.999793,324.86473 C 65.637273,320.57069 63.167903,315.52011 60.692253,311.60765 L 76.171973,286.84743 L 64.430223,274.59338 z M 34.851033,317.60673 C 47.515003,329.64440 47.816063,349.50971 35.522373,361.90999 C 23.228683,374.31036 2.9792832,374.56639 -9.6847568,362.52875 C -22.348787,350.49110 -22.648657,330.70190 -10.354987,318.30161 C 1.9387032,305.90134 22.187033,305.56906 34.851033,317.60673 z "
       style="fill:#417ade;fill-opacity:1.0000000;fill-rule:nonzero;stroke:#001b7b;stroke-width:1.4979336;stroke-linecap:butt;stroke-linejoin:round;stroke-miterlimit:4.0000000;stroke-dashoffset:0.0000000;stroke-opacity:1.0000000;opacity:0.20930233" />
    <text
       sodipodi:linespacing="100%"
       id="text8342"
       y="809.01392"
       x="14"
       style="font-size:27.000000;font-style:normal;font-variant:normal;font-weight:normal;font-stretch:normal;fill:#b1c4ea;fill-opacity:1.0000000;stroke:none;stroke-width:1.0000000px;stroke-linecap:butt;stroke-linejoin:miter;stroke-opacity:1.0000000;font-family:Sans;text-anchor:start;writing-mode:lr-tb"
       xml:space="preserve"><tspan
         y="809.01392"
         x="14.000000"
         id="tspan8344"
         sodipodi:role="line">www.kubuntu.org</tspan></text>
    <text
       sodipodi:linespacing="100%"
       id="text8350"
       y="125.17651"
       x="64.515625"
       style="font-size:12.000000;font-style:normal;font-variant:normal;font-weight:normal;font-stretch:normal;fill:#fff4f4;fill-opacity:1.0000000;stroke:none;stroke-width:1.0000000px;stroke-linecap:butt;stroke-linejoin:miter;stroke-opacity:1.0000000;font-family:Sans;text-anchor:start;writing-mode:lr-tb"
       xml:space="preserve"><tspan
         id="tspan9136"
         sodipodi:role="line"
         y="125.17651"
         x="64.515625">This is a description of the book. This is a description of the book. This is a description of the book. </tspan><tspan
         id="tspan9138"
         sodipodi:role="line"
         y="137.17651"
         x="64.515625">This is a description of the book. This is a description of the book. This is a description of the book. </tspan><tspan
         id="tspan9140"
         sodipodi:role="line"
         y="149.17651"
         x="64.515625">This is a description of the book. This is a description of the book. This is a description of the book. </tspan><tspan
         id="tspan9142"
         sodipodi:role="line"
         y="161.17651"
         x="64.515625">This is a description of the book. This is a description of the book. This is a description of the book. </tspan><tspan
         id="tspan9144"
         sodipodi:role="line"
         y="173.17651"
         x="64.515625">This is a description of the book. This is a description of the book. This is a description of the book. </tspan><tspan
         id="tspan9146"
         sodipodi:role="line"
         y="185.17651"
         x="64.515625">This is a description of the book. This is a description of the book. This is a description of the book. </tspan><tspan
         id="tspan9148"
         sodipodi:role="line"
         y="197.17651"
         x="64.515625">This is a description of the book. This is a description of the book. This is a description of the book. </tspan><tspan
         id="tspan9150"
         sodipodi:role="line"
         y="209.17651"
         x="64.515625">This is a description of the book. This is a description of the book. This is a description of the book. </tspan><tspan
         id="tspan9152"
         sodipodi:role="line"
         y="221.17651"
         x="64.515625">This is a description of the book. This is a description of the book. This is a description of the book. </tspan><tspan
         id="tspan9154"
         sodipodi:role="line"
         y="233.17651"
         x="64.515625">This is a description of the book. This is a description of the book. This is a description of the book. </tspan><tspan
         id="tspan9156"
         sodipodi:role="line"
         y="245.17651"
         x="64.515625"></tspan><tspan
         id="tspan9158"
         sodipodi:role="line"
         y="257.17651"
         x="64.515625">This is a description of the book. This is a description of the book. This is a description of the book. </tspan><tspan
         id="tspan9160"
         sodipodi:role="line"
         y="269.17651"
         x="64.515625">This is a description of the book. This is a description of the book. This is a description of the book. </tspan><tspan
         id="tspan9162"
         sodipodi:role="line"
         y="281.17651"
         x="64.515625">This is a description of the book. This is a description of the book. This is a description of the book. </tspan><tspan
         id="tspan9164"
         sodipodi:role="line"
         y="293.17651"
         x="64.515625">This is a description of the book. This is a description of the book. This is a description of the book. </tspan><tspan
         id="tspan9166"
         sodipodi:role="line"
         y="305.17651"
         x="64.515625">This is a description of the book. This is a description of the book. This is a description of the book. </tspan><tspan
         id="tspan9168"
         sodipodi:role="line"
         y="317.17651"
         x="64.515625">This is a description of the book. This is a description of the book. This is a description of the book. </tspan><tspan
         id="tspan9170"
         sodipodi:role="line"
         y="329.17651"
         x="64.515625"></tspan><tspan
         id="tspan9172"
         sodipodi:role="line"
         y="341.17651"
         x="64.515625">This is a description of the book. This is a description of the book. This is a description of the book. </tspan><tspan
         id="tspan9174"
         sodipodi:role="line"
         y="353.17651"
         x="64.515625">This is a description of the book. This is a description of the book. This is a description of the book. </tspan><tspan
         id="tspan9176"
         sodipodi:role="line"
         y="365.17651"
         x="64.515625">This is a description of the book. This is a description of the book. This is a description of the book. </tspan><tspan
         id="tspan9178"
         sodipodi:role="line"
         y="377.17651"
         x="64.515625"></tspan><tspan
         id="tspan9180"
         sodipodi:role="line"
         y="389.17651"
         x="64.515625">This is a description of the book. This is a description of the book. This is a description of the book. </tspan><tspan
         id="tspan9182"
         sodipodi:role="line"
         y="401.17651"
         x="64.515625">This is a description of the book. This is a description of the book. This is a description of the book. </tspan><tspan
         id="tspan9184"
         sodipodi:role="line"
         y="413.17651"
         x="64.515625">This is a description of the book. This is a description of the book. This is a description of the book. </tspan><tspan
         id="tspan9186"
         sodipodi:role="line"
         y="425.17651"
         x="64.515625">This is a description of the book. This is a description of the book. This is a description of the book. </tspan></text>
    <g
       transform="matrix(0.000000,0.596459,-0.622911,0.000000,1045.055,19.00008)"
       id="g9188">
      <g
         transform="matrix(1.061710,0.000000,0.000000,1.061710,-14.07829,101.9516)"
         id="g9190">
        <path
           d="M 518.58244,264.98260 C 518.58244,262.16606 519.16227,260.09451 520.48823,258.68595 C 521.72992,257.36055 523.38737,256.61498 525.45836,256.61498 C 527.61249,256.61498 529.26994,257.36056 530.59479,258.68595 C 531.83760,260.09451 532.50058,262.16605 532.50058,264.98260 L 532.50058,283.12641 C 532.50058,288.26341 532.83208,291.82553 533.57821,293.81335 C 534.24007,295.80231 535.40084,297.37660 536.97402,298.45311 C 538.54832,299.61276 540.45411,300.19260 542.77343,300.19260 C 545.09387,300.19260 546.99966,299.61276 548.57284,298.53627 C 550.14714,297.45865 551.38995,295.80231 552.13609,293.73133 C 552.71593,292.07388 553.04741,288.76009 553.04741,283.54050 L 553.04741,264.90002 C 553.04741,262.08291 553.62724,260.09452 554.87005,258.68597 C 556.11286,257.27797 557.76919,256.61499 559.84017,256.61499 C 561.99430,256.61499 563.65176,257.27797 564.89457,258.68597 C 566.21941,260.09452 566.88239,262.16606 566.88239,264.90002 L 566.88239,279.89522 C 566.88239,289.50622 566.13738,296.05064 564.56307,299.61276 C 562.74044,303.92103 560.00648,307.23481 556.36120,309.55526 C 552.79795,311.87458 548.24135,312.95220 542.69140,312.95220 C 536.64365,312.95220 531.75556,311.62624 528.02713,308.97544 C 524.29870,306.24147 521.72992,302.51305 520.15675,297.70811 C 519.07913,294.31117 518.58245,288.26342 518.58245,279.48115 L 518.58245,264.98260"
           style="fill:#122a3d;fill-rule:evenodd"
           id="path9192" />
        <path
           d="M 411.54226,304.66715 C 411.54226,307.48426 412.12209,309.55525 413.36489,310.88008 C 414.69085,312.28920 416.34719,312.95218 418.41929,312.95218 C 420.49026,312.95218 422.22975,312.28920 423.47256,310.88008 C 424.79852,309.47209 425.46151,307.40111 425.46151,304.66715 L 425.46151,286.52279 C 425.46151,281.38636 425.79188,277.82424 426.53802,275.75270 C 427.20100,273.76432 428.36066,272.19058 429.85181,271.11351 C 431.50926,270.03644 433.41393,269.45662 435.73436,269.45662 C 437.97053,269.45662 439.95948,269.95329 441.53378,271.03036 C 443.10807,272.19058 444.35089,273.76433 445.09590,275.91846 C 445.67573,277.49275 445.92407,280.88970 445.92407,286.02613 L 445.92407,304.74920 C 445.92407,307.48428 446.58705,309.55526 447.82986,310.88010 C 449.07267,312.28922 450.73013,312.95220 452.80110,312.95220 C 454.87207,312.95220 456.61156,312.28922 457.85437,310.88010 C 459.18034,309.55526 459.76017,307.48429 459.76017,304.74920 L 459.76017,289.67140 C 459.76017,280.14411 459.01403,273.51598 457.52288,270.03645 C 455.70024,265.72819 452.96628,262.41441 449.32100,260.09452 C 445.75888,257.77465 441.11912,256.61498 435.56805,256.61498 C 429.60346,256.61498 424.71536,257.94039 420.98692,260.67434 C 417.25850,263.32571 414.60768,267.13673 413.11654,271.94167 C 412.04003,275.25602 411.54224,281.30377 411.54224,290.08603 L 411.54224,304.66715"
           style="fill:#122a3d;fill-rule:evenodd"
           id="path9194" />
        <path
           d="M 348.41172,264.98260 C 348.41172,262.16606 348.99267,260.09451 350.23436,258.68595 C 351.56032,257.36055 353.21777,256.61498 355.28876,256.61498 C 357.35974,256.61498 359.09922,257.36056 360.42519,258.68595 C 361.66800,260.09451 362.33098,262.16605 362.33098,264.98260 L 362.33098,283.12641 C 362.33098,288.26341 362.66248,291.82553 363.40749,293.81335 C 364.07047,295.80231 365.23012,297.37660 366.80443,298.45311 C 368.37873,299.61276 370.28452,300.19260 372.60384,300.19260 C 374.84113,300.19260 376.82896,299.61276 378.40326,298.53627 C 379.97755,297.45865 381.22037,295.80231 381.96538,293.73133 C 382.54521,292.07388 382.79466,288.76009 382.79466,283.54050 L 382.79466,264.90002 C 382.79466,262.08291 383.45653,260.09452 384.69933,258.68597 C 385.94214,257.27797 387.59960,256.61499 389.67057,256.61499 C 391.74154,256.61499 393.48216,257.27797 394.72384,258.68597 C 396.04980,260.09452 396.62964,262.16606 396.62964,264.90002 L 396.62964,279.89522 C 396.62964,289.50622 395.88463,296.05064 394.39347,299.61276 C 392.57084,303.92103 389.83575,307.23481 386.19047,309.55526 C 382.62835,311.87458 378.07175,312.95220 372.43864,312.95220 C 366.47293,312.95220 361.58483,311.62624 357.85752,308.97544 C 354.12909,306.24147 351.47716,302.51305 349.98601,297.70811 C 348.90950,294.31117 348.41171,288.26342 348.41171,279.48115 L 348.41171,264.98260"
           style="fill:#122a3d;fill-rule:evenodd"
           id="path9196" />
        <path
           d="M 223.56035,264.98260 C 223.56035,262.16606 224.22277,260.09451 225.46558,258.68595 C 226.70840,257.36055 228.36529,256.61498 230.43682,256.61498 C 232.59096,256.61498 234.24785,257.36056 235.57326,258.68595 C 236.81607,260.09451 237.47849,262.16605 237.47849,264.90001 L 237.47849,283.12640 C 237.47849,288.26340 237.89313,291.82552 238.55556,293.81334 C 239.30113,295.80229 240.37819,297.37659 241.95250,298.45310 C 243.52680,299.61275 245.43204,300.19259 247.75191,300.19259 C 250.07178,300.19259 251.97702,299.61275 253.55132,298.53626 C 255.20821,297.45863 256.36787,295.80229 257.11344,293.73132 C 257.69383,292.07387 258.02476,288.76008 258.02476,283.54049 L 258.02476,264.90002 C 258.02476,262.08291 258.60515,260.09452 259.84796,258.68597 C 261.17337,257.27797 262.83026,256.61499 264.81864,256.61499 C 266.97277,256.61499 268.62966,257.27797 269.95507,258.68597 C 271.19788,260.09452 271.86086,262.16606 271.86086,264.90002 L 271.86086,279.89522 C 271.86086,289.50622 271.11529,296.05064 269.54099,299.61276 C 267.71835,303.92103 264.98439,307.23481 261.42171,309.55526 C 257.77642,311.87458 253.21983,312.95220 247.66875,312.95220 C 241.62100,312.95220 236.73291,311.62624 233.00505,308.97544 C 229.27662,306.24147 226.70840,302.51305 225.21725,297.70811 C 224.14018,294.31117 223.56035,288.26342 223.56035,279.48115 L 223.56035,264.98260"
           style="fill:#122a3d;fill-rule:evenodd"
           id="path9198" />
        <path
           d="M 332.25743,269.95329 C 332.25743,269.87070 332.17427,269.78811 332.17427,269.70496 C 332.17427,269.78810 332.25743,269.87070 332.25743,269.95329 C 332.42261,270.20219 332.50577,270.53368 332.58780,270.78201 C 334.16210,274.75878 334.99139,279.56373 334.99139,284.78330 C 334.99139,289.91974 334.16211,294.64264 332.67096,298.53626 C 332.58780,298.86775 332.42262,299.28127 332.25743,299.61276 C 332.25743,299.69592 332.17427,299.77907 332.17427,299.86223 L 332.17427,269.70496 C 332.33945,270.03645 332.42261,270.45053 332.58780,270.78203 C 332.50577,270.53368 332.42262,270.20219 332.25743,269.95329 M 332.17427,269.70496 C 332.00797,269.37346 331.84278,269.04198 331.67647,268.71104 C 331.84279,269.04196 332.00797,269.37346 332.17427,269.70496 L 332.17427,299.86223 C 331.75963,300.69040 331.42813,301.43541 331.01462,302.18155 C 330.59997,302.92656 330.18533,303.50751 329.68866,304.16937 C 328.19751,306.32350 326.29171,308.14614 324.13758,309.55526 C 320.65861,311.70939 316.18404,312.86904 310.88243,312.95220 L 310.88243,301.68488 C 313.20175,301.60172 315.19069,301.02190 316.84702,299.86224 C 318.17298,298.95092 319.24949,297.79014 319.99563,296.21696 C 320.16081,296.13380 320.24396,295.96750 320.32712,295.80232 C 321.73512,292.73687 322.64644,289.00843 322.64644,284.86648 C 322.64644,280.88971 321.81827,277.24443 320.49231,274.26156 C 319.58100,272.27318 318.42134,270.78203 316.84703,269.70497 C 315.19070,268.54531 313.20175,267.96492 310.88244,267.88233 L 310.88244,256.61501 C 311.37912,256.61501 311.79376,256.61501 312.20729,256.61501 C 317.75836,256.61501 320.49232,257.77466 324.13759,260.01195 C 326.04339,261.25476 327.69972,262.74591 329.10884,264.56855 C 330.10331,265.81136 330.93147,267.21935 331.67649,268.71107 C 331.84279,269.04196 332.00797,269.37346 332.17427,269.70496 z M 310.88243,256.61498 L 310.88243,267.88231 C 310.71613,267.88231 310.55094,267.88231 310.38463,267.88231 C 307.90013,267.88231 305.74600,268.54529 304.00539,269.70494 C 302.34906,270.94776 301.10624,272.68781 300.36010,274.84137 C 299.78027,276.49827 299.44879,279.23279 299.28360,282.87808 C 299.20044,288.59489 299.61509,292.48851 300.36010,294.72467 C 301.10624,296.87880 302.34906,298.61942 304.00539,299.86222 C 305.74600,301.02187 307.90013,301.68485 310.38463,301.68485 C 310.55094,301.68485 310.71613,301.68485 310.88243,301.68485 L 310.88243,312.95218 C 310.71613,312.95218 310.55094,312.95218 310.38463,312.95218 C 304.33688,312.95218 299.53195,311.62622 295.80351,308.89226 C 292.07563,306.24145 289.50742,302.51301 288.01627,297.62493 C 287.10495,295.05616 286.60772,290.83104 286.44197,284.94848 L 286.44197,284.12032 C 286.44197,284.03773 286.44197,283.95515 286.44197,283.87199 L 286.44197,246.67305 C 286.44197,244.35373 286.52457,242.61369 286.60772,241.28828 C 286.77346,239.96232 287.10495,238.88525 287.60163,237.97394 C 288.18146,236.98002 289.01018,236.23445 290.00410,235.57147 C 291.08117,234.99164 292.24138,234.66015 293.48419,234.66015 C 295.30682,234.66015 296.88113,235.32313 298.37228,236.73169 C 299.36676,237.55986 299.94658,238.72007 300.19491,240.04547 C 300.44325,241.28828 300.52641,243.11092 300.52641,245.51339 L 300.52641,259.76301 C 303.17723,258.85171 305.91119,256.94648 310.88243,256.61498 z "
           style="fill:#122a3d;fill-rule:evenodd"
           id="path9200" />
        <path
           d="M 476.49542,256.69758 L 478.06972,256.69758 L 478.06972,248.16477 C 478.06972,245.92748 478.06972,244.10484 478.15288,242.86203 C 478.31806,241.53662 478.64955,240.45956 479.22939,239.46565 C 479.80922,238.55433 480.55535,237.72560 481.63185,237.14578 C 482.62633,236.56594 483.78598,236.23446 485.11194,236.23446 C 486.85143,236.23446 488.50889,236.89688 489.91688,238.22285 C 490.91136,239.13417 491.49118,240.29382 491.73951,241.53663 C 492.07101,242.86204 492.15416,244.68468 492.15416,247.08771 L 492.15416,256.69758 L 497.37262,256.69758 C 499.36157,256.69758 500.85271,257.19482 501.92922,258.18929 C 503.00684,259.10061 503.50351,260.26026 503.50351,261.75141 C 503.50351,263.65721 502.75850,264.98261 501.26735,265.81134 C 499.77620,266.55691 497.62207,266.88841 494.80496,266.88841 L 492.15416,266.88841 L 492.15416,292.90204 C 492.15416,295.13933 492.23619,296.87880 492.40249,298.03958 C 492.56767,299.19924 492.98233,300.19259 493.64531,300.93873 C 494.30829,301.68486 495.46794,302.01523 496.95909,302.01523 C 497.78726,302.01523 498.86489,301.93320 500.35604,301.60171 C 501.76403,301.35337 502.84166,301.18706 503.66982,301.18706 C 504.74633,301.18706 505.82395,301.60171 506.73527,302.59618 C 507.64659,303.50750 508.06011,304.58401 508.06011,305.90997 C 508.06011,308.22929 506.81730,309.96876 504.33280,311.12954 C 501.84717,312.37123 498.28392,312.95218 493.64530,312.95218 C 489.25388,312.95218 485.85694,312.20604 483.62078,310.71489 C 481.30035,309.30690 479.80920,307.23480 479.06418,304.58398 C 478.40120,301.93318 478.06971,298.45308 478.06971,294.06280 L 478.06971,266.88840 L 476.16391,266.88840 C 474.09294,266.88840 472.60179,266.39116 471.52416,265.47984 C 470.44765,264.48537 469.86783,263.24312 469.86783,261.75141 C 469.86783,260.26026 470.44766,259.10061 471.52416,258.18929 C 472.68384,257.19482 474.34129,256.69758 476.49542,256.69758"
           style="fill:#122a3d;fill-rule:evenodd"
           id="path9202" />
        <path
           d="M 160.34723,294.22800 L 160.34723,293.56502 C 160.18148,265.81134 160.18148,265.89393 160.09889,246.42473 C 160.09889,244.18800 160.18148,242.36537 160.26407,241.12255 C 160.34723,239.79659 160.67871,238.63693 161.25854,237.72561 C 161.83838,236.73170 162.58395,235.98556 163.66101,235.40574 C 164.65549,234.74332 165.81514,234.49442 167.05796,234.49442 C 168.88059,234.49442 170.53749,235.15740 171.94605,236.48281 C 172.93996,237.39413 173.51979,238.47120 173.76868,239.79659 C 174.01702,241.03941 174.18276,242.94520 174.18276,245.26507 C 174.18276,261.75143 174.18276,265.31411 174.18276,271.61076 C 181.80481,267.13676 189.50945,262.74590 197.13151,258.35505 C 199.53454,257.02908 201.60551,256.53241 203.42816,256.94649 C 205.25080,257.36057 206.65936,258.10614 207.73642,259.84620 C 208.73033,261.58568 208.97923,263.24314 208.39883,264.98263 C 207.90216,266.63952 206.41045,268.13067 204.00798,269.37348 C 199.78286,271.94169 195.55776,274.42732 191.41524,276.99553 L 206.82509,301.18709 C 208.31624,303.42437 208.89606,305.41220 208.56458,307.06964 C 208.56458,308.97544 207.73641,310.38343 206.24470,311.54309 C 204.33947,312.70275 202.43424,313.03425 200.52845,312.62072 C 198.70582,312.12292 197.04891,310.71492 195.55777,308.47764 L 179.73385,283.54050 C 177.82806,284.70016 176.00542,285.77779 174.18277,286.85429 C 174.18277,288.51174 174.18277,290.66587 174.18277,292.65370 L 174.18277,302.26470 C 174.18277,304.66716 174.01703,306.48981 173.76870,307.73261 C 173.51979,309.05746 172.93997,310.21824 171.94606,311.04640 C 170.53751,312.45439 168.88061,313.11737 167.14056,313.11737 C 165.89775,313.11737 164.73809,312.78587 163.74418,312.20605 C 162.74971,311.54307 161.92155,310.79806 161.42431,309.80358 C 160.84448,308.89227 160.51299,307.81463 160.42983,306.48980 C 160.34724,305.16384 160.34724,303.42435 160.34724,301.10392 L 160.34724,294.22800"
           style="fill:#122a3d;fill-rule:evenodd"
           id="path9204" />
      </g>
      <g
         transform="matrix(0.475294,0.000000,0.000000,0.475294,-187.1700,95.21338)"
         id="g9206">
        <path
           sodipodi:nodetypes="cczzcczcccccccccczc"
           id="path9208"
           d="M 485.75351,559.01923 L 507.45066,595.87826 C 507.45066,595.87826 494.38009,606.07332 488.89044,622.01942 C 483.40080,637.96552 484.23498,651.61633 487.50682,663.21416 C 490.81274,674.93282 502.35699,689.93613 507.11269,692.75367 C 501.51701,703.88927 486.01492,729.72097 486.01492,729.72097 C 479.91500,726.20890 470.12182,717.33451 461.96505,706.08565 C 453.54257,694.47036 448.27922,681.35984 447.49499,677.43866 C 449.79628,675.72363 452.17638,674.35361 456.59026,667.48917 L 451.00819,659.45269 L 452.58980,654.81343 L 462.43374,653.82577 C 463.35797,647.81828 463.18625,645.54645 462.09575,639.27258 C 461.74464,638.91377 452.15011,637.94038 452.15011,637.94038 L 450.34537,633.90980 L 456.47541,626.20200 C 452.59365,620.10209 445.75754,616.00695 445.75754,616.00695 C 445.75754,616.00695 449.62570,602.36657 457.78247,589.52781 C 465.88566,576.77340 473.69141,568.31407 485.75351,559.01923 z "
           style="fill:#b1c4ea;fill-opacity:1.0000000;fill-rule:evenodd;stroke:#001b7b;stroke-width:0.62500000;stroke-linecap:butt;stroke-linejoin:miter;stroke-miterlimit:4.0000000;stroke-opacity:0.91071427" />
        <path
           sodipodi:nodetypes="cczzcczcccccccccczc"
           id="path9210"
           d="M 651.47344,634.82548 L 608.70349,635.12134 C 608.70349,635.12134 606.43451,618.70089 595.38893,605.95689 C 584.34334,593.21287 572.11358,587.09133 560.43815,584.10818 C 548.64108,581.09396 529.87194,583.56143 525.04993,586.26390 C 518.21986,575.83972 503.63998,549.47649 503.63998,549.47649 C 509.73683,545.95910 522.32499,541.93425 536.14735,540.51569 C 550.41997,539.05091 564.40265,541.06920 568.18866,542.35637 C 568.51894,545.20737 567.97137,548.83524 571.69819,556.09566 L 581.81014,554.38196 L 584.47883,558.00166 L 580.83296,567.40518 C 585.56770,571.21653 587.19788,572.46133 593.17313,574.66294 C 593.65962,574.53901 600.03151,566.18532 600.03151,566.18532 L 604.42377,566.64433 L 607.97633,575.73793 C 615.20036,575.43714 622.21444,571.64958 622.21444,571.64958 C 622.21444,571.64958 632.07784,581.83468 639.09767,595.32871 C 646.07139,608.73409 649.47783,619.72892 651.47344,634.82548 z "
           style="fill:#417ade;fill-opacity:1.0000000;fill-rule:evenodd;stroke:#001b7b;stroke-width:0.62500000;stroke-linecap:butt;stroke-linejoin:miter;stroke-miterlimit:4.0000000;stroke-opacity:1.0000000" />
        <path
           sodipodi:nodetypes="cczzcczcccccccccczc"
           id="path9212"
           d="M 503.12627,739.16041 L 524.19993,701.94140 C 524.19993,701.94140 539.56416,708.16389 556.11883,704.94563 C 572.67350,701.72737 584.07863,694.17997 592.48704,685.54787 C 600.98306,676.82584 608.20484,659.32685 608.26726,653.79954 C 620.70882,653.07820 650.83076,653.58867 650.83076,653.58867 C 650.83891,660.62739 648.04958,673.54562 642.38569,686.23380 C 636.53730,699.33531 627.81452,710.44843 624.81070,713.08807 C 622.17484,711.95251 619.79836,710.57622 611.64666,710.18559 L 607.47758,719.03789 L 602.66903,719.98763 L 596.89202,711.95615 C 591.22718,714.15928 589.34553,715.44383 584.45730,719.52499 C 584.32209,720.00845 588.27605,728.80440 588.27605,728.80440 L 585.68770,732.38254 L 575.94760,730.92731 C 572.60556,737.33885 572.47682,745.30665 572.47682,745.30665 C 572.47682,745.30665 558.72970,748.77640 543.53266,748.13124 C 528.43545,747.49032 517.20666,744.95959 503.12627,739.16041 z "
           style="fill:#3c5cb2;fill-opacity:1.0000000;fill-rule:evenodd;stroke:#001b7b;stroke-width:0.62500000;stroke-linecap:butt;stroke-linejoin:miter;stroke-miterlimit:4.0000000;stroke-opacity:1.0000000" />
        <path
           sodipodi:nodetypes="cccccccccccccccccccccccccccccccccccccc"
           id="path9214"
           d="M 617.33959,505.31537 L 609.75473,515.27214 C 607.51174,514.74741 605.85189,514.38532 603.61044,514.54307 L 597.76097,504.09389 L 590.99430,506.26513 L 592.05707,517.97060 C 590.48246,518.97914 588.46405,520.91127 587.15950,522.30747 L 575.82107,518.76904 L 572.51950,525.32987 L 582.19026,533.22015 C 581.63260,535.40600 581.66569,536.74028 581.75864,538.93307 L 571.02626,544.53770 L 573.34822,551.40780 L 585.73072,550.15993 C 587.08604,552.41514 587.31531,553.21381 589.44522,554.91771 L 585.92732,566.08536 L 592.13990,570.01511 L 599.75855,560.42818 C 601.68497,560.77030 604.04628,561.02849 605.95969,560.87572 L 611.39504,571.39405 L 618.37990,569.48653 L 617.00347,557.30920 C 618.84043,556.09995 620.47494,554.84363 621.92218,553.10245 L 633.37719,556.42009 L 636.31436,549.97297 L 626.94804,542.31133 C 627.33975,540.25075 627.54888,538.69726 627.37267,536.64984 L 638.24478,530.63130 L 636.49007,523.97835 L 624.31121,525.36135 C 623.26277,523.78162 621.68616,522.02410 620.24183,520.72786 L 623.44353,508.91280 L 617.33959,505.31537 z M 610.71253,526.15211 C 617.15628,529.55505 619.62813,537.55929 616.22519,544.00305 C 612.82227,550.44682 604.82864,552.89854 598.38488,549.49562 C 591.94112,546.09271 589.47875,538.11914 592.88168,531.67538 C 596.28462,525.23164 604.26879,522.74918 610.71253,526.15211 z "
           style="fill:#3c5cb2;fill-opacity:1.0000000;fill-rule:nonzero;stroke:#001b7b;stroke-width:0.62500000;stroke-linecap:butt;stroke-linejoin:round;stroke-miterlimit:4.0000000;stroke-dashoffset:0.0000000;stroke-opacity:1.0000000" />
        <path
           sodipodi:nodetypes="cccccccccccccccccccccccccccccccccccccc"
           id="path9216"
           d="M 637.65145,726.86620 L 626.02699,731.50723 C 624.37285,729.90405 623.13527,728.74018 621.13160,727.72319 L 621.48606,715.75339 L 614.56582,714.13709 L 609.45978,724.72369 C 607.59070,724.77926 604.86615,725.39889 603.02942,725.92582 L 595.12307,717.06184 L 588.91835,720.99203 L 593.15705,732.73143 C 591.55502,734.31962 590.89747,735.48110 589.84991,737.40972 L 577.76307,736.69967 L 576.22288,743.78610 L 587.48535,749.08143 C 587.48848,751.71256 587.27455,752.51547 588.22551,755.07193 L 579.46694,762.84235 L 582.77548,769.40685 L 594.23879,765.10041 C 595.71528,766.38421 597.60794,767.81958 599.32768,768.67220 L 598.58246,780.48842 L 605.55428,782.44308 L 610.63385,771.29051 C 612.83114,771.19765 614.87898,770.96033 617.01545,770.21086 L 625.13530,778.94539 L 630.96900,774.92540 L 626.87389,763.53862 C 628.26919,761.97256 629.24720,760.74758 630.14860,758.90084 L 642.56808,759.32771 L 644.48319,752.71914 L 633.32592,747.64442 C 633.23875,745.75044 632.78995,743.43242 632.21747,741.57808 L 641.03765,733.08980 L 637.65145,726.86620 z M 621.25529,741.33180 C 625.03294,747.56327 623.03828,755.69955 616.80680,759.47721 C 610.57533,763.25489 602.45849,761.24841 598.68082,755.01695 C 594.90315,748.78549 596.89018,740.68038 603.12164,736.90273 C 609.35312,733.12508 617.47764,735.10034 621.25529,741.33180 z "
           style="fill:#b1c4ea;fill-opacity:1.0000000;fill-rule:nonzero;stroke:#001b7b;stroke-width:0.62500000;stroke-linecap:butt;stroke-linejoin:round;stroke-miterlimit:4.0000000;stroke-dashoffset:0.0000000;stroke-opacity:1.0000000" />
        <path
           sodipodi:nodetypes="cccccccccccccccccccccccccccccccccccccc"
           id="path9218"
           d="M 445.38407,619.75847 L 435.30806,627.18419 C 433.30273,626.05061 431.81138,625.23693 429.61585,624.75880 L 426.93657,613.08733 L 419.83244,613.27068 L 417.56485,624.80350 C 415.77037,625.32920 413.29054,626.61668 411.64637,627.59029 L 401.75813,621.00978 L 396.74677,626.37926 L 403.81222,636.66807 C 402.66310,638.60929 402.32012,639.89917 401.79346,642.02980 L 389.91895,644.39457 L 390.21793,651.64028 L 402.45251,653.92037 C 403.11986,656.46546 403.11559,657.29637 404.68123,659.52989 L 398.16840,669.26000 L 403.02721,674.77642 L 413.03176,667.71514 C 414.78456,668.58455 416.97832,669.49553 418.85761,669.88631 L 421.12003,681.50784 L 428.35948,681.63885 L 430.45856,669.56509 C 432.56121,668.92044 434.48277,668.17376 436.36079,666.90913 L 446.42293,673.31048 L 451.05261,667.94778 L 444.21513,657.96392 C 445.16981,656.09630 445.80684,654.66407 446.21275,652.64957 L 458.33761,649.92681 L 458.52207,643.04882 L 446.44498,640.95562 C 445.88243,639.14502 444.86289,637.01542 443.84076,635.36571 L 450.23194,624.92545 L 445.38407,619.75847 z M 433.17158,637.89525 C 438.40021,642.97099 438.52451,651.34729 433.44876,656.57593 C 428.37301,661.80460 420.01255,661.91256 414.78389,656.83683 C 409.55524,651.76110 409.43143,643.41689 414.50717,638.18825 C 419.58292,632.95962 427.94294,632.81951 433.17158,637.89525 z "
           style="fill:#417ade;fill-opacity:1.0000000;fill-rule:nonzero;stroke:#001b7b;stroke-width:0.62500000;stroke-linecap:butt;stroke-linejoin:round;stroke-miterlimit:4.0000000;stroke-dashoffset:0.0000000;stroke-opacity:1.0000000" />
      </g>
    </g>
    <text
       transform="matrix(0.000000,1.000000,-1.000000,0.000000,0.000000,0.000000)"
       sodipodi:linespacing="100%"
       id="text9220"
       y="-789.48633"
       x="393.95386"
       style="font-size:27.000000;font-style:normal;font-variant:normal;font-weight:normal;font-stretch:normal;fill:#b1c4ea;fill-opacity:1.0000000;stroke:none;stroke-width:1.0000000px;stroke-linecap:butt;stroke-linejoin:miter;stroke-opacity:1.0000000;font-family:Sans;text-anchor:start;writing-mode:lr-tb"
       xml:space="preserve"><tspan
         y="-789.48633"
         x="393.95386"
         id="tspan9222"
         sodipodi:role="line">Breezy Badger User Guide</tspan></text>
    <text
       sodipodi:linespacing="100%"
       id="text9226"
       y="802.70776"
       x="742.83398"
       style="font-size:12.000000;font-style:normal;font-variant:normal;font-weight:normal;font-stretch:normal;fill:#b1c4ea;fill-opacity:1.0000000;stroke:none;stroke-width:1.0000000px;stroke-linecap:butt;stroke-linejoin:miter;stroke-opacity:1.0000000;font-family:Sans;text-anchor:start;writing-mode:lr-tb"
       xml:space="preserve"><tspan
         y="802.70776"
         x="742.83398"
         id="tspan9228"
         sodipodi:role="line">www.kubuntu.org</tspan></text>
  </g>
</svg>
