<?xml version="1.0" encoding="UTF-8" standalone="no"?>
<!DOCTYPE svg PUBLIC "-//W3C//DTD SVG 20010904//EN"
"http://www.w3.org/TR/2001/REC-SVG-20010904/DTD/svg10.dtd">
<svg
   width="500.00000pt"
   height="110.00000pt"
   xmlns="http://www.w3.org/2000/svg"
   xmlns:sodipodi="http://sodipodi.sourceforge.net/DTD/sodipodi-0.dtd"
   xmlns:inkscape="http://www.inkscape.org/namespaces/inkscape"
   xmlns:xlink="http://www.w3.org/1999/xlink"
   id="svg1204"
   sodipodi:version="0.32"
   inkscape:version="0.40"
   xmlns:rdf="http://www.w3.org/1999/02/22-rdf-syntax-ns#"
   xmlns:cc="http://web.resource.org/cc/"
   xmlns:dc="http://purl.org/dc/elements/1.1/"
   sodipodi:docname="kubuntu-final.svg"
   sodipodi:docbase="/home/jr/tmp/kubuntu">
  <defs
     id="defs1230" />
  <metadata
     id="metadata1229">
    <rdf:RDF
       id="RDF1231">
      <cc:Work
         rdf:about=""
         id="Work1232">
        <dc:format
           id="format1233">image/svg+xml</dc:format>
        <dc:type
           id="type1235"
           rdf:resource="http://purl.org/dc/dcmitype/StillImage" />
      </cc:Work>
    </rdf:RDF>
  </metadata>
  <sodipodi:namedview
     id="base"
     pagecolor="#ffffff"
     bordercolor="#666666"
     borderopacity="1.0"
     inkscape:pageopacity="0.0"
     inkscape:pageshadow="2"
     inkscape:zoom="1.3444868"
     inkscape:cx="259.33027"
     inkscape:cy="70.210706"
     inkscape:window-width="826"
     inkscape:window-height="619"
     inkscape:window-x="0"
     inkscape:window-y="73"
     inkscape:current-layer="svg1204" />
<!-- Ubuntu final logo converted by ill2svg.pl -->  <g
     id="g1911"
     transform="translate(12.08640,-330.0516)">
    <g
       id="g2281"
       transform="matrix(1.061710,0.000000,0.000000,1.061710,-14.07829,101.9516)">
      <path
         id="path71"
         style="fill:#122a3d;fill-rule:evenodd"
         d="M 518.58244,264.98260 C 518.58244,262.16606 519.16227,260.09451 520.48823,258.68595 C 521.72992,257.36055 523.38737,256.61498 525.45836,256.61498 C 527.61249,256.61498 529.26994,257.36056 530.59479,258.68595 C 531.83760,260.09451 532.50058,262.16605 532.50058,264.98260 L 532.50058,283.12641 C 532.50058,288.26341 532.83208,291.82553 533.57821,293.81335 C 534.24007,295.80231 535.40084,297.37660 536.97402,298.45311 C 538.54832,299.61276 540.45411,300.19260 542.77343,300.19260 C 545.09387,300.19260 546.99966,299.61276 548.57284,298.53627 C 550.14714,297.45865 551.38995,295.80231 552.13609,293.73133 C 552.71593,292.07388 553.04741,288.76009 553.04741,283.54050 L 553.04741,264.90002 C 553.04741,262.08291 553.62724,260.09452 554.87005,258.68597 C 556.11286,257.27797 557.76919,256.61499 559.84017,256.61499 C 561.99430,256.61499 563.65176,257.27797 564.89457,258.68597 C 566.21941,260.09452 566.88239,262.16606 566.88239,264.90002 L 566.88239,279.89522 C 566.88239,289.50622 566.13738,296.05064 564.56307,299.61276 C 562.74044,303.92103 560.00648,307.23481 556.36120,309.55526 C 552.79795,311.87458 548.24135,312.95220 542.69140,312.95220 C 536.64365,312.95220 531.75556,311.62624 528.02713,308.97544 C 524.29870,306.24147 521.72992,302.51305 520.15675,297.70811 C 519.07913,294.31117 518.58245,288.26342 518.58245,279.48115 L 518.58245,264.98260" />
      <path
         id="path73"
         style="fill:#122a3d;fill-rule:evenodd"
         d="M 411.54226,304.66715 C 411.54226,307.48426 412.12209,309.55525 413.36489,310.88008 C 414.69085,312.28920 416.34719,312.95218 418.41929,312.95218 C 420.49026,312.95218 422.22975,312.28920 423.47256,310.88008 C 424.79852,309.47209 425.46151,307.40111 425.46151,304.66715 L 425.46151,286.52279 C 425.46151,281.38636 425.79188,277.82424 426.53802,275.75270 C 427.20100,273.76432 428.36066,272.19058 429.85181,271.11351 C 431.50926,270.03644 433.41393,269.45662 435.73436,269.45662 C 437.97053,269.45662 439.95948,269.95329 441.53378,271.03036 C 443.10807,272.19058 444.35089,273.76433 445.09590,275.91846 C 445.67573,277.49275 445.92407,280.88970 445.92407,286.02613 L 445.92407,304.74920 C 445.92407,307.48428 446.58705,309.55526 447.82986,310.88010 C 449.07267,312.28922 450.73013,312.95220 452.80110,312.95220 C 454.87207,312.95220 456.61156,312.28922 457.85437,310.88010 C 459.18034,309.55526 459.76017,307.48429 459.76017,304.74920 L 459.76017,289.67140 C 459.76017,280.14411 459.01403,273.51598 457.52288,270.03645 C 455.70024,265.72819 452.96628,262.41441 449.32100,260.09452 C 445.75888,257.77465 441.11912,256.61498 435.56805,256.61498 C 429.60346,256.61498 424.71536,257.94039 420.98692,260.67434 C 417.25850,263.32571 414.60768,267.13673 413.11654,271.94167 C 412.04003,275.25602 411.54224,281.30377 411.54224,290.08603 L 411.54224,304.66715" />
      <path
         id="path75"
         style="fill:#122a3d;fill-rule:evenodd"
         d="M 348.41172,264.98260 C 348.41172,262.16606 348.99267,260.09451 350.23436,258.68595 C 351.56032,257.36055 353.21777,256.61498 355.28876,256.61498 C 357.35974,256.61498 359.09922,257.36056 360.42519,258.68595 C 361.66800,260.09451 362.33098,262.16605 362.33098,264.98260 L 362.33098,283.12641 C 362.33098,288.26341 362.66248,291.82553 363.40749,293.81335 C 364.07047,295.80231 365.23012,297.37660 366.80443,298.45311 C 368.37873,299.61276 370.28452,300.19260 372.60384,300.19260 C 374.84113,300.19260 376.82896,299.61276 378.40326,298.53627 C 379.97755,297.45865 381.22037,295.80231 381.96538,293.73133 C 382.54521,292.07388 382.79466,288.76009 382.79466,283.54050 L 382.79466,264.90002 C 382.79466,262.08291 383.45653,260.09452 384.69933,258.68597 C 385.94214,257.27797 387.59960,256.61499 389.67057,256.61499 C 391.74154,256.61499 393.48216,257.27797 394.72384,258.68597 C 396.04980,260.09452 396.62964,262.16606 396.62964,264.90002 L 396.62964,279.89522 C 396.62964,289.50622 395.88463,296.05064 394.39347,299.61276 C 392.57084,303.92103 389.83575,307.23481 386.19047,309.55526 C 382.62835,311.87458 378.07175,312.95220 372.43864,312.95220 C 366.47293,312.95220 361.58483,311.62624 357.85752,308.97544 C 354.12909,306.24147 351.47716,302.51305 349.98601,297.70811 C 348.90950,294.31117 348.41171,288.26342 348.41171,279.48115 L 348.41171,264.98260" />
      <path
         id="path77"
         style="fill:#122a3d;fill-rule:evenodd"
         d="M 223.56035,264.98260 C 223.56035,262.16606 224.22277,260.09451 225.46558,258.68595 C 226.70840,257.36055 228.36529,256.61498 230.43682,256.61498 C 232.59096,256.61498 234.24785,257.36056 235.57326,258.68595 C 236.81607,260.09451 237.47849,262.16605 237.47849,264.90001 L 237.47849,283.12640 C 237.47849,288.26340 237.89313,291.82552 238.55556,293.81334 C 239.30113,295.80229 240.37819,297.37659 241.95250,298.45310 C 243.52680,299.61275 245.43204,300.19259 247.75191,300.19259 C 250.07178,300.19259 251.97702,299.61275 253.55132,298.53626 C 255.20821,297.45863 256.36787,295.80229 257.11344,293.73132 C 257.69383,292.07387 258.02476,288.76008 258.02476,283.54049 L 258.02476,264.90002 C 258.02476,262.08291 258.60515,260.09452 259.84796,258.68597 C 261.17337,257.27797 262.83026,256.61499 264.81864,256.61499 C 266.97277,256.61499 268.62966,257.27797 269.95507,258.68597 C 271.19788,260.09452 271.86086,262.16606 271.86086,264.90002 L 271.86086,279.89522 C 271.86086,289.50622 271.11529,296.05064 269.54099,299.61276 C 267.71835,303.92103 264.98439,307.23481 261.42171,309.55526 C 257.77642,311.87458 253.21983,312.95220 247.66875,312.95220 C 241.62100,312.95220 236.73291,311.62624 233.00505,308.97544 C 229.27662,306.24147 226.70840,302.51305 225.21725,297.70811 C 224.14018,294.31117 223.56035,288.26342 223.56035,279.48115 L 223.56035,264.98260" />
      <path
         id="path79"
         style="fill:#122a3d;fill-rule:evenodd"
         d="M 332.25743,269.95329 C 332.25743,269.87070 332.17427,269.78811 332.17427,269.70496 C 332.17427,269.78810 332.25743,269.87070 332.25743,269.95329 C 332.42261,270.20219 332.50577,270.53368 332.58780,270.78201 C 334.16210,274.75878 334.99139,279.56373 334.99139,284.78330 C 334.99139,289.91974 334.16211,294.64264 332.67096,298.53626 C 332.58780,298.86775 332.42262,299.28127 332.25743,299.61276 C 332.25743,299.69592 332.17427,299.77907 332.17427,299.86223 L 332.17427,269.70496 C 332.33945,270.03645 332.42261,270.45053 332.58780,270.78203 C 332.50577,270.53368 332.42262,270.20219 332.25743,269.95329 M 332.17427,269.70496 C 332.00797,269.37346 331.84278,269.04198 331.67647,268.71104 C 331.84279,269.04196 332.00797,269.37346 332.17427,269.70496 L 332.17427,299.86223 C 331.75963,300.69040 331.42813,301.43541 331.01462,302.18155 C 330.59997,302.92656 330.18533,303.50751 329.68866,304.16937 C 328.19751,306.32350 326.29171,308.14614 324.13758,309.55526 C 320.65861,311.70939 316.18404,312.86904 310.88243,312.95220 L 310.88243,301.68488 C 313.20175,301.60172 315.19069,301.02190 316.84702,299.86224 C 318.17298,298.95092 319.24949,297.79014 319.99563,296.21696 C 320.16081,296.13380 320.24396,295.96750 320.32712,295.80232 C 321.73512,292.73687 322.64644,289.00843 322.64644,284.86648 C 322.64644,280.88971 321.81827,277.24443 320.49231,274.26156 C 319.58100,272.27318 318.42134,270.78203 316.84703,269.70497 C 315.19070,268.54531 313.20175,267.96492 310.88244,267.88233 L 310.88244,256.61501 C 311.37912,256.61501 311.79376,256.61501 312.20729,256.61501 C 317.75836,256.61501 320.49232,257.77466 324.13759,260.01195 C 326.04339,261.25476 327.69972,262.74591 329.10884,264.56855 C 330.10331,265.81136 330.93147,267.21935 331.67649,268.71107 C 331.84279,269.04196 332.00797,269.37346 332.17427,269.70496 z M 310.88243,256.61498 L 310.88243,267.88231 C 310.71613,267.88231 310.55094,267.88231 310.38463,267.88231 C 307.90013,267.88231 305.74600,268.54529 304.00539,269.70494 C 302.34906,270.94776 301.10624,272.68781 300.36010,274.84137 C 299.78027,276.49827 299.44879,279.23279 299.28360,282.87808 C 299.20044,288.59489 299.61509,292.48851 300.36010,294.72467 C 301.10624,296.87880 302.34906,298.61942 304.00539,299.86222 C 305.74600,301.02187 307.90013,301.68485 310.38463,301.68485 C 310.55094,301.68485 310.71613,301.68485 310.88243,301.68485 L 310.88243,312.95218 C 310.71613,312.95218 310.55094,312.95218 310.38463,312.95218 C 304.33688,312.95218 299.53195,311.62622 295.80351,308.89226 C 292.07563,306.24145 289.50742,302.51301 288.01627,297.62493 C 287.10495,295.05616 286.60772,290.83104 286.44197,284.94848 L 286.44197,284.12032 C 286.44197,284.03773 286.44197,283.95515 286.44197,283.87199 L 286.44197,246.67305 C 286.44197,244.35373 286.52457,242.61369 286.60772,241.28828 C 286.77346,239.96232 287.10495,238.88525 287.60163,237.97394 C 288.18146,236.98002 289.01018,236.23445 290.00410,235.57147 C 291.08117,234.99164 292.24138,234.66015 293.48419,234.66015 C 295.30682,234.66015 296.88113,235.32313 298.37228,236.73169 C 299.36676,237.55986 299.94658,238.72007 300.19491,240.04547 C 300.44325,241.28828 300.52641,243.11092 300.52641,245.51339 L 300.52641,259.76301 C 303.17723,258.85171 305.91119,256.94648 310.88243,256.61498 z " />
      <path
         id="path81"
         style="fill:#122a3d;fill-rule:evenodd"
         d="M 476.49542,256.69758 L 478.06972,256.69758 L 478.06972,248.16477 C 478.06972,245.92748 478.06972,244.10484 478.15288,242.86203 C 478.31806,241.53662 478.64955,240.45956 479.22939,239.46565 C 479.80922,238.55433 480.55535,237.72560 481.63185,237.14578 C 482.62633,236.56594 483.78598,236.23446 485.11194,236.23446 C 486.85143,236.23446 488.50889,236.89688 489.91688,238.22285 C 490.91136,239.13417 491.49118,240.29382 491.73951,241.53663 C 492.07101,242.86204 492.15416,244.68468 492.15416,247.08771 L 492.15416,256.69758 L 497.37262,256.69758 C 499.36157,256.69758 500.85271,257.19482 501.92922,258.18929 C 503.00684,259.10061 503.50351,260.26026 503.50351,261.75141 C 503.50351,263.65721 502.75850,264.98261 501.26735,265.81134 C 499.77620,266.55691 497.62207,266.88841 494.80496,266.88841 L 492.15416,266.88841 L 492.15416,292.90204 C 492.15416,295.13933 492.23619,296.87880 492.40249,298.03958 C 492.56767,299.19924 492.98233,300.19259 493.64531,300.93873 C 494.30829,301.68486 495.46794,302.01523 496.95909,302.01523 C 497.78726,302.01523 498.86489,301.93320 500.35604,301.60171 C 501.76403,301.35337 502.84166,301.18706 503.66982,301.18706 C 504.74633,301.18706 505.82395,301.60171 506.73527,302.59618 C 507.64659,303.50750 508.06011,304.58401 508.06011,305.90997 C 508.06011,308.22929 506.81730,309.96876 504.33280,311.12954 C 501.84717,312.37123 498.28392,312.95218 493.64530,312.95218 C 489.25388,312.95218 485.85694,312.20604 483.62078,310.71489 C 481.30035,309.30690 479.80920,307.23480 479.06418,304.58398 C 478.40120,301.93318 478.06971,298.45308 478.06971,294.06280 L 478.06971,266.88840 L 476.16391,266.88840 C 474.09294,266.88840 472.60179,266.39116 471.52416,265.47984 C 470.44765,264.48537 469.86783,263.24312 469.86783,261.75141 C 469.86783,260.26026 470.44766,259.10061 471.52416,258.18929 C 472.68384,257.19482 474.34129,256.69758 476.49542,256.69758" />
      <path
         id="path95"
         style="fill:#122a3d;fill-rule:evenodd"
         d="M 160.34723,294.22800 L 160.34723,293.56502 C 160.18148,265.81134 160.18148,265.89393 160.09889,246.42473 C 160.09889,244.18800 160.18148,242.36537 160.26407,241.12255 C 160.34723,239.79659 160.67871,238.63693 161.25854,237.72561 C 161.83838,236.73170 162.58395,235.98556 163.66101,235.40574 C 164.65549,234.74332 165.81514,234.49442 167.05796,234.49442 C 168.88059,234.49442 170.53749,235.15740 171.94605,236.48281 C 172.93996,237.39413 173.51979,238.47120 173.76868,239.79659 C 174.01702,241.03941 174.18276,242.94520 174.18276,245.26507 C 174.18276,261.75143 174.18276,265.31411 174.18276,271.61076 C 181.80481,267.13676 189.50945,262.74590 197.13151,258.35505 C 199.53454,257.02908 201.60551,256.53241 203.42816,256.94649 C 205.25080,257.36057 206.65936,258.10614 207.73642,259.84620 C 208.73033,261.58568 208.97923,263.24314 208.39883,264.98263 C 207.90216,266.63952 206.41045,268.13067 204.00798,269.37348 C 199.78286,271.94169 195.55776,274.42732 191.41524,276.99553 L 206.82509,301.18709 C 208.31624,303.42437 208.89606,305.41220 208.56458,307.06964 C 208.56458,308.97544 207.73641,310.38343 206.24470,311.54309 C 204.33947,312.70275 202.43424,313.03425 200.52845,312.62072 C 198.70582,312.12292 197.04891,310.71492 195.55777,308.47764 L 179.73385,283.54050 C 177.82806,284.70016 176.00542,285.77779 174.18277,286.85429 C 174.18277,288.51174 174.18277,290.66587 174.18277,292.65370 L 174.18277,302.26470 C 174.18277,304.66716 174.01703,306.48981 173.76870,307.73261 C 173.51979,309.05746 172.93997,310.21824 171.94606,311.04640 C 170.53751,312.45439 168.88061,313.11737 167.14056,313.11737 C 165.89775,313.11737 164.73809,312.78587 163.74418,312.20605 C 162.74971,311.54307 161.92155,310.79806 161.42431,309.80358 C 160.84448,308.89227 160.51299,307.81463 160.42983,306.48980 C 160.34724,305.16384 160.34724,303.42435 160.34724,301.10392 L 160.34724,294.22800" />
    </g>
    <g
       id="g2255"
       transform="matrix(0.475294,0.000000,0.000000,0.475294,-187.1700,95.21338)">
      <path
         style="fill:#b1c4ea;fill-opacity:1.0000000;fill-rule:evenodd;stroke:#001b7b;stroke-width:0.62500000;stroke-linecap:butt;stroke-linejoin:miter;stroke-miterlimit:4.0000000;stroke-opacity:0.91071427"
         d="M 485.75351,559.01923 L 507.45066,595.87826 C 507.45066,595.87826 494.38009,606.07332 488.89044,622.01942 C 483.40080,637.96552 484.23498,651.61633 487.50682,663.21416 C 490.81274,674.93282 502.35699,689.93613 507.11269,692.75367 C 501.51701,703.88927 486.01492,729.72097 486.01492,729.72097 C 479.91500,726.20890 470.12182,717.33451 461.96505,706.08565 C 453.54257,694.47036 448.27922,681.35984 447.49499,677.43866 C 449.79628,675.72363 452.17638,674.35361 456.59026,667.48917 L 451.00819,659.45269 L 452.58980,654.81343 L 462.43374,653.82577 C 463.35797,647.81828 463.18625,645.54645 462.09575,639.27258 C 461.74464,638.91377 452.15011,637.94038 452.15011,637.94038 L 450.34537,633.90980 L 456.47541,626.20200 C 452.59365,620.10209 445.75754,616.00695 445.75754,616.00695 C 445.75754,616.00695 449.62570,602.36657 457.78247,589.52781 C 465.88566,576.77340 473.69141,568.31407 485.75351,559.01923 z "
         id="path1794"
         sodipodi:nodetypes="cczzcczcccccccccczc" />
      <path
         style="fill:#417ade;fill-opacity:1.0000000;fill-rule:evenodd;stroke:#001b7b;stroke-width:0.62500000;stroke-linecap:butt;stroke-linejoin:miter;stroke-miterlimit:4.0000000;stroke-opacity:1.0000000"
         d="M 651.47344,634.82548 L 608.70349,635.12134 C 608.70349,635.12134 606.43451,618.70089 595.38893,605.95689 C 584.34334,593.21287 572.11358,587.09133 560.43815,584.10818 C 548.64108,581.09396 529.87194,583.56143 525.04993,586.26390 C 518.21986,575.83972 503.63998,549.47649 503.63998,549.47649 C 509.73683,545.95910 522.32499,541.93425 536.14735,540.51569 C 550.41997,539.05091 564.40265,541.06920 568.18866,542.35637 C 568.51894,545.20737 567.97137,548.83524 571.69819,556.09566 L 581.81014,554.38196 L 584.47883,558.00166 L 580.83296,567.40518 C 585.56770,571.21653 587.19788,572.46133 593.17313,574.66294 C 593.65962,574.53901 600.03151,566.18532 600.03151,566.18532 L 604.42377,566.64433 L 607.97633,575.73793 C 615.20036,575.43714 622.21444,571.64958 622.21444,571.64958 C 622.21444,571.64958 632.07784,581.83468 639.09767,595.32871 C 646.07139,608.73409 649.47783,619.72892 651.47344,634.82548 z "
         id="path1795"
         sodipodi:nodetypes="cczzcczcccccccccczc" />
      <path
         style="fill:#3c5cb2;fill-opacity:1.0000000;fill-rule:evenodd;stroke:#001b7b;stroke-width:0.62500000;stroke-linecap:butt;stroke-linejoin:miter;stroke-miterlimit:4.0000000;stroke-opacity:1.0000000"
         d="M 503.12627,739.16041 L 524.19993,701.94140 C 524.19993,701.94140 539.56416,708.16389 556.11883,704.94563 C 572.67350,701.72737 584.07863,694.17997 592.48704,685.54787 C 600.98306,676.82584 608.20484,659.32685 608.26726,653.79954 C 620.70882,653.07820 650.83076,653.58867 650.83076,653.58867 C 650.83891,660.62739 648.04958,673.54562 642.38569,686.23380 C 636.53730,699.33531 627.81452,710.44843 624.81070,713.08807 C 622.17484,711.95251 619.79836,710.57622 611.64666,710.18559 L 607.47758,719.03789 L 602.66903,719.98763 L 596.89202,711.95615 C 591.22718,714.15928 589.34553,715.44383 584.45730,719.52499 C 584.32209,720.00845 588.27605,728.80440 588.27605,728.80440 L 585.68770,732.38254 L 575.94760,730.92731 C 572.60556,737.33885 572.47682,745.30665 572.47682,745.30665 C 572.47682,745.30665 558.72970,748.77640 543.53266,748.13124 C 528.43545,747.49032 517.20666,744.95959 503.12627,739.16041 z "
         id="path1796"
         sodipodi:nodetypes="cczzcczcccccccccczc" />
      <path
         style="fill:#3c5cb2;fill-opacity:1.0000000;fill-rule:nonzero;stroke:#001b7b;stroke-width:0.62500000;stroke-linecap:butt;stroke-linejoin:round;stroke-miterlimit:4.0000000;stroke-dashoffset:0.0000000;stroke-opacity:1.0000000"
         d="M 617.33959,505.31537 L 609.75473,515.27214 C 607.51174,514.74741 605.85189,514.38532 603.61044,514.54307 L 597.76097,504.09389 L 590.99430,506.26513 L 592.05707,517.97060 C 590.48246,518.97914 588.46405,520.91127 587.15950,522.30747 L 575.82107,518.76904 L 572.51950,525.32987 L 582.19026,533.22015 C 581.63260,535.40600 581.66569,536.74028 581.75864,538.93307 L 571.02626,544.53770 L 573.34822,551.40780 L 585.73072,550.15993 C 587.08604,552.41514 587.31531,553.21381 589.44522,554.91771 L 585.92732,566.08536 L 592.13990,570.01511 L 599.75855,560.42818 C 601.68497,560.77030 604.04628,561.02849 605.95969,560.87572 L 611.39504,571.39405 L 618.37990,569.48653 L 617.00347,557.30920 C 618.84043,556.09995 620.47494,554.84363 621.92218,553.10245 L 633.37719,556.42009 L 636.31436,549.97297 L 626.94804,542.31133 C 627.33975,540.25075 627.54888,538.69726 627.37267,536.64984 L 638.24478,530.63130 L 636.49007,523.97835 L 624.31121,525.36135 C 623.26277,523.78162 621.68616,522.02410 620.24183,520.72786 L 623.44353,508.91280 L 617.33959,505.31537 z M 610.71253,526.15211 C 617.15628,529.55505 619.62813,537.55929 616.22519,544.00305 C 612.82227,550.44682 604.82864,552.89854 598.38488,549.49562 C 591.94112,546.09271 589.47875,538.11914 592.88168,531.67538 C 596.28462,525.23164 604.26879,522.74918 610.71253,526.15211 z "
         id="path1797"
         sodipodi:nodetypes="cccccccccccccccccccccccccccccccccccccc" />
      <path
         style="fill:#b1c4ea;fill-opacity:1.0000000;fill-rule:nonzero;stroke:#001b7b;stroke-width:0.62500000;stroke-linecap:butt;stroke-linejoin:round;stroke-miterlimit:4.0000000;stroke-dashoffset:0.0000000;stroke-opacity:1.0000000"
         d="M 637.65145,726.86620 L 626.02699,731.50723 C 624.37285,729.90405 623.13527,728.74018 621.13160,727.72319 L 621.48606,715.75339 L 614.56582,714.13709 L 609.45978,724.72369 C 607.59070,724.77926 604.86615,725.39889 603.02942,725.92582 L 595.12307,717.06184 L 588.91835,720.99203 L 593.15705,732.73143 C 591.55502,734.31962 590.89747,735.48110 589.84991,737.40972 L 577.76307,736.69967 L 576.22288,743.78610 L 587.48535,749.08143 C 587.48848,751.71256 587.27455,752.51547 588.22551,755.07193 L 579.46694,762.84235 L 582.77548,769.40685 L 594.23879,765.10041 C 595.71528,766.38421 597.60794,767.81958 599.32768,768.67220 L 598.58246,780.48842 L 605.55428,782.44308 L 610.63385,771.29051 C 612.83114,771.19765 614.87898,770.96033 617.01545,770.21086 L 625.13530,778.94539 L 630.96900,774.92540 L 626.87389,763.53862 C 628.26919,761.97256 629.24720,760.74758 630.14860,758.90084 L 642.56808,759.32771 L 644.48319,752.71914 L 633.32592,747.64442 C 633.23875,745.75044 632.78995,743.43242 632.21747,741.57808 L 641.03765,733.08980 L 637.65145,726.86620 z M 621.25529,741.33180 C 625.03294,747.56327 623.03828,755.69955 616.80680,759.47721 C 610.57533,763.25489 602.45849,761.24841 598.68082,755.01695 C 594.90315,748.78549 596.89018,740.68038 603.12164,736.90273 C 609.35312,733.12508 617.47764,735.10034 621.25529,741.33180 z "
         id="path1798"
         sodipodi:nodetypes="cccccccccccccccccccccccccccccccccccccc" />
      <path
         style="fill:#417ade;fill-opacity:1.0000000;fill-rule:nonzero;stroke:#001b7b;stroke-width:0.62500000;stroke-linecap:butt;stroke-linejoin:round;stroke-miterlimit:4.0000000;stroke-dashoffset:0.0000000;stroke-opacity:1.0000000"
         d="M 445.38407,619.75847 L 435.30806,627.18419 C 433.30273,626.05061 431.81138,625.23693 429.61585,624.75880 L 426.93657,613.08733 L 419.83244,613.27068 L 417.56485,624.80350 C 415.77037,625.32920 413.29054,626.61668 411.64637,627.59029 L 401.75813,621.00978 L 396.74677,626.37926 L 403.81222,636.66807 C 402.66310,638.60929 402.32012,639.89917 401.79346,642.02980 L 389.91895,644.39457 L 390.21793,651.64028 L 402.45251,653.92037 C 403.11986,656.46546 403.11559,657.29637 404.68123,659.52989 L 398.16840,669.26000 L 403.02721,674.77642 L 413.03176,667.71514 C 414.78456,668.58455 416.97832,669.49553 418.85761,669.88631 L 421.12003,681.50784 L 428.35948,681.63885 L 430.45856,669.56509 C 432.56121,668.92044 434.48277,668.17376 436.36079,666.90913 L 446.42293,673.31048 L 451.05261,667.94778 L 444.21513,657.96392 C 445.16981,656.09630 445.80684,654.66407 446.21275,652.64957 L 458.33761,649.92681 L 458.52207,643.04882 L 446.44498,640.95562 C 445.88243,639.14502 444.86289,637.01542 443.84076,635.36571 L 450.23194,624.92545 L 445.38407,619.75847 z M 433.17158,637.89525 C 438.40021,642.97099 438.52451,651.34729 433.44876,656.57593 C 428.37301,661.80460 420.01255,661.91256 414.78389,656.83683 C 409.55524,651.76110 409.43143,643.41689 414.50717,638.18825 C 419.58292,632.95962 427.94294,632.81951 433.17158,637.89525 z "
         id="path1799"
         sodipodi:nodetypes="cccccccccccccccccccccccccccccccccccccc" />
    </g>
  </g>
</svg>
