<?xml version="1.0" encoding="UTF-8" standalone="no"?>
<!DOCTYPE svg PUBLIC "-//W3C//DTD SVG 20010904//EN"
"http://www.w3.org/TR/2001/REC-SVG-20010904/DTD/svg10.dtd">
<!-- Created with Inkscape (http://www.inkscape.org/) -->
<svg
   width="595.00000pt"
   height="842.00000pt"
   id="svg1223"
   sodipodi:version="0.32"
   inkscape:version="0.40"
   sodipodi:docbase="/home/jsg/ubuntu-docs/artwork"
   sodipodi:docname="ubuntu_conference brochure_A4.svg"
   inkscape:export-filename="/home/jsg/Ubuntu_conference_flyer_A4.png"
   inkscape:export-xdpi="300.00000"
   inkscape:export-ydpi="300.00000"
   xmlns="http://www.w3.org/2000/svg"
   xmlns:cc="http://web.resource.org/cc/"
   xmlns:inkscape="http://www.inkscape.org/namespaces/inkscape"
   xmlns:sodipodi="http://sodipodi.sourceforge.net/DTD/sodipodi-0.dtd"
   xmlns:rdf="http://www.w3.org/1999/02/22-rdf-syntax-ns#"
   xmlns:xml="http://www.w3.org/XML/1998/namespace"
   xmlns:dc="http://purl.org/dc/elements/1.1/"
   xmlns:xlink="http://www.w3.org/1999/xlink">
  <defs
     id="defs3" />
  <sodipodi:namedview
     id="base"
     pagecolor="#ffffff"
     bordercolor="#000000"
     borderopacity="1.0000000"
     inkscape:pageopacity="1.0000000"
     inkscape:pageshadow="2"
     inkscape:zoom="1.0000000"
     inkscape:cx="268.91986"
     inkscape:cy="396.75732"
     inkscape:current-layer="layer1"
     showgrid="false"
     showborder="true"
     inkscape:window-width="1024"
     inkscape:window-height="693"
     inkscape:window-x="0"
     inkscape:window-y="25"
     showguides="true"
     gridspacingy="14.173228pt"
     gridspacingx="14.173228pt"
     gridoriginy="0.0000000pt"
     gridoriginx="0.0000000pt" />
  <metadata
     id="metadata4">
    <rdf:RDF
       id="RDF5">
      <cc:Work
         rdf:about=""
         id="Work6">
        <dc:format
           id="format7">image/svg+xml</dc:format>
        <dc:type
           id="type9"
           rdf:resource="http://purl.org/dc/dcmitype/StillImage" />
        <cc:license
           id="license5882"
           rdf:resource="http://creativecommons.org/licenses/by/2.0/" />
        <dc:creator
           id="creator5911">
          <cc:Agent
             id="Agent5912">
            <dc:title
               id="title5913">Jerome S. Gotangco</dc:title>
          </cc:Agent>
        </dc:creator>
        <dc:title
           id="title5915">Ubuntu A4 Flyer</dc:title>
        <dc:date
           id="date5917">2005.06.02</dc:date>
        <dc:subject
           id="subject7250">
          <rdf:Bag
             id="Bag7251">
            <rdf:li
               id="li7600">Ubuntu</rdf:li>
            <rdf:li
               id="li7602">Linux</rdf:li>
            <rdf:li
               id="li7604">Computer</rdf:li>
            <rdf:li
               id="li7606">Operating System</rdf:li>
            <rdf:li
               id="li7608">OS</rdf:li>
          </rdf:Bag>
        </dc:subject>
        <dc:language
           id="language7610">EN</dc:language>
      </cc:Work>
      <cc:License
         rdf:about="http://creativecommons.org/licenses/by/2.0/"
         id="License5904">
        <cc:permits
           rdf:resource="http://web.resource.org/cc/Reproduction"
           id="permits5905" />
        <cc:permits
           rdf:resource="http://web.resource.org/cc/Distribution"
           id="permits5906" />
        <cc:requires
           rdf:resource="http://web.resource.org/cc/Notice"
           id="requires5907" />
        <cc:requires
           rdf:resource="http://web.resource.org/cc/Attribution"
           id="requires5908" />
        <cc:permits
           rdf:resource="http://web.resource.org/cc/DerivativeWorks"
           id="permits5909" />
        <cc:requires
           rdf:resource="http://web.resource.org/cc/ShareAlike"
           id="requires5910" />
      </cc:License>
    </rdf:RDF>
  </metadata>
  <g
     inkscape:label="Layer 1"
     inkscape:groupmode="layer"
     id="layer1">
    <rect
       style="fill:#a90000;fill-opacity:1.0000000;fill-rule:evenodd;stroke:#000000;stroke-width:0.0000000;stroke-linecap:butt;stroke-linejoin:miter;stroke-miterlimit:4.0000000;stroke-opacity:1.0000000"
       id="rect6016"
       width="945.62292"
       height="240.62500"
       x="-109.57184"
       y="927.18750" />
    <text
       xml:space="preserve"
       style="font-size:13.000000;font-style:normal;font-variant:normal;font-weight:normal;font-stretch:normal;fill:#ffffff;fill-opacity:1.0000000;stroke:none;stroke-width:1.0000000pt;stroke-linecap:butt;stroke-linejoin:miter;stroke-opacity:1.0000000;font-family:Bitstream Vera Sans;text-anchor:middle;writing-mode:lr"
       x="48.229805"
       y="978.81555"
       id="text7265"
       sodipodi:linespacing="100%"
       transform="translate(327.3021,5.937500)"><tspan
         x="48.229805"
         y="978.81555"
         sodipodi:role="line"
         id="tspan7268">Ubuntu is sponsored by Canonical Ltd. For more information, visit www.ubuntu.com and www.canonical.com</tspan><tspan
         x="48.229805"
         y="991.81555"
         sodipodi:role="line"
         id="tspan7270">To request free Ubuntu CDs, visit shipit.ubuntu.com</tspan><tspan
         sodipodi:role="line"
         id="tspan2637"
         x="48.229805"
         y="1004.8156"></tspan><tspan
         sodipodi:role="line"
         id="tspan2635"
         x="48.229805"
         y="1017.8156">Ubuntu and Canonical are trademarks of Canonical Ltd.</tspan><tspan
         sodipodi:role="line"
         id="tspan2639"
         x="48.229805"
         y="1030.8156">All other trademarks are the property of their respective owners.</tspan></text>
    <path
       style="fill:#ffffff;fill-opacity:1.0000000;fill-rule:evenodd;stroke:#000000;stroke-width:1.9497142;stroke-miterlimit:3.9000001;stroke-opacity:1.0000000"
       d="M 413.10200,852.95047 L 413.10200,853.01297 C 380.76891,853.02989 354.51655,877.44621 354.51654,907.54422 C 354.51654,937.64223 380.76891,962.08977 413.10200,962.10672 L 413.10200,962.16922 L 828.53519,962.16922 L 828.53519,852.95047 L 413.10200,852.95047 z "
       id="rect2469" />
    <g
       extraneous="self"
       id="g5629"
       transform="translate(368.1268,859.7257)">
      <g
         id="Layer_1"
         layer="yes"
         dimmedPercent="50"
         rgbTrio="#4F008000FFFF">
        <path
           knockout="Off"
           d="M 328.71700,21.744000 C 328.71700,19.739000 329.16800,18.248000 330.07400,17.269000 C 330.97800,16.267000 332.17600,15.765000 333.66800,15.765000 C 335.18400,15.765000 336.40600,16.267000 337.33600,17.269000 C 338.26600,18.272000 338.73100,19.763000 338.73100,21.744000 L 338.73100,34.771000 C 338.73100,38.470000 338.98500,41.046000 339.49300,42.498000 C 340.00100,43.924000 340.81100,45.037000 341.92500,45.834000 C 343.06000,46.633000 344.45000,47.029000 346.09500,47.029000 C 347.74000,47.029000 349.13000,46.644000 350.26700,45.869000 C 351.42700,45.072000 352.28500,43.912000 352.84100,42.389000 C 353.25300,41.252000 353.45800,38.823000 353.45800,35.098000 L 353.45800,21.698000 C 353.45800,19.710000 353.90900,18.229000 354.80600,17.259000 C 355.70400,16.265000 356.89200,15.767000 358.37400,15.767000 C 359.87600,15.767000 361.08900,16.265000 362.01300,17.259000 C 362.93500,18.253000 363.39400,19.734000 363.39800,21.698000 L 363.39800,32.487000 C 363.39800,39.378000 362.85300,44.094000 361.76300,46.633000 C 360.43300,49.728000 358.47400,52.107000 355.88800,53.777000 C 353.30000,55.420000 350.01300,56.242000 346.02300,56.244000 C 341.69300,56.244000 338.18700,55.275000 335.50300,53.342000 C 332.84300,51.408000 330.97000,48.711000 329.88200,45.255000 C 329.10700,42.860000 328.72200,38.509000 328.72200,32.196000 L 328.71700,21.744000 L 328.71700,21.744000 z "
           id="path5633"
           style="fill:#040404" />
        <path
           knockout="Off"
           d="M 251.07100,50.263000 C 251.07100,52.269000 251.52200,53.759000 252.42800,54.740000 C 253.33200,55.742000 254.53000,56.242000 256.02200,56.244000 C 257.54000,56.244000 258.76200,55.742000 259.69200,54.740000 C 260.62000,53.738000 261.08500,52.246000 261.08500,50.263000 L 261.08500,37.236000 C 261.08500,33.539000 261.33900,30.963000 261.84700,29.511000 C 262.35500,28.085000 263.16300,26.972000 264.27900,26.175000 C 265.41400,25.376000 266.80400,24.978000 268.44900,24.978000 C 270.09200,24.978000 271.48400,25.365000 272.61900,26.138000 C 273.78100,26.937000 274.63900,28.097000 275.19500,29.620000 C 275.60700,30.755000 275.81000,33.184000 275.81200,36.911000 L 275.81200,50.310000 C 275.81200,52.300000 276.26300,53.779000 277.16000,54.751000 C 278.05800,55.745000 279.24600,56.241000 280.72600,56.243000 C 282.23200,56.243000 283.44500,55.745000 284.36700,54.751000 C 285.28900,53.755000 285.74800,52.276000 285.75000,50.310000 L 285.75000,39.523000 C 285.75000,32.630000 285.20500,27.916000 284.11900,25.377000 C 282.78900,22.281000 280.83000,19.900000 278.24200,18.231000 C 275.65400,16.587000 272.36700,15.765000 268.37700,15.765000 C 264.04900,15.765000 260.54300,16.733000 257.85700,18.666000 C 255.19700,20.600000 253.32400,23.296000 252.23600,26.755000 C 251.46100,29.148000 251.07600,33.501000 251.07600,39.812000 L 251.07100,50.263000 L 251.07100,50.263000 z "
           id="path5635"
           style="fill:#040404" />
        <path
           knockout="Off"
           d="M 205.73900,21.744000 C 205.73900,19.739000 206.19200,18.248000 207.09600,17.269000 C 208.00000,16.267000 209.19800,15.765000 210.69200,15.765000 C 212.20600,15.765000 213.42800,16.267000 214.35800,17.269000 C 215.28800,18.272000 215.75100,19.763000 215.75300,21.744000 L 215.75300,34.771000 C 215.75300,38.470000 216.00700,41.046000 216.51500,42.498000 C 217.02300,43.924000 217.83100,45.037000 218.94500,45.834000 C 220.08200,46.633000 221.47200,47.029000 223.11700,47.029000 C 224.76000,47.029000 226.15000,46.644000 227.28900,45.869000 C 228.44900,45.072000 229.30700,43.912000 229.86300,42.389000 C 230.27300,41.252000 230.47800,38.823000 230.48000,35.098000 L 230.48000,21.698000 C 230.48000,19.710000 230.92900,18.229000 231.82800,17.259000 C 232.72400,16.265000 233.91400,15.767000 235.39600,15.767000 C 236.89800,15.767000 238.11100,16.265000 239.03500,17.259000 C 239.95500,18.253000 240.41800,19.734000 240.41800,21.698000 L 240.41800,32.487000 C 240.41800,39.378000 239.87300,44.094000 238.78500,46.633000 C 237.45500,49.728000 235.49600,52.107000 232.91000,53.777000 C 230.32200,55.420000 227.03300,56.242000 223.04300,56.244000 C 218.71500,56.244000 215.21100,55.275000 212.52500,53.342000 C 209.86500,51.408000 207.99200,48.711000 206.90400,45.255000 C 206.13100,42.860000 205.74400,38.509000 205.74400,32.196000 L 205.73900,21.744000 L 205.73900,21.744000 z "
           id="path5637"
           style="fill:#040404" />
        <path
           knockout="Off"
           d="M 116.03200,21.744000 C 116.03200,19.739000 116.48300,18.248000 117.38900,17.269000 C 118.29300,16.267000 119.49200,15.765000 120.98400,15.765000 C 122.49900,15.765000 123.72300,16.267000 124.65300,17.269000 C 125.57300,18.263000 126.03800,19.741000 126.04600,21.697000 L 126.04600,34.771000 C 126.04600,38.470000 126.30000,41.046000 126.80800,42.498000 C 127.31600,43.924000 128.12500,45.037000 129.23900,45.834000 C 130.37500,46.633000 131.76500,47.029000 133.41000,47.029000 C 135.05400,47.029000 136.44500,46.644000 137.58200,45.869000 C 138.74200,45.072000 139.60000,43.912000 140.15600,42.389000 C 140.56600,41.252000 140.77100,38.823000 140.77300,35.098000 L 140.77300,21.698000 C 140.77300,19.710000 141.22300,18.229000 142.12200,17.259000 C 143.01900,16.265000 144.20900,15.767000 145.68800,15.767000 C 147.19200,15.767000 148.40600,16.265000 149.32800,17.259000 C 150.25000,18.253000 150.71100,19.734000 150.71200,21.698000 L 150.71200,32.487000 C 150.71200,39.378000 150.16800,44.094000 149.08000,46.633000 C 147.74900,49.728000 145.79000,52.107000 143.20300,53.777000 C 140.61500,55.420000 137.32800,56.242000 133.33800,56.244000 C 129.01000,56.244000 125.50400,55.275000 122.81900,53.342000 C 120.15800,51.408000 118.28500,48.711000 117.19700,45.255000 C 116.42300,42.860000 116.03700,38.509000 116.03700,32.196000 L 116.03200,21.744000 L 116.03200,21.744000 z "
           id="path5639"
           style="fill:#040404" />
        <path
           knockout="Off"
           d="M 194.17800,25.363000 C 194.04500,25.054000 193.90700,24.754000 193.76200,24.461000 C 193.99100,24.934000 194.20500,25.430000 194.40500,25.945000 C 194.33300,25.740000 194.25600,25.547000 194.17800,25.363000 L 194.17800,25.363000 z M 161.19300,36.123000 L 161.21200,35.531000 C 161.20000,35.476000 161.19300,35.410000 161.19300,35.332000 L 161.19300,8.6010000 C 161.19300,6.9630000 161.22900,5.6860000 161.30400,4.7660000 C 161.40300,3.8250000 161.65100,3.0180000 162.04900,2.3460000 C 162.44500,1.6530000 163.01600,1.0930000 163.76200,0.67000000 C 164.50600,0.22400000 165.33600,9.9920072e-16 166.25600,9.9920072e-16 C 167.54600,9.9920072e-16 168.71200,0.48400000 169.75600,1.4520000 C 170.44900,2.0980000 170.88400,2.8920000 171.05900,3.8350000 C 171.25600,4.7540000 171.35600,6.0690000 171.35600,7.7810000 L 171.35600,18.039000 C 173.40300,17.301000 175.56500,15.752000 179.78000,15.752000 C 183.77000,15.753000 185.71400,16.574000 188.30100,18.219000 C 189.67000,19.102000 190.86300,20.185000 191.88300,21.469000 C 192.59400,22.367000 193.22300,23.365000 193.76200,24.461000 C 193.90700,24.754000 194.04500,25.055000 194.17800,25.363000 C 194.25600,25.547000 194.33200,25.740000 194.40500,25.945000 C 195.50100,28.781000 196.14300,32.244000 196.14300,35.984000 C 196.14300,39.654000 195.52200,43.058000 194.46100,45.865000 C 194.37100,46.135000 194.27700,46.385000 194.17800,46.619000 C 193.89300,47.278000 193.58000,47.909000 193.23700,48.505000 C 192.95800,48.995000 192.65700,49.462000 192.33900,49.907000 C 191.22800,51.458000 189.88200,52.743000 188.30200,53.762000 C 185.71400,55.405000 182.42700,56.227000 178.43700,56.229000 C 174.10900,56.229000 170.60300,55.260000 167.91900,53.327000 C 165.25800,51.393000 163.38400,48.696000 162.29600,45.240000 C 161.69600,43.381000 161.32700,40.342000 161.19300,36.123000 L 161.19300,36.123000 z M 183.06500,46.844000 C 184.01800,46.190000 184.78600,45.313000 185.36800,44.211000 C 185.45400,44.115000 185.52400,44.010000 185.57900,43.897000 C 186.62000,41.717000 187.23900,38.999000 187.23900,36.051000 C 187.23900,33.205000 186.66300,30.574000 185.68600,28.434000 C 185.07600,27.020000 184.20300,25.920000 183.06500,25.139000 C 181.81500,24.287000 180.28600,23.862000 178.47700,23.862000 C 176.66800,23.862000 175.13800,24.301000 173.88800,25.180000 C 172.66400,26.057000 171.77400,27.282000 171.21500,28.850000 C 170.78900,30.065000 170.52700,32.000000 170.42500,34.651000 C 170.38300,38.758000 170.66200,41.553000 171.21500,43.133000 C 171.77400,44.703000 172.66400,45.926000 173.88800,46.803000 C 175.13800,47.681000 176.66800,48.118000 178.47700,48.118000 C 180.28600,48.118000 181.81500,47.694000 183.06500,46.844000 L 183.06500,46.844000 z "
           id="path5641"
           style="fill:#040404" />
        <path
           knockout="Off"
           d="M 298.48900,15.820000 L 299.60800,15.820000 L 299.60800,9.7170000 C 299.60800,8.0790000 299.64300,6.8010000 299.71700,5.8830000 C 299.81700,4.9410000 300.06500,4.1350000 300.46300,3.4630000 C 300.85900,2.7690000 301.42800,2.2110000 302.17400,1.7890000 C 302.92000,1.3420000 303.74800,1.1190000 304.66800,1.1190000 C 305.95700,1.1190000 307.12300,1.6010000 308.16800,2.5700000 C 308.86100,3.2160000 309.29500,4.0090000 309.47100,4.9530000 C 309.66600,5.8710000 309.76600,7.1850000 309.76800,8.8970000 L 309.76800,15.820000 L 313.49100,15.820000 C 314.92900,15.820000 316.02000,16.169000 316.76600,16.863000 C 317.53400,17.533000 317.91800,18.402000 317.91800,19.468000 C 317.91800,20.833000 317.37300,21.788000 316.28100,22.333000 C 315.21300,22.880000 313.67600,23.152000 311.66600,23.152000 L 309.76800,23.152000 L 309.76800,41.837000 C 309.76800,43.427000 309.81700,44.655000 309.91600,45.525000 C 310.03900,46.367000 310.33800,47.062000 310.81100,47.608000 C 311.30500,48.128000 312.10000,48.387000 313.19200,48.387000 C 313.78800,48.387000 314.59400,48.289000 315.61400,48.090000 C 316.62800,47.867000 317.42300,47.754000 317.99500,47.754000 C 318.81300,47.754000 319.54400,48.090000 320.19000,48.760000 C 320.86000,49.406000 321.19600,50.211000 321.19600,51.178000 C 321.19600,52.817000 320.30100,54.071000 318.51400,54.938000 C 316.72900,55.807000 314.15900,56.241000 310.81100,56.243000 C 307.63300,56.243000 305.22700,55.708000 303.58800,54.643000 C 301.95100,53.575000 300.87300,52.098000 300.35200,50.211000 C 299.85400,48.326000 299.60800,45.810000 299.60800,42.657000 L 299.60800,23.153000 L 298.26600,23.153000 C 296.80300,23.153000 295.68400,22.806000 294.91600,22.111000 C 294.14500,21.416000 293.76400,20.537000 293.76400,19.468000 C 293.76400,18.402000 294.15900,17.533000 294.95500,16.863000 C 295.77200,16.169000 296.95000,15.822000 298.48900,15.820000 L 298.48900,15.820000 z "
           id="path5643"
           style="fill:#040404" />
        <g
           id="g5645">
          <path
             knockout="Off"
             d="M 44.580000,24.758000 L 36.690000,11.092000 C 44.684000,7.1430000 53.466000,6.1870000 61.680000,7.8590000 C 61.081000,13.037000 63.531000,18.317000 68.332000,21.088000 C 73.135000,23.861000 78.936000,23.342000 83.121000,20.231000 C 84.813000,22.150000 86.341000,24.264000 87.670000,26.565000 C 90.621000,31.676000 92.282000,37.176000 92.756000,42.690000 L 76.916000,42.608000 C 75.907000,35.844000 71.936000,29.588000 65.552000,25.903000 C 58.893000,22.057000 51.120000,21.885000 44.580000,24.758000 L 44.580000,24.758000 z "
             id="path5647"
             style="fill:#f44800" />
          <path
             knockout="Off"
             d="M 31.023000,77.603000 C 26.723000,74.486000 22.995000,70.435000 20.169000,65.539000 C 18.792000,63.154000 17.696000,60.684000 16.870000,58.168000 C 18.465000,57.070000 19.847000,55.607000 20.880000,53.816000 C 24.522000,47.509000 22.486000,39.485000 16.360000,35.655000 C 18.663000,27.333000 23.717000,19.766000 31.123000,14.439000 L 39.055000,28.178000 C 37.013000,29.881000 35.231000,31.967000 33.824000,34.405000 C 28.092000,44.333000 30.523000,56.734000 39.033000,63.836000 L 31.023000,77.603000 L 31.023000,77.603000 z "
             id="path5649"
             style="fill:#fb8b00" />
          <path
             knockout="Off"
             d="M 61.830000,84.226000 C 53.218000,86.011000 44.315000,84.792000 36.584000,80.960000 L 44.552000,67.265000 C 55.268000,72.015000 68.062000,68.011000 74.055000,57.630000 C 75.620000,54.919000 76.576000,52.025000 76.967000,49.103000 L 92.770000,49.185000 C 92.038000,58.171000 88.204000,66.792000 81.716000,73.382000 C 75.316000,69.896000 67.266000,72.132000 63.601000,78.482000 C 62.552000,80.300000 61.974000,82.263000 61.830000,84.226000 L 61.830000,84.226000 z "
             id="path5651"
             style="fill:#d40000" />
          <path
             knockout="Off"
             d="M 67.299000,80.618000 C 69.841000,76.214000 75.471000,74.706000 79.874000,77.247000 C 84.277000,79.790000 85.786000,85.421000 83.243000,89.823000 C 80.701000,94.225000 75.071000,95.735000 70.669000,93.190000 C 66.266000,90.649000 64.757000,85.021000 67.299000,80.618000 L 67.299000,80.618000 z "
             id="path5653"
             style="fill:#fb8b00" />
          <path
             knockout="Off"
             d="M 67.096000,4.8130000 C 69.638000,0.41000000 75.268000,-1.0980000 79.671000,1.4440000 C 84.074000,3.9860000 85.582000,9.6160000 83.040000,14.019000 C 80.498000,18.421000 74.868000,19.930000 70.465000,17.388000 C 66.062000,14.846000 64.554000,9.2170000 67.096000,4.8130000 L 67.096000,4.8130000 z "
             id="path5655"
             style="fill:#d40000" />
          <path
             knockout="Off"
             d="M 1.2340000,42.469000 C 3.7760000,38.067000 9.4050000,36.559000 13.808000,39.100000 C 18.211000,41.643000 19.720000,47.273000 17.178000,51.673000 C 14.636000,56.077000 9.0060000,57.585000 4.6030000,55.044000 C 0.20000000,52.503000 -1.3080000,46.873000 1.2340000,42.469000 L 1.2340000,42.469000 z "
             id="path5657"
             style="fill:#f44800" />
        </g>
        <g
           knockout="Off"
           id="g5660">
          <path
             knockout="Off"
             d="M 119.21200,85.114000 L 116.56100,85.114000 L 116.56100,69.335000 L 119.21200,69.335000 L 119.21200,85.114000 z "
             id="path5662"
             style="fill:#040404" />
          <path
             knockout="Off"
             d="M 125.08300,71.587000 L 122.43300,71.587000 L 122.43300,69.335000 L 125.08300,69.335000 L 125.08300,71.587000 z M 125.08300,85.114000 L 122.43300,85.114000 L 122.43300,74.069000 L 125.08300,74.069000 L 125.08300,85.114000 z "
             id="path5664"
             style="fill:#040404" />
          <path
             knockout="Off"
             d="M 130.93100,74.069000 L 130.93100,75.731000 L 131.01500,75.731000 C 131.60400,74.110000 132.93000,73.942000 134.48700,73.942000 C 137.39000,73.942000 138.27400,75.141000 138.27400,77.835000 L 138.27400,85.114000 L 135.62300,85.114000 L 135.62300,78.108000 C 135.62300,76.508000 135.26600,75.962000 133.56100,75.962000 C 131.24700,75.962000 130.93100,77.056000 130.93100,79.034000 L 130.93100,85.114000 L 128.28000,85.114000 L 128.28000,74.069000 L 130.93100,74.069000 z "
             id="path5666"
             style="fill:#040404" />
          <path
             knockout="Off"
             d="M 148.87700,85.114000 L 148.87700,83.411000 L 148.79300,83.411000 C 148.18300,84.884000 146.81500,85.241000 145.30100,85.241000 C 143.09200,85.241000 141.61900,84.483000 141.59800,82.063000 L 141.59800,74.069000 L 144.24800,74.069000 L 144.24800,81.032000 C 144.24800,82.610000 144.39500,83.221000 146.10000,83.221000 C 148.14100,83.221000 148.79300,82.358000 148.79300,80.444000 L 148.79300,74.069000 L 151.44300,74.069000 L 151.44300,85.114000 L 148.87700,85.114000 z "
             id="path5668"
             style="fill:#040404" />
          <path
             knockout="Off"
             d="M 160.53400,79.308000 L 164.11000,85.115000 L 160.99700,85.115000 L 158.76700,81.076000 L 156.55800,85.115000 L 153.40200,85.115000 L 157.04300,79.308000 L 153.82300,74.070000 L 156.85300,74.070000 L 158.76700,77.605000 L 160.68100,74.070000 L 163.75300,74.070000 L 160.53400,79.308000 z "
             id="path5670"
             style="fill:#040404" />
          <path
             knockout="Off"
             d="M 180.10000,76.089000 L 177.40700,76.089000 L 177.40700,85.114000 L 174.75700,85.114000 L 174.75700,76.089000 L 173.20000,76.089000 L 173.20000,74.069000 L 174.75700,74.069000 L 174.75700,73.100000 C 174.75700,70.450000 175.38800,69.334000 178.29200,69.334000 L 180.01700,69.334000 L 180.01700,71.354000 L 179.21800,71.354000 C 177.40700,71.292000 177.40700,72.028000 177.40700,73.395000 L 177.40700,74.069000 L 180.10000,74.069000 L 180.10000,76.089000 L 180.10000,76.089000 z "
             id="path5672"
             style="fill:#040404" />
          <path
             knockout="Off"
             d="M 192.28200,79.603000 C 192.28200,83.874000 191.69300,85.242000 187.08600,85.242000 C 182.47800,85.242000 181.89000,83.875000 181.89000,79.603000 C 181.89000,75.310000 182.47800,73.943000 187.08600,73.943000 C 191.69300,73.942000 192.28200,75.310000 192.28200,79.603000 z M 184.54000,79.624000 C 184.54000,82.569000 184.72900,83.222000 187.08600,83.222000 C 189.44300,83.222000 189.63200,82.570000 189.63200,79.624000 C 189.63200,76.636000 189.44300,75.962000 187.08600,75.962000 C 184.72900,75.962000 184.54000,76.636000 184.54000,79.624000 z "
             id="path5674"
             style="fill:#040404" />
          <path
             knockout="Off"
             d="M 197.64700,74.069000 L 197.58400,75.520000 L 197.68900,75.520000 C 198.21500,74.299000 199.35100,73.942000 200.63400,73.942000 C 202.97000,73.942000 203.53700,75.331000 203.53700,77.415000 L 203.53700,78.298000 L 201.05500,78.298000 L 201.05500,77.730000 C 201.05500,76.615000 200.95000,75.962000 199.70800,75.962000 C 198.13000,75.962000 197.66700,76.868000 197.70900,78.298000 L 197.70900,85.114000 L 195.05900,85.114000 L 195.05900,74.069000 L 197.64700,74.069000 z "
             id="path5676"
             style="fill:#040404" />
          <path
             knockout="Off"
             d="M 216.68700,75.731000 L 216.77200,75.731000 C 217.36100,74.110000 218.68600,73.942000 220.24300,73.942000 C 223.14600,73.942000 224.03000,75.141000 224.03000,77.835000 L 224.03000,85.114000 L 221.38000,85.114000 L 221.38000,78.108000 C 221.38000,76.508000 221.02300,75.962000 219.31800,75.962000 C 217.00500,75.962000 216.68800,77.056000 216.68800,79.034000 L 216.68800,85.114000 L 214.03800,85.114000 L 214.03800,69.335000 L 216.68800,69.335000 L 216.68800,75.731000 L 216.68700,75.731000 z "
             id="path5678"
             style="fill:#040404" />
          <path
             knockout="Off"
             d="M 234.63300,85.114000 L 234.63300,83.411000 L 234.54900,83.411000 C 233.93900,84.884000 232.57100,85.241000 231.05700,85.241000 C 228.84700,85.241000 227.37400,84.483000 227.35400,82.063000 L 227.35400,74.069000 L 230.00400,74.069000 L 230.00400,81.032000 C 230.00400,82.610000 230.15100,83.221000 231.85600,83.221000 C 233.89700,83.221000 234.54900,82.358000 234.54900,80.444000 L 234.54900,74.069000 L 237.20000,74.069000 L 237.20000,85.114000 L 234.63300,85.114000 z "
             id="path5680"
             style="fill:#040404" />
          <path
             knockout="Off"
             d="M 243.15500,74.069000 L 243.15500,75.669000 L 243.23900,75.669000 C 243.82800,74.259000 245.32200,73.942000 246.71100,73.942000 C 248.10000,73.942000 249.69800,74.299000 249.99300,75.899000 L 250.07700,75.899000 C 250.58200,74.364000 252.09700,73.942000 253.56900,73.942000 C 256.43000,73.942000 257.37800,74.930000 257.37800,77.645000 L 257.37800,85.114000 L 254.72700,85.114000 L 254.72700,77.897000 C 254.66500,76.508000 254.32800,75.961000 252.87500,75.961000 C 250.72900,75.961000 250.30900,76.930000 250.30900,78.887000 L 250.30900,85.114000 L 247.65800,85.114000 L 247.65800,77.897000 C 247.59600,76.508000 247.25900,75.961000 245.80600,75.961000 C 243.66000,75.961000 243.24000,76.930000 243.24000,78.887000 L 243.24000,85.114000 L 240.58900,85.114000 L 240.58900,74.069000 L 243.15500,74.069000 z "
             id="path5682"
             style="fill:#040404" />
          <path
             knockout="Off"
             d="M 267.95900,83.726000 L 267.89700,83.726000 C 267.37100,85.199000 265.75100,85.242000 264.46700,85.242000 C 261.96300,85.242000 260.34300,84.717000 260.34300,81.728000 C 260.34300,79.078000 261.73200,78.341000 264.46700,78.341000 C 265.81400,78.341000 267.13900,78.361000 267.77100,79.603000 L 267.85500,79.603000 L 267.85500,78.171000 C 267.85500,76.384000 267.70800,75.753000 265.49900,75.753000 C 264.34200,75.753000 263.41600,75.857000 263.41600,77.288000 L 260.76500,77.288000 C 260.76500,74.069000 262.97400,73.942000 265.49900,73.942000 C 269.03300,73.942000 270.50600,74.489000 270.50600,78.192000 L 270.50600,85.114000 L 267.85600,85.114000 L 267.95900,83.726000 z M 262.99500,81.728000 C 262.99500,83.285000 263.62600,83.431000 265.41500,83.431000 C 266.82400,83.431000 267.85500,83.306000 267.85500,81.728000 C 267.85500,80.193000 266.71800,80.150000 265.41500,80.150000 C 264.06800,80.149000 262.99500,80.149000 262.99500,81.728000 z "
             id="path5684"
             style="fill:#040404" />
          <path
             knockout="Off"
             d="M 276.52300,74.069000 L 276.52300,75.731000 L 276.60800,75.731000 C 277.19700,74.110000 278.52200,73.942000 280.07900,73.942000 C 282.98200,73.942000 283.86600,75.141000 283.86600,77.835000 L 283.86600,85.114000 L 281.21600,85.114000 L 281.21600,78.108000 C 281.21600,76.508000 280.85900,75.962000 279.15400,75.962000 C 276.84100,75.962000 276.52400,77.056000 276.52400,79.034000 L 276.52400,85.114000 L 273.87400,85.114000 L 273.87400,74.069000 L 276.52300,74.069000 z "
             id="path5686"
             style="fill:#040404" />
          <path
             knockout="Off"
             d="M 295.24900,69.335000 L 297.89900,69.335000 L 297.89900,75.542000 L 298.00400,75.542000 C 298.57200,74.194000 299.98200,73.942000 301.32800,73.942000 C 305.11500,73.942000 305.55700,76.026000 305.55700,79.266000 C 305.55700,82.653000 305.43100,85.241000 301.32800,85.241000 C 299.77100,85.241000 298.55100,84.905000 297.87800,83.452000 L 297.79300,83.452000 L 297.89800,85.114000 L 295.24800,85.114000 L 295.24800,69.335000 L 295.24900,69.335000 z M 297.89900,79.267000 C 297.89900,81.896000 297.83700,83.222000 300.55000,83.222000 C 302.96900,83.222000 302.90600,81.769000 302.90600,79.267000 C 302.90600,76.490000 302.38000,75.962000 300.55000,75.962000 C 298.25600,75.962000 297.89900,76.909000 297.89900,79.267000 z "
             id="path5688"
             style="fill:#040404" />
          <path
             knockout="Off"
             d="M 318.39200,81.601000 C 318.39200,85.074000 316.39300,85.242000 313.23800,85.242000 C 309.00900,85.242000 308.14600,83.894000 308.14600,79.625000 C 308.14600,75.670000 308.77700,73.943000 313.23800,73.943000 C 317.78200,73.943000 318.39200,75.269000 318.39200,80.088000 L 310.79600,80.088000 C 310.79600,82.465000 310.85900,83.223000 313.23700,83.223000 C 314.71000,83.223000 315.74000,83.244000 315.74000,81.602000 L 318.39200,81.602000 L 318.39200,81.601000 z M 315.74100,78.403000 C 315.74100,76.132000 315.40500,75.962000 313.23800,75.962000 C 310.94400,75.962000 310.79700,76.446000 310.79700,78.403000 L 315.74100,78.403000 z "
             id="path5690"
             style="fill:#040404" />
          <path
             knockout="Off"
             d="M 323.79900,71.587000 L 321.14800,71.587000 L 321.14800,69.335000 L 323.79900,69.335000 L 323.79900,71.587000 z M 323.79900,85.114000 L 321.14800,85.114000 L 321.14800,74.069000 L 323.79900,74.069000 L 323.79900,85.114000 z "
             id="path5692"
             style="fill:#040404" />
          <path
             knockout="Off"
             d="M 329.64700,74.069000 L 329.64700,75.731000 L 329.73200,75.731000 C 330.32100,74.110000 331.64600,73.942000 333.20300,73.942000 C 336.10600,73.942000 336.99000,75.141000 336.99000,77.835000 L 336.99000,85.114000 L 334.34000,85.114000 L 334.34000,78.108000 C 334.34000,76.508000 333.98200,75.962000 332.27800,75.962000 C 329.96500,75.962000 329.64800,77.056000 329.64800,79.034000 L 329.64800,85.114000 L 326.99800,85.114000 L 326.99800,74.069000 L 329.64700,74.069000 z "
             id="path5694"
             style="fill:#040404" />
          <path
             knockout="Off"
             d="M 347.63600,83.536000 L 347.57400,83.536000 C 346.88000,84.989000 345.47000,85.241000 344.12300,85.241000 C 340.33600,85.241000 339.89400,83.157000 339.89400,79.919000 C 339.89400,76.530000 340.02000,73.942000 344.12300,73.942000 C 345.68100,73.942000 346.90000,74.280000 347.57400,75.731000 L 347.65800,75.731000 L 347.55300,74.069000 L 350.20400,74.069000 L 350.20400,85.092000 C 350.20400,89.069000 348.94100,90.016000 344.90100,90.016000 C 342.20900,90.016000 340.18800,89.553000 340.35700,86.250000 L 342.83900,86.250000 C 342.83900,87.766000 343.40700,87.996000 344.90100,87.996000 C 347.15300,87.996000 347.63600,87.533000 347.63600,85.641000 L 347.63600,83.536000 L 347.63600,83.536000 z M 342.54400,79.267000 C 342.54400,81.769000 342.54400,83.222000 344.90000,83.222000 C 347.55100,83.222000 347.55100,81.896000 347.55100,79.267000 C 347.55100,76.910000 347.19400,75.962000 344.90000,75.962000 C 343.07100,75.962000 342.54400,76.489000 342.54400,79.267000 z "
             id="path5696"
             style="fill:#040404" />
          <path
             knockout="Off"
             d="M 360.25900,77.077000 C 360.25900,75.753000 359.56500,75.753000 358.15500,75.753000 C 356.74500,75.753000 355.77700,75.753000 355.77700,77.204000 C 355.77700,78.298000 356.07200,78.341000 358.38600,78.444000 C 360.99400,78.571000 363.30900,78.382000 363.30900,81.958000 C 363.30900,84.946000 360.95300,85.241000 358.15500,85.241000 C 355.14600,85.241000 353.12700,85.241000 353.12700,81.643000 L 355.77700,81.643000 C 355.82000,83.243000 356.19800,83.430000 358.15500,83.430000 C 359.73300,83.430000 360.65900,83.473000 360.65900,81.957000 C 360.65900,80.990000 360.59600,80.506000 357.92400,80.465000 C 353.86300,80.401000 353.12700,79.854000 353.12700,77.035000 C 353.12700,74.006000 355.31500,73.941000 358.15500,73.941000 C 360.32200,73.941000 362.91000,73.984000 362.91000,77.076000 L 360.25900,77.076000 L 360.25900,77.077000 z "
             id="path5698"
             style="fill:#040404" />
        </g>
      </g>
    </g>
    <g
       transform="matrix(2.504399,0.000000,0.000000,2.417594,92.27167,540.0525)"
       id="g1456"
       style="opacity:0.14893617;">
      <path
         id="path1291"
         d="M 77.649246,-227.84840 C 54.127376,-227.84840 31.948506,-222.30119 12.149246,-212.62965 L 37.180496,-169.22340 C 49.565386,-174.72206 63.232836,-177.84840 77.649246,-177.84840 C 129.40977,-177.84840 172.00818,-138.45591 177.11800,-88.035903 L 227.11800,-88.035903 C 224.46103,-127.13724 206.88115,-162.11573 179.93050,-187.31715 C 173.70514,-181.62466 165.49320,-178.03590 156.39925,-178.03590 C 137.07925,-178.03590 121.39925,-193.71590 121.39925,-213.03590 C 121.39925,-215.79497 121.79475,-218.46037 122.39925,-221.03590 C 108.26424,-225.45303 93.233576,-227.84840 77.649246,-227.84840 z "
         style="fill:#f65a00;fill-opacity:1.0000000;stroke-width:20.000000;stroke-linecap:round;stroke-linejoin:round;stroke-miterlimit:0.0000000;" />
      <path
         id="path7512"
         d="M 1.5554955,-206.91090 C -31.346169,-187.41044 -56.226044,-155.78664 -66.725754,-118.09840 C -51.202182,-114.51671 -39.600754,-100.64246 -39.600754,-84.035903 C -39.600754,-66.435903 -52.646860,-51.992313 -69.569504,-49.535903 C -61.613551,-7.9800634 -36.466166,27.404097 -1.8820045,49.151597 L 23.086746,5.8703466 C -4.2454575,-11.984513 -22.350754,-42.787773 -22.350754,-77.848403 C -22.350754,-114.35186 -2.7106015,-146.23292 26.524246,-163.69215 L 1.5554955,-206.91090 z "
         style="fill:#fc9a00;fill-opacity:1.0000000;stroke-width:20.000000;stroke-linecap:round;stroke-linejoin:round;stroke-miterlimit:0.0000000;" />
      <path
         id="path7510"
         d="M 177.55550,-76.035903 C 176.57742,-21.680023 132.23733,22.151597 77.649246,22.151597 C 61.791186,22.151597 46.850016,18.355827 33.524246,11.776597 L 8.5242455,55.089097 C 29.222946,65.897397 52.683606,72.151597 77.649246,72.151597 C 96.766146,72.151597 114.98680,68.430797 131.80550,61.901597 C 130.30381,58.001697 129.39925,53.797097 129.39925,49.370397 C 129.39925,30.050297 145.07925,14.370347 164.39925,14.370347 C 173.47569,14.370347 181.67795,17.916107 187.89925,23.589097 C 212.11277,-2.7146734 227.09067,-37.604843 227.55550,-76.035903 L 177.55550,-76.035903 z "
         style="fill:#db0000;fill-opacity:1.0000000;stroke-width:20.000000;stroke-linecap:round;stroke-linejoin:round;stroke-miterlimit:0.0000000;" />
      <path
         transform="translate(-93.74365,-464.2680)"
         sodipodi:type="arc"
         style="fill:#db0000;fill-opacity:1.0000000;stroke-width:20.000000;stroke-linecap:round;stroke-linejoin:round;stroke-miterlimit:0.0000000;"
         id="path2815"
         d="M 275.00000 250.00000 A 25.000000 25.000000 0 1 1  225.00000,250.00000 A 25.000000 25.000000 0 1 1  275.00000 250.00000 z"
         sodipodi:rx="25.000000"
         sodipodi:ry="25.000000"
         sodipodi:cy="250.00000"
         sodipodi:cx="250.00000" />
      <path
         transform="translate(-327.6008,-333.0487)"
         sodipodi:type="arc"
         style="fill:#f65a00;fill-opacity:1.0000000;stroke-width:20.000000;stroke-linecap:round;stroke-linejoin:round;stroke-miterlimit:0.0000000;"
         id="path2055"
         d="M 275.00000 250.00000 A 25.000000 25.000000 0 1 1  225.00000,250.00000 A 25.000000 25.000000 0 1 1  275.00000 250.00000 z"
         sodipodi:rx="25.000000"
         sodipodi:ry="25.000000"
         sodipodi:cy="250.00000"
         sodipodi:cx="250.00000" />
      <path
         transform="translate(-86.60075,-201.0487)"
         sodipodi:type="arc"
         style="fill:#fc9a00;fill-opacity:1.0000000;stroke-width:20.000000;stroke-linecap:round;stroke-linejoin:round;stroke-miterlimit:0.0000000;"
         id="path2816"
         d="M 275.00000 250.00000 A 25.000000 25.000000 0 1 1  225.00000,250.00000 A 25.000000 25.000000 0 1 1  275.00000 250.00000 z"
         sodipodi:rx="25.000000"
         sodipodi:ry="25.000000"
         sodipodi:cy="250.00000"
         sodipodi:cx="250.00000" />
    </g>
    <text
       xml:space="preserve"
       style="font-size:16.000000;font-style:normal;font-variant:normal;font-weight:normal;font-stretch:normal;fill:#000000;fill-opacity:1.0000000;stroke:none;stroke-width:1.0000000pt;stroke-linecap:butt;stroke-linejoin:miter;stroke-opacity:1.0000000;font-family:Bitstream Vera Sans;text-anchor:end;writing-mode:lr"
       x="38.75"
       y="665"
       id="text1340"
       transform="translate(678.6975,-567.4606)"
       sodipodi:linespacing="100%"><tspan
         sodipodi:role="line"
         id="tspan1341"
         x="38.750000"
         y="665.00000">Ubuntu is an operating system consisting</tspan><tspan
         sodipodi:role="line"
         id="tspan1397"
         x="38.750000"
         y="681.00000">entirely of free and open source software.</tspan><tspan
         sodipodi:role="line"
         id="tspan1409"
         x="38.750000"
         y="697.00000">With Ubuntu, you can surf the web, read</tspan><tspan
         sodipodi:role="line"
         id="tspan1421"
         x="38.750000"
         y="713.00000">email, create documents, spreadsheets</tspan><tspan
         sodipodi:role="line"
         id="tspan1433"
         x="38.750000"
         y="729.00000">and more! Ubuntu gives you power and</tspan><tspan
         sodipodi:role="line"
         id="tspan1445"
         x="38.750000"
         y="745.00000">flexibility for business and education, at</tspan><tspan
         sodipodi:role="line"
         id="tspan1457"
         x="38.750000"
         y="761.00000">home or in the office.</tspan><tspan
         sodipodi:role="line"
         id="tspan1469"
         x="38.750000"
         y="777.00000"></tspan><tspan
         sodipodi:role="line"
         id="tspan1481"
         x="38.750000"
         y="793.00000">Ubuntu is easy to install, free of viruses,</tspan><tspan
         sodipodi:role="line"
         id="tspan1493"
         x="38.750000"
         y="809.00000">and perfect for laptops, desktops and</tspan><tspan
         sodipodi:role="line"
         id="tspan1505"
         x="38.750000"
         y="825.00000">servers. Ubuntu is community developed,</tspan><tspan
         sodipodi:role="line"
         id="tspan1517"
         x="38.750000"
         y="841.00000">commercially supported, and offers free</tspan><tspan
         sodipodi:role="line"
         id="tspan1529"
         x="38.750000"
         y="857.00000">security updates. A new version is</tspan><tspan
         sodipodi:role="line"
         id="tspan1541"
         x="38.750000"
         y="873.00000">released every six months.</tspan><tspan
         sodipodi:role="line"
         id="tspan1553"
         x="38.750000"
         y="889.00000"></tspan><tspan
         sodipodi:role="line"
         id="tspan1565"
         x="38.750000"
         y="905.00000">&quot;Ubuntu&quot; is an ancient African word that</tspan><tspan
         sodipodi:role="line"
         id="tspan1600"
         x="38.750000"
         y="921.00000">means &quot;humanity towards others&quot;. It</tspan><tspan
         sodipodi:role="line"
         id="tspan1612"
         x="38.750000"
         y="937.00000">embodies the spirit of open source</tspan><tspan
         sodipodi:role="line"
         id="tspan1624"
         x="38.750000"
         y="953.00000">software, which is built by the best</tspan><tspan
         sodipodi:role="line"
         id="tspan1636"
         x="38.750000"
         y="969.00000">software practitioners for the benefit</tspan><tspan
         sodipodi:role="line"
         id="tspan1671"
         x="38.750000"
         y="985.00000">of all humanity. </tspan></text>
    <text
       xml:space="preserve"
       style="font-size:34.000000;font-style:normal;font-variant:normal;font-weight:bold;font-stretch:normal;fill:#a90000;fill-opacity:1.0000000;stroke:none;stroke-width:1.0000000pt;stroke-linecap:butt;stroke-linejoin:miter;stroke-opacity:1.0000000;font-family:Bitstream Vera Sans;text-anchor:start;writing-mode:lr;"
       x="446.14481"
       y="373.25705"
       id="text1683"
       sodipodi:linespacing="100%"
       transform="translate(-43.78537,-312.4228)"><tspan
         sodipodi:role="line"
         id="tspan1684"
         x="446.14481"
         y="373.25705">What is Ubuntu?</tspan></text>
    <g
       id="g5826"
       transform="translate(0.000000,-17.50000)">
      <rect
         style="fill:#ffa43e;fill-opacity:1.0000000;fill-rule:evenodd;stroke:#000000;stroke-width:3.0174990;stroke-miterlimit:4.0000000;stroke-opacity:1.0000000"
         id="rect5699"
         width="314.13733"
         height="339.71472"
         x="402.25461"
         y="488.85248" />
      <text
         xml:space="preserve"
         style="font-size:13.000000;font-style:normal;font-variant:normal;font-weight:normal;font-stretch:normal;fill:#000000;fill-opacity:1.0000000;stroke:none;stroke-width:1.0000000pt;stroke-linecap:butt;stroke-linejoin:miter;stroke-opacity:1.0000000;font-family:Bitstream Vera Sans;text-anchor:start;writing-mode:lr"
         x="420.94501"
         y="535.6731"
         id="text5700"
         sodipodi:linespacing="100%"
         transform="translate(-4.192920,4.354330)"><tspan
           sodipodi:role="line"
           id="tspan5701"
           x="420.94501"
           y="535.67310">x86 Edition:</tspan><tspan
           sodipodi:role="line"
           id="tspan5703"
           x="420.94501"
           y="548.67310">Intel Pentium</tspan><tspan
           sodipodi:role="line"
           id="tspan5741"
           x="420.94501"
           y="561.67310">AMD Athlon</tspan><tspan
           sodipodi:role="line"
           id="tspan5705"
           x="420.94501"
           y="574.67310"></tspan><tspan
           sodipodi:role="line"
           id="tspan5711"
           x="420.94501"
           y="587.67310">PowerPC Edition:</tspan><tspan
           sodipodi:role="line"
           id="tspan5713"
           x="420.94501"
           y="600.67310">G3, G4 &amp; G5 Apple Macs</tspan><tspan
           sodipodi:role="line"
           id="tspan5715"
           x="420.94501"
           y="613.67310">Apple iBooks and Powerbooks</tspan><tspan
           sodipodi:role="line"
           id="tspan5717"
           x="420.94501"
           y="626.67310"></tspan><tspan
           sodipodi:role="line"
           id="tspan5723"
           x="420.94501"
           y="639.67310">AMD64/EM64T Edition:</tspan><tspan
           sodipodi:role="line"
           id="tspan5725"
           x="420.94501"
           y="652.67310">Athlon64</tspan><tspan
           sodipodi:role="line"
           id="tspan5745"
           x="420.94501"
           y="665.67310">Opteron</tspan><tspan
           sodipodi:role="line"
           id="tspan5743"
           x="420.94501"
           y="678.67310">EM64T Intel Xeon</tspan><tspan
           sodipodi:role="line"
           id="tspan5727"
           x="420.94501"
           y="691.67310"></tspan><tspan
           sodipodi:role="line"
           id="tspan5747"
           x="420.94501"
           y="704.67310">Live CD Requirements:</tspan><tspan
           sodipodi:role="line"
           id="tspan5751"
           x="420.94501"
           y="717.67310">128MB RAM</tspan><tspan
           sodipodi:role="line"
           id="tspan5760"
           x="420.94501"
           y="730.67310">CD-ROM Drive</tspan><tspan
           sodipodi:role="line"
           id="tspan5749"
           x="420.94501"
           y="743.67310"></tspan><tspan
           sodipodi:role="line"
           id="tspan5758"
           x="420.94501"
           y="756.67310">Install CD Requirements:</tspan><tspan
           sodipodi:role="line"
           id="tspan5756"
           x="420.94501"
           y="769.67310">128MB RAM</tspan><tspan
           sodipodi:role="line"
           id="tspan5763"
           x="420.94501"
           y="782.67310">CD-ROM Drive</tspan><tspan
           sodipodi:role="line"
           id="tspan5729"
           x="420.94501"
           y="795.67310">1.8GB hard disk space for desktop install</tspan><tspan
           sodipodi:role="line"
           id="tspan5739"
           x="420.94501"
           y="808.67310">350MB for minimal custom installation</tspan></text>
      <text
         xml:space="preserve"
         style="font-size:20.000000;font-style:normal;font-variant:normal;font-weight:bold;font-stretch:normal;fill:#000000;fill-opacity:1.0000000;stroke:none;stroke-width:1.0000000pt;stroke-linecap:butt;stroke-linejoin:miter;stroke-opacity:1.0000000;font-family:Bitstream Vera Sans;text-anchor:start;writing-mode:lr"
         x="424.45288"
         y="500.59433"
         id="text5765"
         sodipodi:linespacing="100%"
         transform="translate(12.50000,12.50000)"><tspan
           sodipodi:role="line"
           id="tspan5766"
           x="424.45288"
           y="500.59433">System Requirements</tspan></text>
    </g>
    <text
       xml:space="preserve"
       style="font-size:18.000000;font-style:normal;font-variant:normal;font-weight:normal;font-stretch:normal;fill:#000000;fill-opacity:1.0000000;stroke:none;stroke-width:1.0000000pt;stroke-linecap:butt;stroke-linejoin:miter;stroke-opacity:1.0000000;font-family:Bitstream Vera Sans;text-anchor:start;writing-mode:lr"
       x="40.102905"
       y="398.32138"
       id="text1273"
       sodipodi:linespacing="100%"
       transform="translate(0.000000,-55.00000)"><tspan
         sodipodi:role="line"
         id="tspan1274"
         x="40.102905"
         y="398.32138">Linux Kernel 2.6</tspan><tspan
         sodipodi:role="line"
         id="tspan1276"
         x="40.102905"
         y="416.32138"></tspan><tspan
         sodipodi:role="line"
         id="tspan1278"
         x="40.102905"
         y="434.32138">GNOME 2.10</tspan><tspan
         sodipodi:role="line"
         id="tspan1280"
         x="40.102905"
         y="452.32138"></tspan><tspan
         sodipodi:role="line"
         id="tspan1282"
         x="40.102905"
         y="470.32138">KDE 3.4</tspan><tspan
         sodipodi:role="line"
         id="tspan1379"
         x="40.102905"
         y="488.32138"></tspan><tspan
         sodipodi:role="line"
         id="tspan1381"
         x="40.102905"
         y="506.32138">X.org</tspan><tspan
         sodipodi:role="line"
         id="tspan1288"
         x="40.102905"
         y="524.32138"></tspan><tspan
         sodipodi:role="line"
         id="tspan1290"
         x="40.102905"
         y="542.32138">OpenOffice.org Suite</tspan><tspan
         sodipodi:role="line"
         id="tspan1309"
         x="40.102905"
         y="560.32138"></tspan><tspan
         sodipodi:role="line"
         id="tspan1311"
         x="40.102905"
         y="578.32138">Evolution Groupware Client</tspan><tspan
         sodipodi:role="line"
         id="tspan1292"
         x="40.102905"
         y="596.32138"></tspan><tspan
         sodipodi:role="line"
         id="tspan1294"
         x="40.102905"
         y="614.32138">Firefox 1.02</tspan><tspan
         sodipodi:role="line"
         id="tspan1313"
         x="40.102905"
         y="632.32138"></tspan><tspan
         sodipodi:role="line"
         id="tspan1315"
         x="40.102905"
         y="650.32138">GIMP Image Editor</tspan><tspan
         sodipodi:role="line"
         id="tspan1383"
         x="40.102905"
         y="668.32138"></tspan><tspan
         sodipodi:role="line"
         id="tspan1385"
         x="40.102905"
         y="686.32138">&quot;Totally Rad Laptop Support&quot;</tspan><tspan
         sodipodi:role="line"
         id="tspan1317"
         x="40.102905"
         y="704.32138"></tspan><tspan
         sodipodi:role="line"
         id="tspan1319"
         x="40.102905"
         y="722.32138">Support for 3 major architectures:</tspan><tspan
         sodipodi:role="line"
         id="tspan1344"
         x="40.102905"
         y="740.32138"></tspan><tspan
         sodipodi:role="line"
         id="tspan1352"
         x="40.102905"
         y="758.32138">    Intel x86</tspan><tspan
         sodipodi:role="line"
         id="tspan1346"
         x="40.102905"
         y="776.32138"></tspan><tspan
         sodipodi:role="line"
         id="tspan1354"
         x="40.102905"
         y="794.32138">    PowerPC G3, G4 &amp; G5</tspan><tspan
         sodipodi:role="line"
         id="tspan1348"
         x="40.102905"
         y="812.32138">    including Apple iBooks &amp;</tspan><tspan
         sodipodi:role="line"
         id="tspan1350"
         x="40.102905"
         y="830.32138">    Powerbooks</tspan><tspan
         sodipodi:role="line"
         id="tspan1356"
         x="40.102905"
         y="848.32138"></tspan><tspan
         sodipodi:role="line"
         id="tspan1358"
         x="40.102905"
         y="866.32138">    AMD64/EM64T</tspan><tspan
         sodipodi:role="line"
         id="tspan1364"
         x="40.102905"
         y="884.32138"></tspan><tspan
         sodipodi:role="line"
         id="tspan1366"
         x="40.102905"
         y="902.32138">Live CD &amp; Install CD</tspan><tspan
         sodipodi:role="line"
         id="tspan1296"
         x="40.102905"
         y="920.32138"></tspan><tspan
         sodipodi:role="line"
         id="tspan1298"
         x="40.102905"
         y="938.32138">Free CD offer at</tspan><tspan
         sodipodi:role="line"
         id="tspan1300"
         x="40.102905"
         y="956.32138">http://shipit.ubuntulinux.org</tspan><tspan
         sodipodi:role="line"
         id="tspan1284"
         x="40.102905"
         y="974.32138"></tspan><tspan
         sodipodi:role="line"
         id="tspan1286"
         x="40.102905"
         y="992.32138"></tspan></text>
  </g>
  <text
     xml:space="preserve"
     style="font-size:28.000000;font-style:normal;font-variant:normal;font-weight:bold;font-stretch:normal;fill:#a90000;fill-opacity:1.0000000;stroke:none;stroke-width:1.0000000pt;stroke-linecap:butt;stroke-linejoin:miter;stroke-opacity:1.0000000;font-family:Bitstream Vera Sans;text-anchor:start;writing-mode:lr"
     x="43.862553"
     y="335.66061"
     id="text1270"
     sodipodi:linespacing="100%"
     transform="translate(-20.07075,-28.79180)"><tspan
       sodipodi:role="line"
       id="tspan1271"
       x="43.862553"
       y="335.66061">Ubuntu Key Features</tspan></text>
  <image
     xlink:href="ubuntu_conference_brochure_A4_pics/ubuntu1.png"
     sodipodi:absref="/home/jsg/ubuntu-docs/artwork/ubuntu_conference_brochure_A4_pics/ubuntu1.png"
     width="350.00000"
     height="232.50000"
     id="image1355"
     x="22.500000"
     y="40.000000" />
</svg>
