<?xml version="1.0" encoding="UTF-8" standalone="no"?>
<svg
   xmlns:dc="http://purl.org/dc/elements/1.1/"
   xmlns:cc="http://web.resource.org/cc/"
   xmlns:rdf="http://www.w3.org/1999/02/22-rdf-syntax-ns#"
   xmlns:svg="http://www.w3.org/2000/svg"
   xmlns="http://www.w3.org/2000/svg"
   xmlns:sodipodi="http://inkscape.sourceforge.net/DTD/sodipodi-0.dtd"
   xmlns:inkscape="http://www.inkscape.org/namespaces/inkscape"
   sodipodi:docbase="/home/sean/projects/ubuntu/trunk/artwork"
   sodipodi:docname="ubuntu.svg"
   inkscape:version="0.41"
   sodipodi:version="0.32"
   id="svg1204"
   height="110.00000pt"
   width="500.00000pt">
  <defs
     id="defs1230" />
  <metadata
     id="metadata1229">
    <rdf:RDF
       id="RDF1231">
      <cc:Work
         id="Work1232"
         rdf:about="">
        <dc:format
           id="format1233">image/svg+xml</dc:format>
        <dc:type
           rdf:resource="http://purl.org/dc/dcmitype/StillImage"
           id="type1235" />
      </cc:Work>
    </rdf:RDF>
  </metadata>
  <sodipodi:namedview
     inkscape:current-layer="svg1204"
     inkscape:window-y="0"
     inkscape:window-x="0"
     inkscape:window-height="948"
     inkscape:window-width="1276"
     inkscape:cy="70.210707"
     inkscape:cx="259.33027"
     inkscape:zoom="1.3444868"
     inkscape:pageshadow="2"
     inkscape:pageopacity="0.0"
     borderopacity="1.0"
     bordercolor="#666666"
     pagecolor="#ffffff"
     id="base" />
<!-- Ubuntu final logo converted by ill2svg.pl -->  <g
     transform="translate(-59.50226,2.231335)"
     id="g1471">
    <path
       d="M 548.59227,53.234676 C 548.59227,50.244328 549.20788,48.044942 550.61567,46.549460 C 551.93398,45.142270 553.69371,44.350690 555.89251,44.350690 C 558.17957,44.350690 559.93930,45.142280 561.34590,46.549460 C 562.66541,48.044942 563.36930,50.244317 563.36930,53.234676 L 563.36930,72.498141 C 563.36930,77.952145 563.72126,81.734083 564.51343,83.844572 C 565.21613,85.956271 566.44854,87.627710 568.11880,88.770651 C 569.79025,90.001863 571.81364,90.617485 574.27609,90.617485 C 576.73972,90.617485 578.76312,90.001863 580.43338,88.858943 C 582.10483,87.714823 583.42433,85.956271 584.21652,83.757490 C 584.83214,81.997759 585.18408,78.479475 585.18408,72.937784 L 585.18408,53.147000 C 585.18408,50.156046 585.79969,48.044953 587.11919,46.549481 C 588.43869,45.054594 590.19724,44.350701 592.39602,44.350701 C 594.68308,44.350701 596.44282,45.054594 597.76232,46.549481 C 599.16892,48.044953 599.87281,50.244328 599.87281,53.147000 L 599.87281,69.067554 C 599.87281,79.271649 599.08183,86.219925 597.41037,90.001863 C 595.47526,94.575997 592.57259,98.094270 588.70236,100.55792 C 584.91922,103.02036 580.08143,104.16448 574.18900,104.16448 C 567.76804,104.16448 562.57831,102.75670 558.61979,99.942314 C 554.66128,97.039631 551.93398,93.081130 550.26373,87.979677 C 549.11961,84.373112 548.59228,77.952156 548.59228,68.627932 L 548.59228,53.234676"
       style="fill:#122a3d;fill-rule:evenodd"
       id="path71" />
    <path
       d="M 434.94664,95.368160 C 434.94664,98.359114 435.56225,100.55790 436.88175,101.96449 C 438.28953,103.46057 440.04809,104.16446 442.24805,104.16446 C 444.44682,104.16446 446.29366,103.46057 447.61316,101.96449 C 449.02095,100.46961 449.72485,98.270832 449.72485,95.368160 L 449.72485,76.104111 C 449.72485,70.650712 450.07561,66.868774 450.86779,64.669399 C 451.57168,62.558316 452.80291,60.887461 454.38608,59.743925 C 456.14581,58.600389 458.16801,57.984788 460.63164,57.984788 C 463.00580,57.984788 465.11749,58.512108 466.78894,59.655644 C 468.46038,60.887461 469.77989,62.558327 470.57088,64.845388 C 471.18649,66.516828 471.45015,70.123403 471.45015,75.576802 L 471.45015,95.455273 C 471.45015,98.359135 472.15405,100.55792 473.47355,101.96451 C 474.79305,103.46059 476.55280,104.16448 478.75157,104.16448 C 480.95034,104.16448 482.79717,103.46059 484.11667,101.96451 C 485.52447,100.55792 486.14008,98.359146 486.14008,95.455273 L 486.14008,79.447022 C 486.14008,69.331803 485.34790,62.294651 483.76473,58.600399 C 481.82961,54.026277 478.92694,50.508003 475.05671,48.044953 C 471.27477,45.581924 466.34869,44.350690 460.45506,44.350690 C 454.12240,44.350690 448.93265,45.757891 444.97413,48.660554 C 441.01563,51.475540 438.20123,55.521738 436.61807,60.623190 C 435.47513,64.142069 434.94662,70.563026 434.94662,79.887239 L 434.94662,95.368160"
       style="fill:#122a3d;fill-rule:evenodd"
       id="path73" />
    <path
       d="M 367.92032,53.234676 C 367.92032,50.244328 368.53712,48.044942 369.85543,46.549460 C 371.26322,45.142270 373.02295,44.350690 375.22174,44.350690 C 377.42052,44.350690 379.26734,45.142280 380.67514,46.549460 C 381.99464,48.044942 382.69853,50.244317 382.69853,53.234676 L 382.69853,72.498141 C 382.69853,77.952145 383.05049,81.734083 383.84148,83.844572 C 384.54537,85.956271 385.77658,87.627710 387.44804,88.770651 C 389.11949,90.001863 391.14289,90.617485 393.60533,90.617485 C 395.98069,90.617485 398.09119,90.001863 399.76264,88.858943 C 401.43407,87.714823 402.75359,85.956271 403.54457,83.757490 C 404.16018,81.997759 404.42503,78.479475 404.42503,72.937784 L 404.42503,53.147000 C 404.42503,50.156046 405.12774,48.044953 406.44724,46.549481 C 407.76674,45.054594 409.52648,44.350701 411.72525,44.350701 C 413.92402,44.350701 415.77205,45.054594 417.09036,46.549481 C 418.49814,48.044953 419.11377,50.244328 419.11377,53.147000 L 419.11377,69.067554 C 419.11377,79.271649 418.32278,86.219925 416.73960,90.001863 C 414.80450,94.575997 411.90062,98.094270 408.03039,100.55792 C 404.24846,103.02036 399.41067,104.16448 393.42994,104.16448 C 387.09608,104.16448 381.90634,102.75670 377.94902,99.942314 C 373.99051,97.039631 371.17493,93.081130 369.59176,87.979677 C 368.44882,84.373112 367.92031,77.952156 367.92031,68.627932 L 367.92031,53.234676"
       style="fill:#122a3d;fill-rule:evenodd"
       id="path75" />
    <path
       d="M 235.36437,53.234676 C 235.36437,50.244328 236.06767,48.044942 237.38717,46.549460 C 238.70669,45.142270 240.46582,44.350690 242.66519,44.350690 C 244.95226,44.350690 246.71139,45.142280 248.11860,46.549460 C 249.43810,48.044942 250.14140,50.244317 250.14140,53.146990 L 250.14140,72.498130 C 250.14140,77.952134 250.58163,81.734073 251.28493,83.844561 C 252.07651,85.956249 253.22004,87.627699 254.89150,88.770641 C 256.56295,90.001853 258.58576,90.617475 261.04879,90.617475 C 263.51182,90.617475 265.53463,90.001853 267.20608,88.858933 C 268.96522,87.714802 270.19644,85.956249 270.98802,83.757480 C 271.60423,81.997749 271.95558,78.479465 271.95558,72.937774 L 271.95558,53.147000 C 271.95558,50.156046 272.57178,48.044953 273.89129,46.549481 C 275.29849,45.054594 277.05763,44.350701 279.16871,44.350701 C 281.45577,44.350701 283.21491,45.054594 284.62211,46.549481 C 285.94161,48.044953 286.64550,50.244328 286.64550,53.147000 L 286.64550,69.067554 C 286.64550,79.271649 285.85392,86.219925 284.18247,90.001863 C 282.24736,94.575997 279.34469,98.094270 275.56215,100.55792 C 271.69191,103.02036 266.85414,104.16448 260.96050,104.16448 C 254.53954,104.16448 249.34981,102.75670 245.39190,99.942314 C 241.43339,97.039631 238.70669,93.081130 237.12352,87.979677 C 235.97998,84.373112 235.36437,77.952156 235.36437,68.627932 L 235.36437,53.234676"
       style="fill:#122a3d;fill-rule:evenodd"
       id="path77" />
    <path
       d="M 350.76915,58.512108 C 350.76915,58.424421 350.68085,58.336734 350.68085,58.248453 C 350.68085,58.336724 350.76915,58.424421 350.76915,58.512108 C 350.94452,58.776367 351.03281,59.128313 351.11990,59.391968 C 352.79135,63.614144 353.67182,68.715608 353.67182,74.257277 C 353.67182,79.710687 352.79136,84.725037 351.20819,88.858933 C 351.11990,89.210879 350.94453,89.649917 350.76915,90.001863 C 350.76915,90.090155 350.68085,90.178436 350.68085,90.266728 L 350.68085,58.248453 C 350.85623,58.600399 350.94452,59.040032 351.11990,59.391989 C 351.03281,59.128313 350.94453,58.776367 350.76915,58.512108 M 350.68085,58.248453 C 350.50429,57.896496 350.32891,57.544561 350.15233,57.193198 C 350.32892,57.544539 350.50429,57.896496 350.68085,58.248453 L 350.68085,90.266728 C 350.24063,91.146005 349.88867,91.936989 349.44964,92.729173 C 349.00940,93.520158 348.56918,94.136958 348.04186,94.839662 C 346.45869,97.126723 344.43528,99.061838 342.14822,100.55792 C 338.45456,102.84498 333.70387,104.07619 328.07509,104.16448 L 328.07509,92.201854 C 330.53754,92.113562 332.64922,91.497961 334.40776,90.266739 C 335.81554,89.299181 336.95849,88.066770 337.75067,86.396509 C 337.92604,86.308217 338.01432,86.131654 338.10262,85.956281 C 339.59750,82.701662 340.56506,78.743140 340.56506,74.345590 C 340.56506,70.123414 339.68579,66.253184 338.27800,63.086241 C 337.31045,60.975158 336.07923,59.391989 334.40777,58.248464 C 332.64923,57.017241 330.53754,56.401035 328.07511,56.313349 L 328.07511,44.350722 C 328.60244,44.350722 329.04266,44.350722 329.48171,44.350722 C 335.37534,44.350722 338.27801,45.581934 342.14823,47.957287 C 344.17164,49.276791 345.93018,50.859960 347.42626,52.795075 C 348.48210,54.114579 349.36136,55.609456 350.15236,57.193230 C 350.32892,57.544539 350.50429,57.896496 350.68085,58.248453 z M 328.07509,44.350690 L 328.07509,56.313327 C 327.89853,56.313327 327.72315,56.313327 327.54658,56.313327 C 324.90876,56.313327 322.62170,57.017220 320.77367,58.248432 C 319.01513,59.567946 317.69562,61.415375 316.90343,63.701831 C 316.28782,65.460978 315.93588,68.364245 315.76050,72.234486 C 315.67221,78.304081 316.11245,82.437976 316.90343,84.812129 C 317.69562,87.099191 319.01513,88.947224 320.77367,90.266718 C 322.62170,91.497930 324.90876,92.201822 327.54658,92.201822 C 327.72315,92.201822 327.89853,92.201822 328.07509,92.201822 L 328.07509,104.16446 C 327.89853,104.16446 327.72315,104.16446 327.54658,104.16446 C 321.12562,104.16446 316.02418,102.75667 312.06565,99.854001 C 308.10773,97.039610 305.38103,93.081088 303.79786,87.891364 C 302.83031,85.164076 302.30239,80.678223 302.12641,74.432651 L 302.12641,73.553385 C 302.12641,73.465698 302.12641,73.378022 302.12641,73.289731 L 302.12641,33.795244 C 302.12641,31.332799 302.21411,29.485381 302.30239,28.078180 C 302.47836,26.670395 302.83031,25.526859 303.35764,24.559312 C 303.97325,23.504057 304.85311,22.712478 305.90836,22.008585 C 307.05190,21.392974 308.28371,21.041028 309.60321,21.041028 C 311.53831,21.041028 313.20977,21.744920 314.79294,23.240403 C 315.84879,24.119679 316.46439,25.351486 316.72805,26.758676 C 316.99171,28.078180 317.08000,30.013295 317.08000,32.564021 L 317.08000,47.692985 C 319.89441,46.725449 322.79708,44.702647 328.07509,44.350690 z "
       style="fill:#122a3d;fill-rule:evenodd"
       id="path79" />
    <path
       d="M 503.90806,44.438388 L 505.57951,44.438388 L 505.57951,35.379018 C 505.57951,33.003665 505.57951,31.068550 505.66780,29.749046 C 505.84318,28.341845 506.19512,27.198319 506.81075,26.143075 C 507.42636,25.175518 508.21853,24.295647 509.36146,23.680046 C 510.41731,23.064424 511.64852,22.712489 513.05631,22.712489 C 514.90314,22.712489 516.66288,23.415786 518.15776,24.823582 C 519.21361,25.791140 519.82921,27.022352 520.09287,28.341855 C 520.44482,29.749056 520.53310,31.684172 520.53310,34.235493 L 520.53310,44.438388 L 526.07359,44.438388 C 528.18528,44.438388 529.76844,44.966312 530.91138,46.022151 C 532.05550,46.989709 532.58282,48.220921 532.58282,49.804090 C 532.58282,51.827496 531.79184,53.234687 530.20867,54.114558 C 528.62550,54.906137 526.33844,55.258094 523.34748,55.258094 L 520.53310,55.258094 L 520.53310,82.877025 C 520.53310,85.252378 520.62020,87.099191 520.79676,88.331602 C 520.97213,89.562825 521.41238,90.617475 522.11627,91.409659 C 522.82016,92.201833 524.05138,92.552590 525.63455,92.552590 C 526.51382,92.552590 527.65795,92.465498 529.24112,92.113552 C 530.73600,91.849886 531.88013,91.673313 532.75939,91.673313 C 533.90234,91.673313 535.04646,92.113552 536.01401,93.169390 C 536.98157,94.136948 537.42061,95.279889 537.42061,96.687674 C 537.42061,99.150119 536.10111,100.99693 533.46329,102.22934 C 530.82427,103.54766 527.04113,104.16446 522.11626,104.16446 C 517.45385,104.16446 513.84728,103.37227 511.47313,101.78911 C 509.00950,100.29423 507.42634,98.094260 506.63534,95.279857 C 505.93145,92.465477 505.57950,88.770620 505.57950,84.109415 L 505.57950,55.258083 L 503.55609,55.258083 C 501.35733,55.258083 499.77416,54.730158 498.63003,53.762601 C 497.48708,52.706762 496.87148,51.387853 496.87148,49.804090 C 496.87148,48.220921 497.48710,46.989709 498.63003,46.022151 C 499.86127,44.966312 501.62100,44.438388 503.90806,44.438388"
       style="fill:#122a3d;fill-rule:evenodd"
       id="path81" />
  </g>
  <g
     transform="matrix(0.357950,0.000000,0.000000,0.356476,55.36107,96.67877)"
     id="g1456">
    <path
       id="path1291"
       d="M 77.649246,-227.84840 C 54.127376,-227.84840 31.948506,-222.30119 12.149246,-212.62965 L 37.180496,-169.22340 C 49.565386,-174.72206 63.232836,-177.84840 77.649246,-177.84840 C 129.40977,-177.84840 172.00818,-138.45591 177.11800,-88.035903 L 227.11800,-88.035903 C 224.46103,-127.13724 206.88115,-162.11573 179.93050,-187.31715 C 173.70514,-181.62466 165.49320,-178.03590 156.39925,-178.03590 C 137.07925,-178.03590 121.39925,-193.71590 121.39925,-213.03590 C 121.39925,-215.79497 121.79475,-218.46037 122.39925,-221.03590 C 108.26424,-225.45303 93.233576,-227.84840 77.649246,-227.84840 z "
       style="fill:#f65a00;fill-opacity:1.0000000;stroke-width:20.000000;stroke-linecap:round;stroke-linejoin:round;stroke-miterlimit:0.0000000" />
    <path
       id="path7512"
       d="M 1.5554955,-206.91090 C -31.346169,-187.41044 -56.226044,-155.78664 -66.725754,-118.09840 C -51.202182,-114.51671 -39.600754,-100.64246 -39.600754,-84.035903 C -39.600754,-66.435903 -52.646860,-51.992313 -69.569504,-49.535903 C -61.613551,-7.9800634 -36.466166,27.404097 -1.8820045,49.151597 L 23.086746,5.8703466 C -4.2454575,-11.984513 -22.350754,-42.787773 -22.350754,-77.848403 C -22.350754,-114.35186 -2.7106015,-146.23292 26.524246,-163.69215 L 1.5554955,-206.91090 z "
       style="fill:#fc9a00;fill-opacity:1.0000000;stroke-width:20.000000;stroke-linecap:round;stroke-linejoin:round;stroke-miterlimit:0.0000000" />
    <path
       id="path7510"
       d="M 177.55550,-76.035903 C 176.57742,-21.680023 132.23733,22.151597 77.649246,22.151597 C 61.791186,22.151597 46.850016,18.355827 33.524246,11.776597 L 8.5242455,55.089097 C 29.222946,65.897397 52.683606,72.151597 77.649246,72.151597 C 96.766146,72.151597 114.98680,68.430797 131.80550,61.901597 C 130.30381,58.001697 129.39925,53.797097 129.39925,49.370397 C 129.39925,30.050297 145.07925,14.370347 164.39925,14.370347 C 173.47569,14.370347 181.67795,17.916107 187.89925,23.589097 C 212.11277,-2.7146734 227.09067,-37.604843 227.55550,-76.035903 L 177.55550,-76.035903 z "
       style="fill:#db0000;fill-opacity:1.0000000;stroke-width:20.000000;stroke-linecap:round;stroke-linejoin:round;stroke-miterlimit:0.0000000" />
    <path
       transform="translate(-93.74365,-464.2680)"
       sodipodi:type="arc"
       style="fill:#db0000;fill-opacity:1.0000000;stroke-width:20.000000;stroke-linecap:round;stroke-linejoin:round;stroke-miterlimit:0.0000000"
       id="path2815"
       d="M 275.00000 250.00000 A 25.000000 25.000000 0 1 1  225.00000,250.00000 A 25.000000 25.000000 0 1 1  275.00000 250.00000 z"
       sodipodi:rx="25.000000"
       sodipodi:ry="25.000000"
       sodipodi:cy="250.00000"
       sodipodi:cx="250.00000" />
    <path
       transform="translate(-327.6008,-333.0487)"
       sodipodi:type="arc"
       style="fill:#f65a00;fill-opacity:1.0000000;stroke-width:20.000000;stroke-linecap:round;stroke-linejoin:round;stroke-miterlimit:0.0000000"
       id="path2055"
       d="M 275.00000 250.00000 A 25.000000 25.000000 0 1 1  225.00000,250.00000 A 25.000000 25.000000 0 1 1  275.00000 250.00000 z"
       sodipodi:rx="25.000000"
       sodipodi:ry="25.000000"
       sodipodi:cy="250.00000"
       sodipodi:cx="250.00000" />
    <path
       transform="translate(-86.60075,-201.0487)"
       sodipodi:type="arc"
       style="fill:#fc9a00;fill-opacity:1.0000000;stroke-width:20.000000;stroke-linecap:round;stroke-linejoin:round;stroke-miterlimit:0.0000000"
       id="path2816"
       d="M 275.00000 250.00000 A 25.000000 25.000000 0 1 1  225.00000,250.00000 A 25.000000 25.000000 0 1 1  275.00000 250.00000 z"
       sodipodi:rx="25.000000"
       sodipodi:ry="25.000000"
       sodipodi:cy="250.00000"
       sodipodi:cx="250.00000" />
  </g>
</svg>
