<?xml version="1.0" encoding="UTF-8" standalone="no"?>
<!-- Created with Inkscape (http://www.inkscape.org/) -->
<svg
   xmlns:xml="http://www.w3.org/XML/1998/namespace"
   xmlns:dc="http://purl.org/dc/elements/1.1/"
   xmlns:cc="http://web.resource.org/cc/"
   xmlns:rdf="http://www.w3.org/1999/02/22-rdf-syntax-ns#"
   xmlns:svg="http://www.w3.org/2000/svg"
   xmlns="http://www.w3.org/2000/svg"
   xmlns:xlink="http://www.w3.org/1999/xlink"
   xmlns:sodipodi="http://inkscape.sourceforge.net/DTD/sodipodi-0.dtd"
   xmlns:inkscape="http://www.inkscape.org/namespaces/inkscape"
   width="612.00000pt"
   height="792.00000pt"
   id="svg1"
   sodipodi:version="0.32"
   inkscape:version="0.41"
   sodipodi:docbase="/home/sean/projects/ubuntu/trunk/artwork"
   sodipodi:docname="ubuntu-brochure.svg"
   inkscape:export-filename="/home/corey/Documents/ubuntu brochure.png"
   inkscape:export-xdpi="72.000000"
   inkscape:export-ydpi="72.000000">
  <defs
     id="defs3">
    <marker
       style="overflow:visible;"
       id="TriangleOutL"
       refX="0.0"
       refY="0.0"
       orient="auto"
       inkscape:stockid="TriangleOutL">
      <path
         transform="scale(0.8)"
         style="fill-rule:evenodd;stroke:#000000;stroke-width:1.0pt;marker-start:none;"
         d="M 5.77,0.0 L -2.88,5.0 L -2.88,-5.0 L 5.77,0.0 z "
         id="path1841"
         sodipodi:nodetypes="cccc" />
    </marker>
    <marker
       style="overflow:visible;"
       id="Arrow1L"
       refX="0.0"
       refY="0.0"
       orient="auto"
       inkscape:stockid="Arrow1L">
      <path
         transform="scale(0.8)"
         style="fill-rule:evenodd;stroke:#000000;stroke-width:1.0pt;marker-start:none;"
         d="M 0.0,0.0 L 5.0,-5.0 L -12.5,0.0 L 5.0,5.0 L 0.0,0.0 z "
         id="path1893"
         sodipodi:nodetypes="ccccc" />
    </marker>
    <linearGradient
       inkscape:collect="always"
       id="linearGradient2325">
      <stop
         style="stop-color:#000000;stop-opacity:1;"
         offset="0"
         id="stop2326" />
      <stop
         style="stop-color:#000000;stop-opacity:0;"
         offset="1"
         id="stop2327" />
    </linearGradient>
    <linearGradient
       id="linearGradient2322">
      <stop
         style="stop-color:#eec73e;stop-opacity:1.0000000;"
         offset="0.0000000"
         id="stop2323" />
      <stop
         style="stop-color:#f44800;stop-opacity:1.0000000;"
         offset="1.0000000"
         id="stop2324" />
    </linearGradient>
    <linearGradient
       id="linearGradient1683">
      <stop
         style="stop-color:#eec73e;stop-opacity:1.0000000;"
         offset="0.0000000"
         id="stop1684" />
      <stop
         style="stop-color:#f44800;stop-opacity:1.0000000;"
         offset="1.0000000"
         id="stop1685" />
    </linearGradient>
    <linearGradient
       inkscape:collect="always"
       xlink:href="#linearGradient2322"
       id="linearGradient1166"
       gradientUnits="userSpaceOnUse"
       gradientTransform="matrix(1.020765,0.000000,0.000000,0.947574,-2.209532,-1.347287)"
       x1="160.69450"
       y1="333.11566"
       x2="1451.3926"
       y2="1002.4023" />
    <linearGradient
       inkscape:collect="always"
       xlink:href="#linearGradient2325"
       id="linearGradient1167"
       gradientUnits="userSpaceOnUse"
       gradientTransform="matrix(1.020738,0.000000,0.000000,0.947600,-2.209532,-1.347487)"
       x1="323.32181"
       y1="489.52417"
       x2="570.91057"
       y2="489.52417" />
  </defs>
  <sodipodi:namedview
     id="base"
     pagecolor="#ffffff"
     bordercolor="#666666"
     borderopacity="1.0"
     inkscape:pageopacity="0.0"
     inkscape:pageshadow="2"
     inkscape:zoom="0.66992145"
     inkscape:cx="-487.13925"
     inkscape:cy="543.28387"
     inkscape:current-layer="layer2"
     inkscape:window-width="1276"
     inkscape:window-height="926"
     inkscape:window-x="0"
     inkscape:window-y="21"
     showguides="true"
     inkscape:guide-bbox="true" />
  <metadata
     id="metadata4">
    <rdf:RDF
       id="RDF5">
      <cc:Work
         rdf:about=""
         id="Work6">
        <dc:format
           id="format7">image/svg+xml</dc:format>
        <dc:type
           id="type9"
           rdf:resource="http://purl.org/dc/dcmitype/StillImage" />
        <cc:license
           rdf:resource="http://creativecommons.org/licenses/by/2.0/"
           id="license1356" />
      </cc:Work>
      <cc:License
         id="License1358"
         rdf:about="http://creativecommons.org/licenses/by/2.0/">
        <cc:permits
           id="permits1360"
           rdf:resource="http://web.resource.org/cc/Reproduction" />
        <cc:permits
           id="permits1362"
           rdf:resource="http://web.resource.org/cc/Distribution" />
        <cc:requires
           id="requires1364"
           rdf:resource="http://web.resource.org/cc/Notice" />
        <cc:requires
           id="requires1366"
           rdf:resource="http://web.resource.org/cc/Attribution" />
        <cc:permits
           id="permits1368"
           rdf:resource="http://web.resource.org/cc/DerivativeWorks" />
        <cc:requires
           id="requires1370"
           rdf:resource="http://web.resource.org/cc/ShareAlike" />
      </cc:License>
    </rdf:RDF>
  </metadata>
  <g
     inkscape:groupmode="layer"
     id="layer2"
     inkscape:label="page"
     style="display:block">
    <rect
       y="-204.27359"
       x="-1303.0920"
       height="476.38269"
       width="508.92346"
       id="rect5199"
       style="fill:#03f756;fill-opacity:1.0000000;stroke:#0b0803;stroke-width:0.43007863;stroke-linecap:round;stroke-linejoin:round;stroke-miterlimit:4.0000000;stroke-opacity:1.0000000" />
    <rect
       style="opacity:0.86243385;fill:url(#linearGradient1166);fill-opacity:1.0000000;fill-rule:evenodd;stroke:url(#linearGradient1167);stroke-width:2.0502157;stroke-linecap:butt;stroke-linejoin:round;stroke-miterlimit:4.0000000;stroke-opacity:0.37912086;display:block"
       id="rect1061"
       width="762.84723"
       height="988.01581"
       x="1.3969855"
       y="0.87811983" />
  </g>
  <g
     inkscape:label="Layer 1"
     inkscape:groupmode="layer"
     id="layer1"
     style="display:block">
    <text
       xml:space="preserve"
       style="font-size:32.793575;font-style:normal;font-weight:normal;fill:#000000;fill-opacity:1.0000000;stroke:none;stroke-width:1.0000000pt;stroke-linecap:butt;stroke-linejoin:miter;stroke-opacity:1.0000000;font-family:Bitstream Vera Sans"
       x="102.77578"
       y="432.4032"
       id="text1149"><tspan
         sodipodi:role="line"
         id="tspan1150"
         x="102.77578"
         y="432.40320">Ubuntu 5.04 (Hoary Hedgehog)</tspan></text>
    <text
       xml:space="preserve"
       style="font-size:50.000000;font-style:normal;font-variant:normal;font-weight:bold;font-stretch:normal;fill:#000000;fill-opacity:1.0000000;stroke:none;stroke-width:1.0000000pt;stroke-linecap:butt;stroke-linejoin:miter;stroke-opacity:1.0000000;font-family:ae_AlMateen;text-anchor:start;writing-mode:lr-tb"
       x="20.469889"
       y="90.581863"
       id="text1169"
       sodipodi:linespacing="100%"><tspan
         sodipodi:role="line"
         id="tspan1170"
         x="20.469889"
         y="90.581863">about:ubuntu</tspan></text>
    <text
       xml:space="preserve"
       style="font-size:30.000000;font-style:normal;font-variant:normal;font-weight:normal;font-stretch:normal;fill:#000000;fill-opacity:1.0000000;stroke:none;stroke-width:1.0000000pt;stroke-linecap:butt;stroke-linejoin:miter;stroke-opacity:1.0000000;font-family:Bitstream Vera Sans;text-anchor:start;writing-mode:lr-tb"
       x="227.54495"
       y="767.12061"
       id="text1148"
       sodipodi:linespacing="100%"><tspan
         sodipodi:role="line"
         id="tspan1149"
         x="227.54495"
         y="767.12061">how to get Ubuntu</tspan></text>
    <text
       xml:space="preserve"
       style="font-size:30.000000;font-style:normal;font-variant:normal;font-weight:normal;font-stretch:normal;fill:#000000;fill-opacity:1.0000000;stroke:none;stroke-width:1.0000000pt;stroke-linecap:butt;stroke-linejoin:miter;stroke-opacity:1.0000000;font-family:Bitstream Vera Sans;text-anchor:start;writing-mode:lr-tb"
       x="36.376801"
       y="125.03749"
       id="text1152"
       sodipodi:linespacing="100%"><tspan
         sodipodi:role="line"
         id="tspan1153"
         x="36.376801"
         y="125.03749">linux for human beings</tspan></text>
    <text
       xml:space="preserve"
       style="font-size:24.000000;font-style:normal;font-variant:normal;font-weight:normal;font-stretch:normal;fill:#000000;fill-opacity:1.0000000;stroke:none;stroke-width:1.0000000pt;stroke-linecap:butt;stroke-linejoin:miter;stroke-opacity:1.0000000;font-family:Bitstream Vera Sans;text-anchor:start;writing-mode:lr-tb"
       x="525.20996"
       y="811.44257"
       id="text1168"
       sodipodi:linespacing="100%"><tspan
         sodipodi:role="line"
         id="tspan1169"
         x="525.20996"
         y="811.44257">shipit</tspan></text>
    <text
       xml:space="preserve"
       style="font-size:20.000000;font-style:normal;font-variant:normal;font-weight:bold;font-stretch:normal;fill:#000000;fill-opacity:1.0000000;stroke:none;stroke-width:1.0000000pt;stroke-linecap:butt;stroke-linejoin:miter;stroke-opacity:1.0000000;font-family:Bitstream Vera Sans;text-anchor:start;writing-mode:lr-tb"
       x="590.18964"
       y="47.51923"
       id="text3173"
       sodipodi:linespacing="100%"><tspan
         sodipodi:role="line"
         id="tspan3174"
         x="590.18964"
         y="47.519230">quick facts</tspan></text>
    <path
       style="fill:none;fill-opacity:0.75000000;fill-rule:evenodd;stroke:#000000;stroke-width:1.2500000;stroke-linecap:butt;stroke-linejoin:miter;stroke-miterlimit:4.0000000;stroke-opacity:1.0000000"
       d="M 714.21155,42.241756 L 728.72478,42.241756 L 728.72478,283.68898"
       id="path3813"
       sodipodi:nodetypes="ccc" />
    <text
       xml:space="preserve"
       style="font-size:24.000000;font-style:normal;font-variant:normal;font-weight:normal;font-stretch:normal;fill:#000000;fill-opacity:1.0000000;stroke:none;stroke-width:1.0000000pt;stroke-linecap:butt;stroke-linejoin:miter;stroke-opacity:1.0000000;font-family:Bitstream Vera Sans;text-anchor:end;writing-mode:lr-tb"
       x="719.48914"
       y="84.462036"
       id="text4447"
       sodipodi:linespacing="150%"><tspan
         sodipodi:role="line"
         id="tspan4448"
         x="719.48914"
         y="84.462036">Based on Debian Sid</tspan><tspan
         sodipodi:role="line"
         id="tspan4450"
         x="719.48914"
         y="120.46204">Six month releases</tspan><tspan
         sodipodi:role="line"
         id="tspan4452"
         x="719.48914"
         y="156.46204">18 month support cycle</tspan><tspan
         sodipodi:role="line"
         id="tspan4454"
         x="719.48914"
         y="192.46204">Latest GNOME</tspan><tspan
         sodipodi:role="line"
         id="tspan4456"
         x="719.48914"
         y="228.46204">One CD install</tspan><tspan
         sodipodi:role="line"
         id="tspan4458"
         x="719.48914"
         y="264.46204">Really cool release names</tspan></text>
    <text
       xml:space="preserve"
       style="font-size:24.000000;font-style:normal;font-variant:normal;font-weight:normal;font-stretch:normal;fill:#000000;fill-opacity:1.0000000;stroke:none;stroke-width:1.0000000pt;stroke-linecap:butt;stroke-linejoin:miter;stroke-opacity:1.0000000;font-family:Bitstream Vera Sans;text-anchor:start;writing-mode:lr-tb"
       x="164.85402"
       y="839.32336"
       id="text4460"
       sodipodi:linespacing="100%"><tspan
         sodipodi:role="line"
         id="tspan4461"
         x="164.85402"
         y="839.32336">download</tspan></text>
    <path
       style="fill:none;fill-opacity:0.75000000;fill-rule:evenodd;stroke:#000000;stroke-width:1.2500000;stroke-linecap:butt;stroke-linejoin:miter;stroke-miterlimit:4.0000000;stroke-opacity:1.0000000;marker-start:none;marker-end:url(#TriangleOutL)"
       d="M 354.01979,781.75635 L 354.01979,803.52618 L 511.68614,803.52618"
       id="path4463"
       sodipodi:nodetypes="ccc" />
    <path
       style="fill:none;fill-opacity:0.75000000;fill-rule:evenodd;stroke:#000000;stroke-width:1.2500000;stroke-linecap:butt;stroke-linejoin:miter;stroke-miterlimit:4.0000000;stroke-opacity:1.0000000;marker-end:url(#TriangleOutL)"
       d="M 353.48015,794.13386 L 222.86113,794.13386 L 222.86113,811.28585"
       id="path4465" />
    <text
       xml:space="preserve"
       style="font-size:12.000000;font-style:normal;font-weight:normal;fill:#000000;fill-opacity:1.0000000;stroke:none;stroke-width:1.0000000pt;stroke-linecap:butt;stroke-linejoin:miter;stroke-opacity:1.0000000;font-family:Bitstream Vera Sans"
       x="13.061268"
       y="491.84869"
       id="text5099"><tspan
         sodipodi:role="line"
         id="tspan5100"
         x="13.061268"
         y="491.84869">Gnome 2.10</tspan></text>
  </g>
  <g
     style="fill:#ffffff;fill-opacity:0.28999999"
     id="g827"
     transform="translate(191.0280,485.0617)">
    <path
       d="M 477.98900,383.17000 C 477.98900,380.13800 478.67200,377.88200 480.04200,376.40100 C 481.41000,374.88600 483.22100,374.12900 485.47900,374.12700 C 487.77100,374.12700 489.62100,374.88600 491.02700,376.40100 C 492.43100,377.91900 493.13400,380.17400 493.13500,383.17000 L 493.13500,402.87400 C 493.13500,408.47000 493.51900,412.36500 494.28800,414.56000 C 495.05600,416.71800 496.28000,418.40000 497.96300,419.60700 C 499.68100,420.81400 501.78500,421.41800 504.27200,421.41800 C 506.75800,421.41800 508.86200,420.83300 510.58100,419.66200 C 512.33700,418.45500 513.63500,416.69900 514.47700,414.39500 C 515.09700,412.67700 515.40800,409.00200 515.40900,403.36800 L 515.40900,383.10000 C 515.40900,380.09100 516.09000,377.85300 517.44900,376.38400 C 518.80700,374.88000 520.60500,374.12900 522.84500,374.12700 C 525.11900,374.12700 526.95400,374.88000 528.35000,376.38400 C 529.74300,377.88900 530.44000,380.12700 530.44100,383.10000 L 530.44100,399.41800 C 530.44100,409.84200 529.61800,416.97400 527.97300,420.81400 C 525.96000,425.49600 522.99700,429.09800 519.08500,431.62200 C 515.17100,434.10800 510.19700,435.35100 504.16300,435.35200 C 497.61500,435.35200 492.31300,433.88800 488.25300,430.96400 C 484.22900,428.03900 481.39500,423.96000 479.74900,418.72900 C 478.57800,415.10800 477.99400,408.52500 477.99400,398.97900 L 477.98900,383.17000 z "
       id="path828" />
    <path
       d="M 361.67900,426.30900 C 361.67900,429.34100 362.36200,431.59700 363.73100,433.07800 C 365.09900,434.59300 366.91100,435.35100 369.16900,435.35200 C 371.46100,435.35200 373.31100,434.59300 374.71700,433.07800 C 376.12100,431.56100 376.82300,429.30500 376.82500,426.30900 L 376.82500,406.60500 C 376.82500,401.00900 377.20900,397.11400 377.97700,394.91900 C 378.74500,392.76100 379.96900,391.07900 381.65300,389.87200 C 383.37100,388.66500 385.47400,388.06200 387.96200,388.06200 C 390.44800,388.06200 392.55100,388.64600 394.27100,389.81700 C 396.02700,391.02400 397.32400,392.78000 398.16600,395.08400 C 398.78700,396.80200 399.09700,400.47800 399.09900,406.11100 L 399.09900,426.37900 C 399.09900,429.38800 399.78000,431.62600 401.13900,433.09500 C 402.49600,434.59900 404.29400,435.35100 406.53400,435.35200 C 408.80800,435.35200 410.64400,434.59900 412.03900,433.09500 C 413.43300,431.59000 414.12900,429.35200 414.13100,426.37900 L 414.13100,410.06100 C 414.13100,399.63700 413.30800,392.50500 411.66200,388.66500 C 409.64900,383.98300 406.68700,380.38100 402.77500,377.85700 C 398.86100,375.37200 393.88700,374.12900 387.85200,374.12700 C 381.30500,374.12700 376.00200,375.59100 371.94200,378.51600 C 367.91900,381.44000 365.08500,385.51900 363.43900,390.75000 C 362.26800,394.37100 361.68300,400.95400 361.68300,410.50000 L 361.67900,426.30900 z "
       id="path829" />
    <path
       d="M 293.11000,383.17000 C 293.11000,380.13800 293.79300,377.88200 295.16300,376.40100 C 296.53100,374.88600 298.34300,374.12900 300.60000,374.12700 C 302.89200,374.12700 304.74200,374.88600 306.14800,376.40100 C 307.55200,377.91900 308.25500,380.17400 308.25600,383.17000 L 308.25700,402.87400 C 308.25700,408.47000 308.64000,412.36500 309.40900,414.56000 C 310.17700,416.71800 311.40100,418.40000 313.08400,419.60700 C 314.80200,420.81400 316.90600,421.41800 319.39300,421.41800 C 321.87900,421.41800 323.98300,420.83300 325.70200,419.66200 C 327.45800,418.45500 328.75600,416.69900 329.59800,414.39500 C 330.21800,412.67700 330.52900,409.00200 330.53000,403.36800 L 330.53000,383.10000 C 330.53000,380.09100 331.21100,377.85300 332.57000,376.38400 C 333.92800,374.88000 335.72600,374.12900 337.96600,374.12700 C 340.24000,374.12700 342.07500,374.88000 343.47100,376.38400 C 344.86400,377.88900 345.56100,380.12700 345.56200,383.10000 L 345.56200,399.41800 C 345.56200,409.84200 344.73900,416.97400 343.09400,420.81400 C 341.08100,425.49600 338.11800,429.09800 334.20600,431.62200 C 330.29200,434.10800 325.31800,435.35100 319.28400,435.35200 C 312.73600,435.35200 307.43300,433.88800 303.37400,430.96400 C 299.35000,428.03900 296.51600,423.96000 294.87000,418.72900 C 293.69900,415.10800 293.11500,408.52500 293.11500,398.97900 L 293.11000,383.17000 z "
       id="path830" />
    <path
       d="M 157.42300,383.17000 C 157.42300,380.13800 158.10700,377.88200 159.47600,376.40100 C 160.84400,374.88600 162.65600,374.12900 164.91300,374.12700 C 167.20500,374.12700 169.05500,374.88600 170.46200,376.40100 C 171.85400,377.90600 172.55700,380.14100 172.57000,383.10000 L 172.57000,402.87400 C 172.57000,408.47000 172.95400,412.36500 173.72200,414.56000 C 174.49000,416.71800 175.71400,418.40000 177.39800,419.60700 C 179.11600,420.81400 181.21900,421.41800 183.70700,421.41800 C 186.19300,421.41800 188.29600,420.83300 190.01600,419.66200 C 191.77200,418.45500 193.07000,416.69900 193.91100,414.39500 C 194.53200,412.67700 194.84200,409.00200 194.84400,403.36800 L 194.84400,383.10000 C 194.84400,380.09100 195.52500,377.85300 196.88400,376.38400 C 198.24100,374.88000 200.03900,374.12900 202.27900,374.12700 C 204.55300,374.12700 206.38900,374.88000 207.78400,376.38400 C 209.17800,377.88900 209.87400,380.12700 209.87600,383.10000 L 209.87600,399.41800 C 209.87600,409.84200 209.05300,416.97400 207.40700,420.81400 C 205.39400,425.49600 202.43200,429.09800 198.52000,431.62200 C 194.60600,434.10800 189.63200,435.35100 183.59700,435.35200 C 177.05000,435.35200 171.74700,433.88800 167.68700,430.96400 C 163.66400,428.03900 160.83000,423.96000 159.18400,418.72900 C 158.01300,415.10800 157.42800,408.52500 157.42800,398.97900 L 157.42300,383.17000 z "
       id="path831" />
    <path
       d="M 275.62300,388.64400 C 275.42300,388.17900 275.21400,387.72400 274.99500,387.28000 C 275.34000,387.99500 275.66400,388.74400 275.96600,389.52500 C 275.85600,389.21500 275.74200,388.92100 275.62300,388.64400 z M 225.73200,404.91900 L 225.76000,404.02400 C 225.74100,403.94000 225.73200,403.84000 225.73200,403.72200 L 225.73200,363.29000 C 225.73200,360.81200 225.78800,358.88000 225.90100,357.49000 C 226.05000,356.06500 226.42500,354.84500 227.02700,353.82900 C 227.62700,352.77900 228.49000,351.93400 229.61800,351.29500 C 230.74400,350.62000 232.00000,350.28200 233.39100,350.28200 C 235.34200,350.28200 237.10600,351.01400 238.68400,352.47800 C 239.73500,353.45500 240.39100,354.65700 240.65500,356.08200 C 240.95400,357.47200 241.10400,359.46100 241.10600,362.05100 L 241.10600,377.56600 C 244.20000,376.45000 247.47100,374.10600 253.84600,374.10600 C 259.88100,374.10800 262.82200,375.35100 266.73600,377.83700 C 268.80800,379.17300 270.61300,380.81200 272.15200,382.75400 C 273.23000,384.11400 274.17800,385.62200 274.99500,387.28000 C 275.21400,387.72400 275.42300,388.17900 275.62300,388.64400 C 275.74200,388.92100 275.85600,389.21500 275.96600,389.52500 C 277.62300,393.81400 278.59600,399.05200 278.59600,404.70700 C 278.59600,410.26000 277.65700,415.41100 276.05500,419.65600 C 275.91800,420.06200 275.77400,420.44200 275.62300,420.79300 C 275.19300,421.79500 274.71900,422.74700 274.20200,423.64900 C 273.77800,424.38900 273.32400,425.09600 272.84200,425.76900 C 271.16100,428.11600 269.12500,430.06000 266.73600,431.60100 C 262.82200,434.08700 257.84800,435.33000 251.81300,435.33200 C 245.26600,435.33200 239.96300,433.86800 235.90400,430.94300 C 231.88000,428.01800 229.04600,423.94000 227.40000,418.70900 C 226.49100,415.89800 225.93500,411.30100 225.73200,404.91900 z M 258.81500,421.13500 C 260.25700,420.14400 261.41800,418.81600 262.29900,417.15300 C 262.42700,417.00800 262.53400,416.84900 262.61700,416.67500 C 264.19300,413.37900 265.12800,409.26700 265.12800,404.80900 C 265.12800,400.50600 264.25700,396.52600 262.77900,393.29000 C 261.85600,391.14900 260.53600,389.48800 258.81500,388.30500 C 256.92400,387.01700 254.61000,386.37400 251.87500,386.37400 C 249.13900,386.37400 246.82500,387.03800 244.93500,388.36500 C 243.08300,389.69300 241.73700,391.54300 240.89200,393.91800 C 240.24800,395.75600 239.85000,398.68100 239.69700,402.69200 C 239.63200,408.90200 240.05500,413.13000 240.89200,415.52200 C 241.73700,417.89600 243.08300,419.74600 244.93500,421.07400 C 246.82500,422.40200 249.13900,423.06600 251.87500,423.06600 C 254.61000,423.06600 256.92400,422.42300 258.81500,421.13500 z "
       id="path832" />
    <path
       d="M 432.26800,374.21100 L 433.95700,374.21100 L 433.95700,364.97800 C 433.95700,362.50100 434.01300,360.56900 434.12600,359.17900 C 434.27500,357.75400 434.65000,356.53500 435.25200,355.52000 C 435.85200,354.46900 436.71400,353.62500 437.84200,352.98600 C 438.96800,352.31100 440.22400,351.97300 441.61400,351.97300 C 443.56500,351.97300 445.32800,352.70500 446.90600,354.16800 C 447.95600,355.14500 448.61200,356.34700 448.87600,357.77200 C 449.17600,359.16100 449.32500,361.15000 449.32700,363.73900 L 449.32700,374.21100 L 454.95700,374.21100 C 457.13300,374.21100 458.78300,374.73700 459.91100,375.78800 C 461.07400,376.80100 461.65500,378.11500 461.65600,379.72800 C 461.65600,381.79400 460.83000,383.23800 459.17900,384.06400 C 457.56400,384.89000 455.23800,385.30200 452.19800,385.30200 L 449.32700,385.30200 L 449.32700,413.56500 C 449.32700,415.96800 449.40100,417.82600 449.55200,419.13800 C 449.73900,420.41600 450.18900,421.46600 450.90300,422.29100 C 451.65300,423.07900 452.85400,423.47300 454.50600,423.47300 C 455.40700,423.47300 456.62600,423.32400 458.16600,423.02300 C 459.70300,422.68500 460.90500,422.51600 461.76900,422.51600 C 463.00800,422.51600 464.11400,423.02300 465.09100,424.03600 C 466.10400,425.01300 466.61100,426.23200 466.61100,427.69600 C 466.61100,430.17300 465.26000,432.06900 462.55700,433.38200 C 459.85500,434.69400 455.97000,435.35100 450.90300,435.35200 C 446.09800,435.35200 442.45800,434.54500 439.98100,432.93200 C 437.50400,431.31800 435.87100,429.08600 435.08300,426.23200 C 434.33200,423.38000 433.95700,419.57100 433.95700,414.80300 L 433.95700,385.30200 L 431.93000,385.30200 C 429.71500,385.30200 428.02600,384.77800 426.86300,383.72600 C 425.69900,382.67500 425.11800,381.34400 425.11800,379.72800 C 425.11800,378.11500 425.71800,376.80300 426.92000,375.78800 C 428.15800,374.73700 429.94100,374.21300 432.26800,374.21100 z "
       id="path833" />
  </g>
  <g
     id="g1869"
     transform="matrix(3.427491,0.000000,0.000000,3.427491,1701.776,-2300.219)"
     sodipodi:insensitive="1">
    <g
       style="fill:#ffffff;fill-opacity:0.14999999"
       id="g834"
       transform="translate(-874.6212,274.1801)">
      <path
         d="M 62.772000,374.10100 L 52.738000,356.72300 C 62.904000,351.70100 74.072000,350.48400 84.519000,352.61100 C 83.757000,359.19600 86.873000,365.91000 92.979000,369.43500 C 99.087000,372.96200 106.46400,372.30200 111.78600,368.34500 C 113.93900,370.78400 115.88200,373.47400 117.57200,376.40000 C 121.32400,382.89900 123.43700,389.89300 124.03900,396.90600 L 103.89500,396.80200 C 102.61300,388.20000 97.561000,380.24300 89.444000,375.55700 C 80.974000,370.66700 71.089000,370.44800 62.772000,374.10100 z "
         id="path835" />
    </g>
    <g
       style="fill:#ffffff;fill-opacity:0.12999995"
       id="g836"
       transform="translate(-874.6212,274.1801)">
      <path
         d="M 45.531000,441.30600 C 40.063000,437.34200 35.321000,432.19100 31.726000,425.96400 C 29.975000,422.93200 28.582000,419.79100 27.531000,416.59100 C 29.560000,415.19200 31.317000,413.33200 32.631000,411.05600 C 37.261000,403.03600 34.673000,392.82900 26.882000,387.95800 C 29.812000,377.37500 36.238000,367.75300 45.657000,360.97800 L 55.745000,378.45100 C 53.148000,380.61700 50.881000,383.26900 49.092000,386.36900 C 41.802000,398.99500 44.893000,414.76600 55.716000,423.79900 L 45.531000,441.30600 z "
         id="path837" />
    </g>
    <g
       style="fill:#ffffff;fill-opacity:0.15999998"
       id="g838"
       transform="translate(-874.6212,274.1801)">
      <path
         d="M 84.709000,449.72700 C 73.757000,451.99900 62.435000,450.45000 52.602000,445.57800 L 62.736000,428.16100 C 76.364000,434.20200 92.635000,429.10900 100.25600,415.90800 C 102.24600,412.46100 103.46300,408.77900 103.96000,405.06300 L 124.05600,405.16700 C 123.12500,416.59300 118.24900,427.55900 109.99900,435.94000 C 101.85900,431.50500 91.623000,434.35200 86.962000,442.42500 C 85.627000,444.73700 84.892000,447.23200 84.709000,449.72700 z "
         id="path839" />
    </g>
    <g
       style="fill:#ffffff;fill-opacity:0.12999995"
       id="g840"
       transform="translate(-874.6212,274.1801)">
      <path
         d="M 91.664000,445.16100 C 94.896000,439.56200 102.05600,437.64400 107.65500,440.87600 C 113.25500,444.10900 115.17300,451.26900 111.94000,456.86800 C 108.70800,462.46700 101.54800,464.38600 95.949000,461.15300 C 90.349000,457.92000 88.431000,450.76000 91.664000,445.16100 z "
         id="path841" />
      <path
         id="path842"
         d="" />
    </g>
    <g
       style="fill:#ffffff;fill-opacity:0.15999998"
       id="g843"
       transform="translate(-874.6212,274.1801)">
      <path
         d="M 91.406000,348.76000 C 94.638000,343.16100 101.79800,341.24200 107.39700,344.47500 C 112.99600,347.70800 114.91500,354.86700 111.68200,360.46700 C 108.44900,366.06600 101.29000,367.98400 95.691000,364.75100 C 90.091000,361.51900 88.173000,354.35900 91.406000,348.76000 z "
         id="path844" />
      <path
         id="path845"
         d="" />
    </g>
    <g
       style="fill:#ffffff;fill-opacity:0.14999999"
       id="g846"
       transform="translate(-874.6212,274.1801)">
      <path
         d="M 7.6480000,396.64700 C 10.880000,391.04800 18.040000,389.13000 23.639000,392.36300 C 29.238000,395.59500 31.157000,402.75500 27.924000,408.35400 C 24.691000,413.95400 17.532000,415.87200 11.933000,412.63900 C 6.3330000,409.40600 4.4150000,402.24700 7.6480000,396.64700 z "
         id="path847" />
      <path
         id="path848"
         d="" />
    </g>
  </g>
</svg>
